<?xml version="1.0" encoding="UTF-8" standalone="no"?>
<!-- Created with Inkscape (http://www.inkscape.org/) -->

<svg
   version="1.1"
   id="svg2"
   width="666.66669"
   height="666.66669"
   viewBox="0 0 666.66669 666.66669"
   sodipodi:docname="illustration1.ai"
   xmlns:inkscape="http://www.inkscape.org/namespaces/inkscape"
   xmlns:sodipodi="http://sodipodi.sourceforge.net/DTD/sodipodi-0.dtd"
   xmlns="http://www.w3.org/2000/svg"
   xmlns:svg="http://www.w3.org/2000/svg">
  <defs
     id="defs6">
    <clipPath
       clipPathUnits="userSpaceOnUse"
       id="clipPath16">
      <path
         d="M 0,500 H 500 V 0 H 0 Z"
         id="path14" />
    </clipPath>
    <clipPath
       clipPathUnits="userSpaceOnUse"
       id="clipPath52">
      <path
         d="m 295.492,425.193 h 39.354 v -43.622 h -39.354 z"
         id="path50" />
    </clipPath>
    <clipPath
       clipPathUnits="userSpaceOnUse"
       id="clipPath128">
      <path
         d="m 269.385,226.396 h 68.651 v -53.455 h -68.651 z"
         id="path126" />
    </clipPath>
    <clipPath
       clipPathUnits="userSpaceOnUse"
       id="clipPath144">
      <path
         d="M 0,500 H 500 V 0 H 0 Z"
         id="path142" />
    </clipPath>
    <clipPath
       clipPathUnits="userSpaceOnUse"
       id="clipPath156">
      <path
         d="M 115.164,435.241 H 384.836 V 141.769 H 115.164 Z"
         id="path154" />
    </clipPath>
    <clipPath
       clipPathUnits="userSpaceOnUse"
       id="clipPath176">
      <path
         d="M 0,500 H 500 V 0 H 0 Z"
         id="path174" />
    </clipPath>
    <clipPath
       clipPathUnits="userSpaceOnUse"
       id="clipPath184">
      <path
         d="m 222.117,372.045 h 50.018 V 230.894 h -50.018 z"
         id="path182" />
    </clipPath>
    <clipPath
       clipPathUnits="userSpaceOnUse"
       id="clipPath200">
      <path
         d="m 241.709,372.045 h 62.505 V 230.894 h -62.505 z"
         id="path198" />
    </clipPath>
    <clipPath
       clipPathUnits="userSpaceOnUse"
       id="clipPath224">
      <path
         d="M 205.976,362.699 H 416.174 V 244.733 H 205.976 Z"
         id="path222" />
    </clipPath>
    <clipPath
       clipPathUnits="userSpaceOnUse"
       id="clipPath328">
      <path
         d="m 207.833,362.558 h 79.54 V 244.733 h -79.54 z"
         id="path326" />
    </clipPath>
    <clipPath
       clipPathUnits="userSpaceOnUse"
       id="clipPath348">
      <path
         d="M 0,500 H 500 V 0 H 0 Z"
         id="path346" />
    </clipPath>
    <clipPath
       clipPathUnits="userSpaceOnUse"
       id="clipPath368">
      <path
         d="M 81.7733,396.018 H 177.42 V 209.67 H 81.7733 Z"
         id="path366" />
    </clipPath>
    <clipPath
       clipPathUnits="userSpaceOnUse"
       id="clipPath384">
      <path
         d="M 99.1043,396.018 H 160.62 V 209.67 H 99.1043 Z"
         id="path382" />
    </clipPath>
    <clipPath
       clipPathUnits="userSpaceOnUse"
       id="clipPath480">
      <path
         d="M 0,500 H 500 V 0 H 0 Z"
         id="path478" />
    </clipPath>
    <clipPath
       clipPathUnits="userSpaceOnUse"
       id="clipPath532">
      <path
         d="m 308.28,124.379 h 13.959 V 108.744 H 308.28 Z"
         id="path530" />
    </clipPath>
    <clipPath
       clipPathUnits="userSpaceOnUse"
       id="clipPath552">
      <path
         d="m 293.58,116.561 h 13.959 V 100.926 H 293.58 Z"
         id="path550" />
    </clipPath>
    <clipPath
       clipPathUnits="userSpaceOnUse"
       id="clipPath572">
      <path
         d="m 286.319,93.3276 h 42.38 v -28.09 h -42.38 z"
         id="path570" />
    </clipPath>
    <clipPath
       clipPathUnits="userSpaceOnUse"
       id="clipPath600">
      <path
         d="M 0,500 H 500 V 0 H 0 Z"
         id="path598" />
    </clipPath>
    <clipPath
       clipPathUnits="userSpaceOnUse"
       id="clipPath660">
      <path
         d="m 186.243,315.462 h 5.978 v -15.731 h -5.978 z"
         id="path658" />
    </clipPath>
    <clipPath
       clipPathUnits="userSpaceOnUse"
       id="clipPath680">
      <path
         d="m 221.827,317.493 h 7.477 v -23.829 h -7.477 z"
         id="path678" />
    </clipPath>
    <clipPath
       clipPathUnits="userSpaceOnUse"
       id="clipPath728">
      <path
         d="m 197.335,254.335 h 8.72 v -41.472 h -8.72 z"
         id="path726" />
    </clipPath>
    <clipPath
       clipPathUnits="userSpaceOnUse"
       id="clipPath776">
      <path
         d="m 159.969,341.747 h 2.588 v -19.506 h -2.588 z"
         id="path774" />
    </clipPath>
    <clipPath
       clipPathUnits="userSpaceOnUse"
       id="clipPath796">
      <path
         d="m 160.14,341.747 h 10.031 V 322.241 H 160.14 Z"
         id="path794" />
    </clipPath>
    <clipPath
       clipPathUnits="userSpaceOnUse"
       id="clipPath816">
      <path
         d="m 162.339,341.25 h 6.561 v -18.271 h -6.561 z"
         id="path814" />
    </clipPath>
  </defs>
  <sodipodi:namedview
     id="namedview4"
     pagecolor="#ffffff"
     bordercolor="#000000"
     borderopacity="0.25"
     inkscape:showpageshadow="2"
     inkscape:pageopacity="0.0"
     inkscape:pagecheckerboard="0"
     inkscape:deskcolor="#d1d1d1" />
  <g
     id="g8"
     inkscape:groupmode="layer"
     inkscape:label="illustration1"
     transform="matrix(1.3333333,0,0,-1.3333333,0,666.66667)">
    <g
       id="g10">
      <g
         id="g12"
         clip-path="url(#clipPath16)">
        <g
           id="g18"
           transform="translate(250,80.0537)">
          <path
             d="m 0,0 c 107.082,0 193.89,-5.068 193.89,-11.32 0,-6.252 -86.808,-11.321 -193.89,-11.321 -107.083,0 -193.89,5.069 -193.89,11.321 C -193.89,-5.068 -107.083,0 0,0"
             style="fill:#f5f5f5;fill-opacity:1;fill-rule:nonzero;stroke:none"
             id="path20" />
        </g>
        <g
           id="g22"
           transform="translate(45.3047,441.0698)">
          <path
             d="m 0,0 c -3.012,-0.006 -5.449,-2.449 -5.449,-5.46 v -271.43 c 0,-3.012 2.437,-5.454 5.449,-5.46 h 193.09 c 3.014,0.006 5.455,2.446 5.461,5.46 V -5.46 c -0.006,3.013 -2.447,5.454 -5.461,5.46 z M 193.09,-282.6 H 0 c -3.149,0.006 -5.699,2.56 -5.699,5.71 V -5.46 C -5.672,-2.33 -3.13,0.194 0,0.2 h 193.09 c 3.154,0 5.711,-2.556 5.711,-5.71 v -271.38 c 0,-3.153 -2.557,-5.71 -5.711,-5.71"
             style="fill:#e7e7e7;fill-opacity:1;fill-rule:nonzero;stroke:none"
             id="path24" />
        </g>
        <g
           id="g26"
           transform="translate(261.6055,441.0698)">
          <path
             d="m 0,0 c -3.014,-0.006 -5.455,-2.447 -5.461,-5.46 v -271.43 c 0.006,-3.014 2.447,-5.454 5.461,-5.46 h 193.1 c 3.012,0.006 5.454,2.446 5.46,5.46 V -5.46 c -0.006,3.013 -2.448,5.454 -5.46,5.46 z M 193.1,-282.6 H 0 c -3.151,0.006 -5.705,2.558 -5.711,5.71 V -5.46 C -5.678,-2.329 -3.133,0.194 0,0.2 h 193.1 c 3.126,-0.011 5.663,-2.534 5.689,-5.66 v -271.43 c 0,-3.146 -2.544,-5.699 -5.689,-5.71"
             style="fill:#e7e7e7;fill-opacity:1;fill-rule:nonzero;stroke:none"
             id="path28" />
        </g>
        <path
           d="m 44.73,107.79 h 41.21 v -0.25 H 44.73 Z"
           style="fill:#e1e1e1;fill-opacity:1;fill-rule:nonzero;stroke:none"
           id="path30" />
        <path
           d="m 128.61,109.79 h 41.33 v -0.25 h -41.33 z"
           style="fill:#e1e1e1;fill-opacity:1;fill-rule:nonzero;stroke:none"
           id="path32" />
        <path
           d="m 213.72,109.79 h 10 v -0.25 h -10 z"
           style="fill:#e1e1e1;fill-opacity:1;fill-rule:nonzero;stroke:none"
           id="path34" />
        <path
           d="m 77.52,101.25 h 46.25 V 101 H 77.52 Z"
           style="fill:#e1e1e1;fill-opacity:1;fill-rule:nonzero;stroke:none"
           id="path36" />
        <path
           d="m 262.14,107.92 h 21.601 v -0.25 H 262.14 Z"
           style="fill:#e1e1e1;fill-opacity:1;fill-rule:nonzero;stroke:none"
           id="path38" />
        <path
           d="m 292.64,107.92 h 27.931 v -0.25 H 292.64 Z"
           style="fill:#e1e1e1;fill-opacity:1;fill-rule:nonzero;stroke:none"
           id="path40" />
        <path
           d="m 392.83,103.69 h 62.439 v -0.25 H 392.83 Z"
           style="fill:#e1e1e1;fill-opacity:1;fill-rule:nonzero;stroke:none"
           id="path42" />
        <path
           d="M 500,117.352 H 0 v 0.25 h 500 z"
           style="fill:#ececec;fill-opacity:1;fill-rule:nonzero;stroke:none"
           id="path44" />
        <g
           id="g46">
          <g
             id="g48" />
          <g
             id="g60">
            <g
               clip-path="url(#clipPath52)"
               opacity="0.800003"
               id="g58">
              <g
                 transform="translate(334.835,420.5195)"
                 id="g56">
                <path
                   d="m 0,0 -2.493,-34.274 c -0.083,-1.194 -0.599,-2.278 -1.393,-3.091 -0.915,-0.973 -2.21,-1.583 -3.607,-1.583 h -27.491 c -1.017,0 -1.934,0.322 -2.657,0.881 -1.127,0.838 -1.799,2.226 -1.69,3.793 L -36.839,0 c 0.181,2.582 2.418,4.673 5,4.673 H -4.347 C -1.765,4.673 0.181,2.582 0,0"
                   style="fill:#e1e1e1;fill-opacity:1;fill-rule:nonzero;stroke:none"
                   id="path54" />
              </g>
            </g>
          </g>
        </g>
        <g
           id="g62"
           transform="translate(322.9111,405.0024)">
          <path
             d="m 0,0 c -0.354,-5.056 -4.009,-9.154 -8.165,-9.154 -4.155,0 -7.237,4.098 -6.884,9.154 0.354,5.056 4.009,9.154 8.165,9.154 C -2.729,9.154 0.354,5.056 0,0"
             style="fill:#ffffff;fill-opacity:1;fill-rule:nonzero;stroke:none"
             id="path64" />
        </g>
        <g
           id="g66"
           transform="translate(326.377,383.9341)">
          <path
             d="m 0,0 h -25.159 c -1.595,0 -2.699,0.765 -2.739,1.839 -0.059,1.555 8.1,8.304 15.84,7.719 0.029,-0.002 0.056,0 0.084,0 h 0.093 C -7.139,9.538 -2.674,7.533 1.078,4.567 4.812,1.616 1.278,0 0,0"
             style="fill:#ffffff;fill-opacity:1;fill-rule:nonzero;stroke:none"
             id="path68" />
        </g>
        <g
           id="g70"
           transform="translate(191.8457,397.0869)">
          <path
             d="m 0,0 c -2.508,-0.031 -4.38,-2.099 -4.173,-4.609 0.207,-2.51 2.415,-4.527 4.923,-4.495 2.508,0.031 4.381,2.099 4.174,4.608 C 4.717,-1.985 2.508,0.031 0,0 M 1.176,-14.267 C -4.176,-14.333 -8.89,-10.03 -9.331,-4.673 -9.772,0.684 -5.777,5.096 -0.425,5.163 4.928,5.229 9.641,0.926 10.082,-4.431 10.523,-9.788 6.528,-14.2 1.176,-14.267"
             style="fill:#e1e1e1;fill-opacity:1;fill-rule:nonzero;stroke:none"
             id="path72" />
        </g>
        <g
           id="g74"
           transform="translate(193.502,397.8359)">
          <path
             d="m 0,0 -3.685,-0.046 -1.954,23.717 3.685,0.046 z"
             style="fill:#e1e1e1;fill-opacity:1;fill-rule:nonzero;stroke:none"
             id="path76" />
        </g>
        <g
           id="g78"
           transform="translate(195.0391,420.4888)">
          <path
             d="m 0,0 -6.917,-0.086 -0.305,3.688 6.917,0.086 z"
             style="fill:#e1e1e1;fill-opacity:1;fill-rule:nonzero;stroke:none"
             id="path80" />
        </g>
        <g
           id="g82"
           transform="translate(195.4346,415.75)">
          <path
             d="m 0,0 -6.504,-0.081 -0.304,3.687 6.504,0.082 z"
             style="fill:#e1e1e1;fill-opacity:1;fill-rule:nonzero;stroke:none"
             id="path84" />
        </g>
        <g
           id="g86"
           transform="translate(195.9961,409.0659)">
          <path
             d="M 0,0 -5.677,-0.071 -5.98,3.617 -0.304,3.688 Z"
             style="fill:#e1e1e1;fill-opacity:1;fill-rule:nonzero;stroke:none"
             id="path88" />
        </g>
        <g
           id="g90"
           transform="translate(79.3086,181.2314)">
          <path
             d="m 0,0 c 0.021,-0.3 0.062,-0.6 0.112,-0.89 0.335,-1.93 1.337,-3.67 2.728,-4.97 1.604,-1.5 3.74,-2.43 6.03,-2.43 h 84.49 c 4.28,0 7.574,3.24 7.722,7.4 0.01,0.29 0.009,0.59 -0.012,0.89 -0.159,2.28 -1.235,4.36 -2.839,5.85 -1.605,1.5 -3.74,2.43 -6.03,2.43 H 7.711 C 3.131,8.28 -0.319,4.57 0,0"
             style="fill:#f0f0f0;fill-opacity:1;fill-rule:nonzero;stroke:none"
             id="path92" />
        </g>
        <g
           id="g94"
           transform="translate(180.3877,180.3428)">
          <path
             d="M 0,0 C -0.005,-0.27 -0.029,-0.54 -0.074,-0.8 -0.296,1.36 -1.352,3.32 -2.887,4.74 -4.49,6.24 -6.624,7.17 -8.914,7.17 L -98.767,7.03 c 1.374,1.33 3.268,2.14 5.398,2.14 h 84.49 c 2.29,0 4.424,-0.93 6.027,-2.43 C -1.248,5.25 -0.164,3.17 -0.004,0.891 0.011,0.59 0.016,0.29 0,0"
             style="fill:#e1e1e1;fill-opacity:1;fill-rule:nonzero;stroke:none"
             id="path96" />
        </g>
        <g
           id="g98"
           transform="translate(165.9307,185.5156)">
          <path
             d="m 0,0 0.282,-4.041 3.787,1.403 0.86,-1.996 -3.868,-1.275 2.701,-3.391 -1.745,-1.277 -2.63,3.524 -2.102,-3.524 -1.87,1.277 2.191,3.391 -4.01,1.275 0.578,1.984 4.018,-1.352 L -2.087,0 Z"
             style="fill:#ffffff;fill-opacity:1;fill-rule:nonzero;stroke:none"
             id="path100" />
        </g>
        <g
           id="g102"
           transform="translate(142.8232,185.5156)">
          <path
             d="M 0,0 0.282,-4.041 4.07,-2.638 4.93,-4.634 1.061,-5.909 3.763,-9.3 l -1.746,-1.277 -2.63,3.524 -2.102,-3.524 -1.87,1.277 2.191,3.391 -4.01,1.275 0.578,1.984 4.019,-1.352 L -2.087,0 Z"
             style="fill:#ffffff;fill-opacity:1;fill-rule:nonzero;stroke:none"
             id="path104" />
        </g>
        <g
           id="g106"
           transform="translate(119.7158,185.5156)">
          <path
             d="M 0,0 0.283,-4.041 4.07,-2.638 4.93,-4.634 1.062,-5.909 3.763,-9.3 l -1.746,-1.277 -2.63,3.524 -2.101,-3.524 -1.87,1.277 2.191,3.391 -4.011,1.275 0.578,1.984 4.019,-1.352 L -2.087,0 Z"
             style="fill:#ffffff;fill-opacity:1;fill-rule:nonzero;stroke:none"
             id="path108" />
        </g>
        <g
           id="g110"
           transform="translate(96.6084,185.5156)">
          <path
             d="M 0,0 0.283,-4.041 4.07,-2.638 4.93,-4.634 1.062,-5.909 3.763,-9.3 l -1.745,-1.277 -2.63,3.524 -2.102,-3.524 -1.87,1.277 2.191,3.391 -4.01,1.275 0.577,1.984 4.019,-1.352 L -2.086,0 Z"
             style="fill:#ffffff;fill-opacity:1;fill-rule:nonzero;stroke:none"
             id="path112" />
        </g>
        <g
           id="g114"
           transform="translate(152.7344,192.4316)">
          <path
             d="M 0,0 H -3.938 L -3.92,1 H 0.018 Z"
             style="fill:#e1e1e1;fill-opacity:1;fill-rule:nonzero;stroke:none"
             id="path116" />
        </g>
        <g
           id="g118"
           transform="translate(169.6729,192.4316)">
          <path
             d="m 0,0 h -12.854 l 0.018,1 H 0.018 Z"
             style="fill:#e1e1e1;fill-opacity:1;fill-rule:nonzero;stroke:none"
             id="path120" />
        </g>
        <g
           id="g122">
          <g
             id="g124" />
          <g
             id="g136">
            <g
               clip-path="url(#clipPath128)"
               opacity="0.800003"
               id="g134">
              <g
                 transform="translate(269.3848,197.4727)"
                 id="g132">
                <path
                   d="m 0,0 15.934,-24.531 52.558,52.558 c 0.462,0.462 -0.176,1.181 -0.689,0.778 L 17.716,-10.455 8.257,4.797 Z"
                   style="fill:#e1e1e1;fill-opacity:1;fill-rule:nonzero;stroke:none"
                   id="path130" />
              </g>
            </g>
          </g>
        </g>
      </g>
    </g>
    <g
       id="g138">
      <g
         id="g140"
         clip-path="url(#clipPath144)">
        <g
           id="g146"
           transform="translate(284.417,416.2158)">
          <path
             d="m 0,0 c -16.634,-14.948 -25.176,-34.714 -34.57,-53.531 -9.394,-18.816 -20.879,-38.07 -41.01,-49.661 -14.297,-8.233 -36.397,-4.378 -51.833,-11.034 -24.85,-10.715 -34.708,-19.806 -40.706,-42.564 -7.133,-27.064 47.181,-96.098 99.455,-112.212 32.035,-9.875 76.757,-4.932 101.607,14.582 24.851,19.514 20.795,57.655 24.974,85.881 3.008,20.323 1.419,41.434 9.746,60.701 7.381,17.079 22.109,31.522 28.726,48.817 8.8,23.005 1.007,53.625 -21.788,69.674 C 52.211,26.417 18.076,16.244 0,0"
             style="fill:#007cff;fill-opacity:1;fill-rule:nonzero;stroke:none"
             id="path148" />
        </g>
        <g
           id="g150">
          <g
             id="g152" />
          <g
             id="g168">
            <g
               clip-path="url(#clipPath156)"
               opacity="0.899994"
               id="g166">
              <g
                 transform="translate(284.417,416.2158)"
                 id="g160">
                <path
                   d="m 0,0 c -16.634,-14.948 -25.176,-34.714 -34.57,-53.531 -9.394,-18.816 -20.879,-38.07 -41.01,-49.661 -14.297,-8.233 -36.397,-4.378 -51.833,-11.034 -24.85,-10.715 -34.708,-19.806 -40.706,-42.564 -7.133,-27.064 47.181,-96.098 99.455,-112.212 32.035,-9.875 76.757,-4.932 101.607,14.582 24.851,19.514 20.795,57.655 24.974,85.881 3.008,20.323 1.419,41.434 9.746,60.701 7.381,17.079 22.109,31.522 28.726,48.817 8.8,23.005 1.007,53.625 -21.788,69.674 C 52.211,26.417 18.076,16.244 0,0"
                   style="fill:#ffffff;fill-opacity:1;fill-rule:nonzero;stroke:none"
                   id="path158" />
              </g>
              <g
                 transform="translate(284.417,416.2158)"
                 id="g164">
                <path
                   d="m 0,0 c -16.634,-14.948 -25.176,-34.714 -34.57,-53.531 -9.394,-18.816 -20.879,-38.07 -41.01,-49.661 -14.297,-8.233 -36.397,-4.378 -51.833,-11.034 -24.85,-10.715 -34.708,-19.806 -40.706,-42.564 -7.133,-27.064 47.181,-96.098 99.455,-112.212 32.035,-9.875 76.757,-4.932 101.607,14.582 24.851,19.514 20.795,57.655 24.974,85.881 3.008,20.323 1.419,41.434 9.746,60.701 7.381,17.079 22.109,31.522 28.726,48.817 8.8,23.005 1.007,53.625 -21.788,69.674 C 52.211,26.417 18.076,16.244 0,0 Z"
                   style="fill:none;stroke:#ffffff;stroke-width:1;stroke-linecap:butt;stroke-linejoin:miter;stroke-miterlimit:10;stroke-dasharray:none;stroke-opacity:1"
                   id="path162" />
              </g>
            </g>
          </g>
        </g>
      </g>
    </g>
    <g
       id="g170">
      <g
         id="g172"
         clip-path="url(#clipPath176)">
        <g
           id="g178">
          <g
             id="g180" />
          <g
             id="g192">
            <g
               clip-path="url(#clipPath184)"
               opacity="0.100006"
               id="g190">
              <g
                 transform="translate(259.8564,372.0449)"
                 id="g188">
                <path
                   d="m 0,0 -37.739,-141.15 h 12.695 L 12.278,0 Z"
                   style="fill:#ffffff;fill-opacity:1;fill-rule:nonzero;stroke:none"
                   id="path186" />
              </g>
            </g>
          </g>
        </g>
        <g
           id="g194">
          <g
             id="g196" />
          <g
             id="g208">
            <g
               clip-path="url(#clipPath200)"
               opacity="0.100006"
               id="g206">
              <g
                 transform="translate(279.4492,372.0449)"
                 id="g204">
                <path
                   d="m 0,0 -37.74,-141.15 h 25.182 L 24.765,0 Z"
                   style="fill:#ffffff;fill-opacity:1;fill-rule:nonzero;stroke:none"
                   id="path202" />
              </g>
            </g>
          </g>
        </g>
        <g
           id="g210"
           transform="translate(415.3105,244.6855)">
          <path
             d="m 0,0 7.961,113.303 c 0.264,3.744 -2.573,6.776 -6.335,6.773 l -197.734,-0.172 c -3.762,-0.003 -7.025,-3.04 -7.288,-6.784 l -7.961,-113.304 c -0.263,-3.743 2.573,-6.775 6.335,-6.772 L -7.288,-6.784 C -3.526,-6.781 -0.263,-3.743 0,0"
             style="fill:#1a2e35;fill-opacity:1;fill-rule:nonzero;stroke:none"
             id="path212" />
        </g>
        <g
           id="g214"
           transform="translate(412.7725,247.1562)">
          <path
             d="m 0,0 7.962,113.303 c 0.263,3.744 -2.573,6.776 -6.336,6.773 l -197.733,-0.172 c -3.763,-0.003 -7.026,-3.04 -7.289,-6.784 l -7.961,-113.304 c -0.263,-3.743 2.573,-6.775 6.336,-6.772 L -7.287,-6.784 C -3.525,-6.781 -0.263,-3.743 0,0"
             style="fill:#007cff;fill-opacity:1;fill-rule:nonzero;stroke:none"
             id="path216" />
        </g>
        <g
           id="g218">
          <g
             id="g220" />
          <g
             id="g232">
            <g
               clip-path="url(#clipPath224)"
               opacity="0.600006"
               id="g230">
              <g
                 transform="translate(407.5312,245.4834)"
                 id="g228">
                <path
                   d="M 0,0 C -0.283,-0.263 -0.771,-0.577 -1.494,-0.579 L -199.228,-0.75 c -1.33,-0.001 -2.415,1.156 -2.322,2.477 l 7.961,113.303 c 0.05,0.712 0.396,1.174 0.677,1.436 0.282,0.263 0.77,0.577 1.492,0.578 l 197.735,0.171 c 1.33,10e-4 2.414,-1.155 2.322,-2.476 L 0.676,1.436 C 0.626,0.724 0.28,0.263 0,0"
                   style="fill:#ffffff;fill-opacity:1;fill-rule:nonzero;stroke:none"
                   id="path226" />
              </g>
            </g>
          </g>
        </g>
        <g
           id="g234"
           transform="translate(341.7588,307.771)">
          <path
             d="m 0,0 h -69.405 c -1.24,0 -2.349,-1 -2.478,-2.233 l -1.062,-10.15 c -0.129,-1.233 0.771,-2.233 2.01,-2.233 h 69.406 c 1.239,0 2.348,1 2.477,2.233 l 1.063,10.15 C 2.14,-1 1.239,0 0,0"
             style="fill:#ffffff;fill-opacity:1;fill-rule:nonzero;stroke:none"
             id="path236" />
        </g>
        <g
           id="g238"
           transform="translate(280.6084,266.3149)">
          <path
             d="m 0,0 h -10.831 c -1.239,0 -2.349,-1 -2.478,-2.233 l -1.062,-10.149 c -0.129,-1.234 0.771,-2.234 2.011,-2.234 h 10.831 c 1.239,0 2.348,1 2.477,2.234 L 2.011,-2.233 C 2.14,-1 1.239,0 0,0"
             style="fill:#ffffff;fill-opacity:1;fill-rule:nonzero;stroke:none"
             id="path240" />
        </g>
        <g
           id="g242"
           transform="translate(299.3096,266.3149)">
          <path
             d="m 0,0 h -10.831 c -1.239,0 -2.349,-1 -2.478,-2.233 l -1.062,-10.149 c -0.129,-1.234 0.771,-2.234 2.011,-2.234 h 10.831 c 1.239,0 2.348,1 2.477,2.234 L 2.01,-2.233 C 2.14,-1 1.239,0 0,0"
             style="fill:#ffffff;fill-opacity:1;fill-rule:nonzero;stroke:none"
             id="path244" />
        </g>
        <g
           id="g246"
           transform="translate(318.0107,266.3149)">
          <path
             d="m 0,0 h -10.831 c -1.24,0 -2.349,-1 -2.479,-2.233 l -1.061,-10.149 c -0.129,-1.234 0.77,-2.234 2.01,-2.234 H -1.53 c 1.239,0 2.348,1 2.478,2.234 L 2.01,-2.233 C 2.139,-1 1.239,0 0,0"
             style="fill:#ffffff;fill-opacity:1;fill-rule:nonzero;stroke:none"
             id="path248" />
        </g>
        <g
           id="g250"
           transform="translate(336.7109,266.3149)">
          <path
             d="m 0,0 h -10.831 c -1.239,0 -2.349,-1 -2.478,-2.233 l -1.061,-10.149 c -0.13,-1.234 0.77,-2.234 2.01,-2.234 h 10.831 c 1.239,0 2.348,1 2.477,2.234 L 2.011,-2.233 C 2.14,-1 1.239,0 0,0"
             style="fill:#ffffff;fill-opacity:1;fill-rule:nonzero;stroke:none"
             id="path252" />
        </g>
        <g
           id="g254"
           transform="translate(281.0586,273.229)">
          <path
             d="m 0,0 h 43.416 c 2.111,0 4,1.703 4.22,3.803 l 0.521,4.983 c 0.22,2.101 -1.312,3.803 -3.424,3.803 H 1.317 c -2.11,0 -4,-1.702 -4.219,-3.803 L -3.424,3.803 C -3.644,1.703 -2.11,0 0,0 Z"
             style="fill:none;stroke:#007cff;stroke-width:1;stroke-linecap:round;stroke-linejoin:round;stroke-miterlimit:10;stroke-dasharray:none;stroke-opacity:1"
             id="path256" />
        </g>
        <g
           id="g258"
           transform="translate(344.2598,328.9053)">
          <path
             d="m 0,0 h -69.405 c -1.24,0 -2.349,-1 -2.478,-2.233 l -1.062,-10.149 c -0.129,-1.234 0.771,-2.233 2.01,-2.233 h 69.406 c 1.239,0 2.348,0.999 2.477,2.233 L 2.011,-2.233 C 2.14,-1 1.239,0 0,0"
             style="fill:#ffffff;fill-opacity:1;fill-rule:nonzero;stroke:none"
             id="path260" />
        </g>
        <g
           id="g262"
           transform="translate(280.793,300.4629)">
          <path
             d="m 0,0 c 0.143,1.365 -0.854,2.472 -2.226,2.472 -1.372,0 -2.599,-1.107 -2.743,-2.472 -0.142,-1.365 0.854,-2.472 2.226,-2.472 1.372,0 2.6,1.107 2.743,2.472"
             style="fill:#1a2e35;fill-opacity:1;fill-rule:nonzero;stroke:none"
             id="path264" />
        </g>
        <g
           id="g266"
           transform="translate(288.4268,300.4629)">
          <path
             d="m 0,0 c 0.143,1.365 -0.854,2.472 -2.226,2.472 -1.372,0 -2.6,-1.107 -2.743,-2.472 -0.142,-1.365 0.854,-2.472 2.226,-2.472 1.372,0 2.599,1.107 2.743,2.472"
             style="fill:#1a2e35;fill-opacity:1;fill-rule:nonzero;stroke:none"
             id="path268" />
        </g>
        <g
           id="g270"
           transform="translate(296.0605,300.4629)">
          <path
             d="m 0,0 c 0.143,1.365 -0.854,2.472 -2.226,2.472 -1.372,0 -2.6,-1.107 -2.743,-2.472 -0.143,-1.365 0.854,-2.472 2.226,-2.472 1.372,0 2.599,1.107 2.743,2.472"
             style="fill:#1a2e35;fill-opacity:1;fill-rule:nonzero;stroke:none"
             id="path272" />
        </g>
        <g
           id="g274"
           transform="translate(303.6934,300.4629)">
          <path
             d="m 0,0 c 0.144,1.365 -0.854,2.472 -2.226,2.472 -1.372,0 -2.599,-1.107 -2.743,-2.472 -0.142,-1.365 0.855,-2.472 2.226,-2.472 1.372,0 2.6,1.107 2.743,2.472"
             style="fill:#1a2e35;fill-opacity:1;fill-rule:nonzero;stroke:none"
             id="path276" />
        </g>
        <g
           id="g278"
           transform="translate(311.4766,300.4629)">
          <path
             d="m 0,0 c 0.144,1.365 -0.854,2.472 -2.226,2.472 -1.372,0 -2.599,-1.107 -2.743,-2.472 -0.142,-1.365 0.855,-2.472 2.226,-2.472 1.372,0 2.6,1.107 2.743,2.472"
             style="fill:#1a2e35;fill-opacity:1;fill-rule:nonzero;stroke:none"
             id="path280" />
        </g>
        <g
           id="g282"
           transform="translate(283.2939,321.5977)">
          <path
             d="M 0,0 C 0.144,1.365 -0.854,2.472 -2.226,2.472 -3.598,2.472 -4.825,1.365 -4.968,0 -5.111,-1.365 -4.114,-2.472 -2.742,-2.472 -1.371,-2.472 -0.143,-1.365 0,0"
             style="fill:#1a2e35;fill-opacity:1;fill-rule:nonzero;stroke:none"
             id="path284" />
        </g>
        <g
           id="g286"
           transform="translate(290.9277,321.5977)">
          <path
             d="m 0,0 c 0.143,1.365 -0.854,2.472 -2.226,2.472 -1.372,0 -2.599,-1.107 -2.743,-2.472 -0.142,-1.365 0.854,-2.472 2.226,-2.472 1.372,0 2.6,1.107 2.743,2.472"
             style="fill:#1a2e35;fill-opacity:1;fill-rule:nonzero;stroke:none"
             id="path288" />
        </g>
        <g
           id="g290"
           transform="translate(298.5615,321.5977)">
          <path
             d="m 0,0 c 0.143,1.365 -0.854,2.472 -2.226,2.472 -1.372,0 -2.6,-1.107 -2.743,-2.472 -0.142,-1.365 0.854,-2.472 2.226,-2.472 1.372,0 2.599,1.107 2.743,2.472"
             style="fill:#1a2e35;fill-opacity:1;fill-rule:nonzero;stroke:none"
             id="path292" />
        </g>
        <g
           id="g294"
           transform="translate(306.1943,321.5977)">
          <path
             d="m 0,0 c 0.144,1.365 -0.854,2.472 -2.225,2.472 -1.372,0 -2.6,-1.107 -2.743,-2.472 -0.143,-1.365 0.854,-2.472 2.226,-2.472 1.372,0 2.599,1.107 2.742,2.472"
             style="fill:#1a2e35;fill-opacity:1;fill-rule:nonzero;stroke:none"
             id="path296" />
        </g>
        <g
           id="g298"
           transform="translate(313.8281,321.5977)">
          <path
             d="m 0,0 c 0.144,1.365 -0.854,2.472 -2.226,2.472 -1.372,0 -2.599,-1.107 -2.742,-2.472 -0.143,-1.365 0.853,-2.472 2.225,-2.472 1.372,0 2.6,1.107 2.743,2.472"
             style="fill:#1a2e35;fill-opacity:1;fill-rule:nonzero;stroke:none"
             id="path300" />
        </g>
        <g
           id="g302"
           transform="translate(321.4619,321.5977)">
          <path
             d="m 0,0 c 0.143,1.365 -0.854,2.472 -2.226,2.472 -1.372,0 -2.599,-1.107 -2.743,-2.472 -0.142,-1.365 0.854,-2.472 2.226,-2.472 1.372,0 2.6,1.107 2.743,2.472"
             style="fill:#1a2e35;fill-opacity:1;fill-rule:nonzero;stroke:none"
             id="path304" />
        </g>
        <g
           id="g306"
           transform="translate(314.9775,351.2881)">
          <path
             d="m 0,0 -0.541,-5.125 c -0.049,-0.462 -0.464,-0.837 -0.929,-0.837 -0.464,0 -0.801,0.375 -0.752,0.837 L -1.681,0 c 0.174,1.655 -1.037,3.003 -2.7,3.003 H -6.224 C -7.887,3.003 -9.382,1.655 -9.557,0 l -0.468,-4.761 h -1.682 L -11.238,0 c 0.272,2.579 2.601,4.676 5.191,4.676 h 1.843 C -1.614,4.676 0.272,2.579 0,0"
             style="fill:#007cff;fill-opacity:1;fill-rule:nonzero;stroke:none"
             id="path308" />
        </g>
        <g
           id="g310"
           transform="translate(315.0127,346.3501)">
          <path
             d="m 0,0 -1.055,-9.986 c -0.066,-0.633 -0.633,-1.144 -1.268,-1.144 h -10.035 c -0.635,0 -1.095,0.511 -1.029,1.144 L -12.333,0 c 0.043,0.408 0.297,0.767 0.641,0.969 0.188,0.11 0.404,0.175 0.629,0.175 h 10.035 c 0.217,0 0.414,-0.061 0.575,-0.164 C -0.141,0.779 0.043,0.416 0,0"
             style="fill:#007cff;fill-opacity:1;fill-rule:nonzero;stroke:none"
             id="path312" />
        </g>
        <g
           id="g314"
           transform="translate(393.3086,367.8921)">
          <path
             d="M 0,0 -24.437,-0.146"
             style="fill:none;stroke:#1a2e35;stroke-width:1;stroke-linecap:round;stroke-linejoin:round;stroke-miterlimit:10;stroke-dasharray:none;stroke-opacity:1"
             id="path316" />
        </g>
        <g
           id="g318"
           transform="translate(406.6289,367.9585)">
          <path
             d="M 0,0 -8.637,-0.039"
             style="fill:none;stroke:#1a2e35;stroke-width:1;stroke-linecap:round;stroke-linejoin:round;stroke-miterlimit:10;stroke-dasharray:none;stroke-opacity:1"
             id="path320" />
        </g>
        <g
           id="g322">
          <g
             id="g324" />
          <g
             id="g340">
            <g
               clip-path="url(#clipPath328)"
               opacity="0.300003"
               id="g338">
              <g
                 transform="translate(235.0986,362.5576)"
                 id="g332">
                <path
                   d="M 0,0 H 27.977 L -0.464,-117.824 h -22.515 -0.062 c -2.786,0.014 -4.752,2.68 -4.099,5.387 z"
                   style="fill:#ffffff;fill-opacity:1;fill-rule:nonzero;stroke:none"
                   id="path330" />
              </g>
              <g
                 transform="translate(275.4961,362.5576)"
                 id="g336">
                <path
                   d="M 0,0 H 11.877 L -16.564,-117.824 H -28.441 Z"
                   style="fill:#ffffff;fill-opacity:1;fill-rule:nonzero;stroke:none"
                   id="path334" />
              </g>
            </g>
          </g>
        </g>
      </g>
    </g>
    <g
       id="g342">
      <g
         id="g344"
         clip-path="url(#clipPath348)">
        <g
           id="g350"
           transform="translate(86.6533,399.3374)">
          <path
             d="M 0,0 H 5.677 C -0.037,0 -4.345,-4.632 -3.944,-10.345 L 8.104,-182.642 c 0.399,-5.714 5.354,-10.345 11.067,-10.345 h -5.676 c -5.713,0 -10.668,4.631 -11.067,10.345 L -9.621,-10.345 C -10.021,-4.632 -5.713,0 0,0"
             style="fill:#007cff;fill-opacity:1;fill-rule:nonzero;stroke:none"
             id="path352" />
        </g>
        <g
           id="g354"
           transform="translate(86.6533,399.3374)">
          <path
             d="M 0,0 H 5.677 C -0.037,0 -4.345,-4.632 -3.944,-10.345 L 8.104,-182.642 c 0.399,-5.714 5.354,-10.345 11.067,-10.345 h -5.676 c -5.713,0 -11.468,4.631 -11.868,10.345 L -10.421,-10.345 C -10.82,-4.632 -5.713,0 0,0"
             style="fill:#1a2e35;fill-opacity:1;fill-rule:nonzero;stroke:none"
             id="path356" />
        </g>
        <g
           id="g358"
           transform="translate(101.8418,206.3506)">
          <path
             d="m 0,0 h 69.497 c 5.713,0 10.021,4.631 9.621,10.345 L 67.07,182.642 c -0.399,5.713 -5.354,10.345 -11.068,10.345 h -69.497 c -5.713,0 -10.021,-4.632 -9.621,-10.345 L -11.068,10.345 C -10.669,4.631 -5.714,0 0,0"
             style="fill:#007cff;fill-opacity:1;fill-rule:nonzero;stroke:none"
             id="path360" />
        </g>
        <g
           id="g362">
          <g
             id="g364" />
          <g
             id="g376">
            <g
               clip-path="url(#clipPath368)"
               opacity="0.600006"
               id="g374">
              <g
                 transform="translate(157.6562,396.0181)"
                 id="g372">
                <path
                   d="m 0,0 c 3.967,0 7.42,-3.229 7.697,-7.199 l 12.049,-172.298 c 0.129,-1.847 -0.461,-3.574 -1.659,-4.861 -1.195,-1.283 -2.868,-1.99 -4.709,-1.99 h -69.497 c -3.967,0 -7.42,3.229 -7.698,7.199 L -75.865,-6.852 c -0.13,1.848 0.46,3.574 1.659,4.862 1.195,1.283 2.867,1.99 4.708,1.99 z"
                   style="fill:#ffffff;fill-opacity:1;fill-rule:nonzero;stroke:none"
                   id="path370" />
              </g>
            </g>
          </g>
        </g>
        <g
           id="g378">
          <g
             id="g380" />
          <g
             id="g396">
            <g
               clip-path="url(#clipPath384)"
               opacity="0.300003"
               id="g394">
              <g
                 transform="translate(138.0332,209.6699)"
                 id="g388">
                <path
                   d="M 0,0 H -27.719 L -4.86,186.348 h 22.308 c 2.032,0 3.853,-0.852 5.139,-2.213 z"
                   style="fill:#ffffff;fill-opacity:1;fill-rule:nonzero;stroke:none"
                   id="path386" />
              </g>
              <g
                 transform="translate(105.3398,209.6699)"
                 id="g392">
                <path
                   d="m 0,0 h -6.235 l 22.858,186.348 h 6.235 z"
                   style="fill:#ffffff;fill-opacity:1;fill-rule:nonzero;stroke:none"
                   id="path390" />
              </g>
            </g>
          </g>
        </g>
        <g
           id="g398"
           transform="translate(103.1768,314.5962)">
          <path
             d="M 0,0 H 50.341"
             style="fill:none;stroke:#ffffff;stroke-width:1;stroke-linecap:round;stroke-linejoin:round;stroke-miterlimit:10;stroke-dasharray:none;stroke-opacity:1"
             id="path400" />
        </g>
        <g
           id="g402"
           transform="translate(109.6699,307.1514)">
          <path
             d="M 0,0 H 39.432"
             style="fill:none;stroke:#ffffff;stroke-width:1;stroke-linecap:round;stroke-linejoin:round;stroke-miterlimit:10;stroke-dasharray:none;stroke-opacity:1"
             id="path404" />
        </g>
        <g
           id="g406"
           transform="translate(104.6777,348.9219)">
          <path
             d="m 0,0 0.069,-1.978 h -1.29 L -1.29,0.016 -3.574,3.605 h 1.37 l 1.576,-2.48 1.402,2.48 h 1.267 z"
             style="fill:#007cff;fill-opacity:1;fill-rule:nonzero;stroke:none"
             id="path408" />
        </g>
        <g
           id="g410"
           transform="translate(111.5674,349.7354)">
          <path
             d="m 0,0 c -0.037,1.061 -0.812,1.786 -1.807,1.786 -0.996,0 -1.718,-0.725 -1.681,-1.786 0.037,-1.061 0.81,-1.787 1.806,-1.787 0.995,0 1.719,0.726 1.682,1.787 m -4.795,0 c -0.059,1.659 1.189,2.887 2.949,2.887 1.752,0 3.094,-1.22 3.153,-2.887 0.058,-1.667 -1.198,-2.887 -2.95,-2.887 -1.76,0 -3.093,1.228 -3.152,2.887"
             style="fill:#007cff;fill-opacity:1;fill-rule:nonzero;stroke:none"
             id="path412" />
        </g>
        <g
           id="g414"
           transform="translate(113.8145,349.4004)">
          <path
             d="m 0,0 -0.109,3.126 h 1.29 L 1.288,0.048 c 0.037,-1.061 0.515,-1.5 1.296,-1.5 0.788,0 1.227,0.439 1.189,1.5 L 3.666,3.126 H 4.94 L 5.05,0 C 5.107,-1.643 4.2,-2.552 2.615,-2.552 1.029,-2.552 0.058,-1.643 0,0"
             style="fill:#007cff;fill-opacity:1;fill-rule:nonzero;stroke:none"
             id="path416" />
        </g>
        <g
           id="g418"
           transform="translate(122.4131,351.4736)">
          <path
             d="m 0,0 h -1.053 l 0.069,-1.946 h 1.051 c 0.788,0 1.174,0.367 1.153,0.973 C 1.198,-0.358 0.787,0 0,0 m 1.369,-4.53 -1.13,1.555 H 0.175 -0.948 l 0.054,-1.555 h -1.29 l -0.195,5.583 h 2.413 c 1.49,0 2.448,-0.774 2.492,-2.026 C 2.557,-1.81 2.156,-2.424 1.441,-2.735 L 2.755,-4.53 Z"
             style="fill:#007cff;fill-opacity:1;fill-rule:nonzero;stroke:none"
             id="path420" />
        </g>
        <g
           id="g422"
           transform="translate(127.8955,349.7354)">
          <path
             d="m 0,0 c -0.059,1.683 1.188,2.887 2.925,2.887 0.964,0 1.781,-0.351 2.329,-0.989 L 4.452,1.132 C 4.063,1.563 3.586,1.786 3.028,1.786 1.984,1.786 1.27,1.053 1.307,0 c 0.037,-1.053 0.802,-1.787 1.846,-1.787 0.558,0 1.02,0.224 1.378,0.662 L 5.387,-1.89 C 4.884,-2.536 4.092,-2.887 3.12,-2.887 1.392,-2.887 0.059,-1.683 0,0"
             style="fill:#007cff;fill-opacity:1;fill-rule:nonzero;stroke:none"
             id="path424" />
        </g>
        <g
           id="g426"
           transform="translate(138.4141,349.7354)">
          <path
             d="m 0,0 c -0.037,1.061 -0.812,1.786 -1.807,1.786 -0.996,0 -1.718,-0.725 -1.681,-1.786 0.037,-1.061 0.81,-1.787 1.806,-1.787 0.995,0 1.719,0.726 1.682,1.787 m -4.795,0 c -0.059,1.659 1.189,2.887 2.949,2.887 1.752,0 3.094,-1.22 3.153,-2.887 0.058,-1.667 -1.198,-2.887 -2.95,-2.887 -1.76,0 -3.093,1.228 -3.152,2.887"
             style="fill:#007cff;fill-opacity:1;fill-rule:nonzero;stroke:none"
             id="path428" />
        </g>
        <g
           id="g430"
           transform="translate(143.2266,348.0049)">
          <path
             d="M 0,0 C 1.107,0 1.809,0.662 1.771,1.73 1.734,2.799 0.986,3.461 -0.121,3.461 H -1.3 L -1.179,0 Z m -2.627,4.522 h 2.533 C 1.729,4.522 3.019,3.421 3.078,1.73 3.138,0.04 1.925,-1.061 0.102,-1.061 h -2.534 z"
             style="fill:#007cff;fill-opacity:1;fill-rule:nonzero;stroke:none"
             id="path432" />
        </g>
        <g
           id="g434"
           transform="translate(151.6602,347.981)">
          <path
             d="m 0,0 0.036,-1.037 h -4.317 l -0.196,5.583 h 4.214 l 0.036,-1.037 h -2.931 l 0.042,-1.212 h 2.589 L -0.491,1.292 H -3.08 L -3.035,0 Z"
             style="fill:#007cff;fill-opacity:1;fill-rule:nonzero;stroke:none"
             id="path436" />
        </g>
        <g
           id="g438"
           transform="translate(114.3779,326.1938)">
          <path
             d="m 0,0 0.04,-2.244 h -10.527 l -0.032,1.775 5.578,5.385 c 1.364,1.326 1.594,2.162 1.58,2.957 -0.023,1.306 -0.934,2.061 -2.689,2.061 -1.387,0 -2.541,-0.47 -3.319,-1.49 l -1.882,1.429 c 1.076,1.488 3.04,2.366 5.386,2.366 3.1,0 5.128,-1.571 5.172,-4.1 C -0.669,6.752 -1.034,5.487 -2.981,3.631 L -6.732,0 Z"
             style="fill:#1a2e35;fill-opacity:1;fill-rule:nonzero;stroke:none"
             id="path440" />
        </g>
        <g
           id="g442"
           transform="translate(126.0117,328.2334)">
          <path
             d="m 0,0 c 0.042,-2.407 -1.737,-4.487 -5.573,-4.487 -2.02,0 -4.05,0.612 -5.394,1.652 l 1.107,2.06 c 1.034,-0.856 2.594,-1.408 4.206,-1.408 1.897,0 3.005,0.837 2.981,2.162 -0.022,1.286 -0.975,2.123 -3.138,2.123 h -1.305 l -0.031,1.815 3.174,3.855 h -6.487 l -0.038,2.223 h 9.731 L -0.736,8.221 -4.132,4.1 C -1.433,3.753 -0.038,2.142 0,0"
             style="fill:#1a2e35;fill-opacity:1;fill-rule:nonzero;stroke:none"
             id="path444" />
        </g>
        <g
           id="g446"
           transform="translate(130.6777,334.3325)">
          <path
             d="m 0,0 c 0.021,-1.224 1.055,-1.999 2.728,-1.999 1.693,0 2.72,0.775 2.699,1.999 C 5.404,1.285 4.29,2.02 2.657,2.02 1.025,2.02 -0.022,1.285 0,0 m 5.984,-6.201 c -0.025,1.408 -1.263,2.285 -3.222,2.285 -1.958,0 -3.127,-0.877 -3.102,-2.285 0.026,-1.448 1.224,-2.305 3.182,-2.305 1.959,0 3.168,0.857 3.142,2.305 m 2.674,-0.082 c 0.047,-2.652 -2.23,-4.303 -5.78,-4.303 -3.55,0 -5.842,1.651 -5.889,4.303 -0.027,1.571 0.768,2.734 2.225,3.407 -1.153,0.632 -1.804,1.652 -1.827,2.998 C -2.656,2.57 -0.541,4.1 2.621,4.1 5.804,4.1 7.993,2.57 8.036,0.122 8.06,-1.224 7.425,-2.244 6.273,-2.876 7.774,-3.549 8.631,-4.712 8.658,-6.283"
             style="fill:#1a2e35;fill-opacity:1;fill-rule:nonzero;stroke:none"
             id="path448" />
        </g>
        <g
           id="g450"
           transform="translate(143.9785,334.3325)">
          <path
             d="m 0,0 c 0.021,-1.224 1.055,-1.999 2.728,-1.999 1.693,0 2.72,0.775 2.699,1.999 C 5.404,1.285 4.29,2.02 2.657,2.02 1.025,2.02 -0.022,1.285 0,0 m 5.984,-6.201 c -0.025,1.408 -1.263,2.285 -3.222,2.285 -1.958,0 -3.127,-0.877 -3.102,-2.285 0.026,-1.448 1.224,-2.305 3.182,-2.305 1.959,0 3.168,0.857 3.142,2.305 m 2.674,-0.082 c 0.047,-2.652 -2.23,-4.303 -5.78,-4.303 -3.55,0 -5.842,1.651 -5.889,4.303 -0.027,1.571 0.768,2.734 2.225,3.407 -1.153,0.632 -1.804,1.652 -1.827,2.998 C -2.656,2.57 -0.541,4.1 2.621,4.1 5.804,4.1 7.993,2.57 8.036,0.122 8.06,-1.224 7.425,-2.244 6.273,-2.876 7.774,-3.549 8.631,-4.712 8.658,-6.283"
             style="fill:#1a2e35;fill-opacity:1;fill-rule:nonzero;stroke:none"
             id="path452" />
        </g>
        <g
           id="g454"
           transform="translate(76.7188,374.3638)">
          <path
             d="M 0,0 1.773,-24.171"
             style="fill:none;stroke:#007cff;stroke-width:1;stroke-linecap:round;stroke-linejoin:round;stroke-miterlimit:10;stroke-dasharray:none;stroke-opacity:1"
             id="path456" />
        </g>
        <g
           id="g458"
           transform="translate(75.9111,385.3745)">
          <path
             d="M 0,0 0.468,-6.378"
             style="fill:none;stroke:#007cff;stroke-width:1;stroke-linecap:round;stroke-linejoin:round;stroke-miterlimit:10;stroke-dasharray:none;stroke-opacity:1"
             id="path460" />
        </g>
        <g
           id="g462"
           transform="translate(123.3701,409.4072)">
          <path
             d="M 0,0 V 14.716"
             style="fill:none;stroke:#007cff;stroke-width:1;stroke-linecap:round;stroke-linejoin:round;stroke-miterlimit:10;stroke-dasharray:none;stroke-opacity:1"
             id="path464" />
        </g>
        <g
           id="g466"
           transform="translate(111.7207,406.2939)">
          <path
             d="M 0,0 -7.354,12.736"
             style="fill:none;stroke:#007cff;stroke-width:1;stroke-linecap:round;stroke-linejoin:round;stroke-miterlimit:10;stroke-dasharray:none;stroke-opacity:1"
             id="path468" />
        </g>
        <g
           id="g470"
           transform="translate(142.374,419.0298)">
          <path
             d="M 0,0 -7.354,-12.742"
             style="fill:none;stroke:#007cff;stroke-width:1;stroke-linecap:round;stroke-linejoin:round;stroke-miterlimit:10;stroke-dasharray:none;stroke-opacity:1"
             id="path472" />
        </g>
      </g>
    </g>
    <g
       id="g474">
      <g
         id="g476"
         clip-path="url(#clipPath480)">
        <g
           id="g482"
           transform="translate(313.8916,148.2402)">
          <path
             d="M 0,0 C -5.054,-20.249 -7.105,-41.244 -6.067,-62.089"
             style="fill:none;stroke:#007cff;stroke-width:1;stroke-linecap:butt;stroke-linejoin:miter;stroke-miterlimit:10;stroke-dasharray:none;stroke-opacity:1"
             id="path484" />
        </g>
        <g
           id="g486"
           transform="translate(309.2207,149.1025)">
          <path
             d="m 0,0 c 0.045,-1.867 1.72,-8.468 3.587,-8.423 1.867,0.045 3.22,6.719 3.175,8.586 C 6.716,2.03 5.166,3.508 3.299,3.463 1.432,3.418 -0.045,1.867 0,0"
             style="fill:#007cff;fill-opacity:1;fill-rule:nonzero;stroke:none"
             id="path488" />
        </g>
        <g
           id="g490"
           transform="translate(316.4941,128.1123)">
          <path
             d="M 0,0 C -0.046,1.867 -1.72,8.468 -3.587,8.423 -5.454,8.378 -6.808,1.703 -6.762,-0.164 -6.717,-2.031 -5.166,-3.508 -3.3,-3.463 -1.432,-3.418 0.045,-1.867 0,0"
             style="fill:#007cff;fill-opacity:1;fill-rule:nonzero;stroke:none"
             id="path492" />
        </g>
        <g
           id="g494"
           transform="translate(302.3623,134.9707)">
          <path
             d="M 0,0 C 1.867,0.045 8.468,1.72 8.423,3.587 8.377,5.453 1.703,6.807 -0.164,6.762 -2.031,6.716 -3.508,5.166 -3.463,3.299 -3.418,1.432 -1.867,-0.045 0,0"
             style="fill:#007cff;fill-opacity:1;fill-rule:nonzero;stroke:none"
             id="path496" />
        </g>
        <g
           id="g498"
           transform="translate(323.3525,142.2441)">
          <path
             d="m 0,0 c -1.867,-0.046 -8.468,-1.72 -8.423,-3.587 0.045,-1.867 6.719,-3.22 8.586,-3.175 1.867,0.045 3.345,1.596 3.299,3.463 C 3.417,-1.433 1.866,0.045 0,0"
             style="fill:#007cff;fill-opacity:1;fill-rule:nonzero;stroke:none"
             id="path500" />
        </g>
        <g
           id="g502"
           transform="translate(302.8643,143.457)">
          <path
             d="M 0,0 C 1.353,-1.288 7.204,-4.772 8.492,-3.42 9.781,-2.067 6.019,3.608 4.666,4.896 3.313,6.186 1.173,6.134 -0.115,4.781 -1.403,3.429 -1.352,1.289 0,0"
             style="fill:#007cff;fill-opacity:1;fill-rule:nonzero;stroke:none"
             id="path504" />
        </g>
        <g
           id="g506"
           transform="translate(322.8496,133.7578)">
          <path
             d="m 0,0 c -1.352,1.288 -7.203,4.771 -8.492,3.42 -1.288,-1.353 2.474,-7.028 3.827,-8.317 1.352,-1.289 3.493,-1.237 4.78,0.116 C 1.404,-3.429 1.353,-1.288 0,0"
             style="fill:#007cff;fill-opacity:1;fill-rule:nonzero;stroke:none"
             id="path508" />
        </g>
        <g
           id="g510"
           transform="translate(308.0078,128.6143)">
          <path
             d="M 0,0 C 1.288,1.353 4.771,7.204 3.419,8.492 2.067,9.78 -3.608,6.019 -4.897,4.666 -6.186,3.313 -6.134,1.173 -4.781,-0.115 -3.429,-1.403 -1.289,-1.352 0,0"
             style="fill:#007cff;fill-opacity:1;fill-rule:nonzero;stroke:none"
             id="path512" />
        </g>
        <g
           id="g514"
           transform="translate(317.707,148.5996)">
          <path
             d="m 0,0 c -1.288,-1.352 -4.772,-7.203 -3.42,-8.492 1.353,-1.288 7.028,2.474 8.316,3.827 1.29,1.352 1.237,3.493 -0.115,4.781 C 3.429,1.404 1.288,1.353 0,0"
             style="fill:#007cff;fill-opacity:1;fill-rule:nonzero;stroke:none"
             id="path516" />
        </g>
        <g
           id="g518"
           transform="translate(308.8535,138.5107)">
          <path
             d="m 0,0 c 0.054,-2.212 1.89,-3.961 4.101,-3.907 2.211,0.053 3.961,1.889 3.907,4.1 C 7.954,2.405 6.118,4.154 3.907,4.101 1.695,4.047 -0.054,2.211 0,0"
             style="fill:#ffffff;fill-opacity:1;fill-rule:nonzero;stroke:none"
             id="path520" />
        </g>
        <g
           id="g522"
           transform="translate(308.2803,108.7451)">
          <path
             d="m 0,0 c 0,0 0.69,10.214 6.296,11.829 5.605,1.615 7.663,3.805 7.663,3.805 0,0 -0.567,-15.83 -13.959,-15.634"
             style="fill:#007cff;fill-opacity:1;fill-rule:nonzero;stroke:none"
             id="path524" />
        </g>
        <g
           id="g526">
          <g
             id="g528" />
          <g
             id="g540">
            <g
               clip-path="url(#clipPath532)"
               opacity="0.5"
               id="g538">
              <g
                 transform="translate(308.2803,108.7451)"
                 id="g536">
                <path
                   d="m 0,0 c 0,0 0.69,10.214 6.296,11.829 5.605,1.615 7.663,3.805 7.663,3.805 0,0 -0.567,-15.83 -13.959,-15.634"
                   style="fill:#ffffff;fill-opacity:1;fill-rule:nonzero;stroke:none"
                   id="path534" />
              </g>
            </g>
          </g>
        </g>
        <g
           id="g542"
           transform="translate(307.5391,100.9277)">
          <path
             d="m 0,0 c 0,0 -0.69,10.213 -6.296,11.829 -5.604,1.614 -7.663,3.805 -7.663,3.805 0,0 0.568,-15.83 13.959,-15.634"
             style="fill:#007cff;fill-opacity:1;fill-rule:nonzero;stroke:none"
             id="path544" />
        </g>
        <g
           id="g546">
          <g
             id="g548" />
          <g
             id="g560">
            <g
               clip-path="url(#clipPath552)"
               opacity="0.5"
               id="g558">
              <g
                 transform="translate(307.5391,100.9277)"
                 id="g556">
                <path
                   d="m 0,0 c 0,0 -0.69,10.213 -6.296,11.829 -5.604,1.614 -7.663,3.805 -7.663,3.805 0,0 0.568,-15.83 13.959,-15.634"
                   style="fill:#ffffff;fill-opacity:1;fill-rule:nonzero;stroke:none"
                   id="path554" />
              </g>
            </g>
          </g>
        </g>
        <g
           id="g562"
           transform="translate(328.6992,79.6572)">
          <path
             d="m 0,0 c 0,-7.97 -9.49,-14.42 -21.19,-14.42 -11.71,0 -21.19,6.45 -21.19,14.42 0,4.03 2.43,7.681 6.36,10.29 2.27,1.521 5.04,2.69 8.12,3.381 h 13.42 C -11.31,12.95 -8.47,11.74 -6.17,10.16 -2.35,7.551 0,3.971 0,0"
             style="fill:#007cff;fill-opacity:1;fill-rule:nonzero;stroke:none"
             id="path564" />
        </g>
        <g
           id="g566">
          <g
             id="g568" />
          <g
             id="g580">
            <g
               clip-path="url(#clipPath572)"
               opacity="0.800003"
               id="g578">
              <g
                 transform="translate(314.2187,93.3271)"
                 id="g576">
                <path
                   d="m 0,0 c 3.171,-0.72 6.011,-1.93 8.311,-3.51 3.82,-2.609 6.169,-6.189 6.169,-10.16 0,-7.97 -9.49,-14.42 -21.19,-14.42 -11.71,0 -21.189,6.45 -21.189,14.42 0,4.03 2.429,7.681 6.359,10.29 2.27,1.521 5.04,2.691 8.12,3.38 z"
                   style="fill:#ffffff;fill-opacity:1;fill-rule:nonzero;stroke:none"
                   id="path574" />
              </g>
            </g>
          </g>
        </g>
        <g
           id="g582"
           transform="translate(307.5693,92.0293)">
          <path
             d="M 0,0 V -7.128"
             style="fill:none;stroke:#007cff;stroke-width:1;stroke-linecap:butt;stroke-linejoin:miter;stroke-miterlimit:10;stroke-dasharray:none;stroke-opacity:1"
             id="path584" />
        </g>
        <g
           id="g586"
           transform="translate(323.4619,93.5508)">
          <path
             d="M 0,0 -1.125,-3.505 -1.143,-3.54 h -29.629 l -0.063,0.186 -1.07,3.354 z"
             style="fill:#007cff;fill-opacity:1;fill-rule:nonzero;stroke:none"
             id="path588" />
        </g>
        <g
           id="g590"
           transform="translate(326.1963,76.7627)">
          <path
             d="m 0,0 c -2.043,-2.952 -4.951,-5.307 -8.139,-6.998 -5.09,-2.701 -26.501,-3.398 -28.944,8.75 -0.034,0.169 -0.091,0.333 -0.122,0.504 -0.584,3.178 2.244,6.004 5.46,5.682 1.997,-0.2 4.083,0.038 6.07,0.34 7.659,1.167 15.557,0.74 23.048,-1.235 C 0.434,6.235 1.801,2.603 0,0"
             style="fill:#1a2e35;fill-opacity:1;fill-rule:nonzero;stroke:none"
             id="path592" />
        </g>
      </g>
    </g>
    <g
       id="g594">
      <g
         id="g596"
         clip-path="url(#clipPath600)">
        <g
           id="g602"
           transform="translate(172.7861,82.0869)">
          <path
             d="M 0,0 C 0.051,-0.053 0.104,-0.136 0.06,-0.305 -0.021,-0.619 -0.178,-0.813 -0.419,-0.9 -0.986,-1.104 -2.071,-0.721 -3.372,0.131 -2.115,0.323 -0.405,0.429 0,0 m -0.276,-1.286 c 0.375,0.135 0.624,0.431 0.74,0.88 C 0.552,-0.067 0.425,0.155 0.303,0.282 -0.468,1.087 -3.596,0.516 -3.949,0.448 -4.031,0.433 -4.096,0.37 -4.113,0.29 -4.132,0.211 -4.099,0.128 -4.031,0.08 c 0.519,-0.366 1.277,-0.851 2.03,-1.156 0.626,-0.253 1.248,-0.38 1.725,-0.21"
             style="fill:#007cff;fill-opacity:1;fill-rule:nonzero;stroke:none"
             id="path604" />
        </g>
        <g
           id="g606"
           transform="translate(171.623,84.791)">
          <path
             d="m 0,0 c 0.234,-0.13 0.242,-0.258 0.223,-0.355 -0.119,-0.596 -1.583,-1.521 -2.612,-1.817 0.366,0.75 1.087,1.972 1.808,2.218 0.175,0.06 0.337,0.058 0.496,-0.006 C -0.057,0.028 -0.028,0.015 0,0 m -2.721,-2.66 c 0.957,0.118 3.159,1.249 3.353,2.225 0.037,0.188 0.031,0.539 -0.428,0.792 -0.29,0.162 -0.601,0.187 -0.923,0.077 -1.206,-0.413 -2.179,-2.715 -2.22,-2.813 -0.029,-0.067 -0.018,-0.144 0.027,-0.203 0.022,-0.029 0.053,-0.052 0.086,-0.064 0.033,-0.014 0.069,-0.019 0.105,-0.014"
             style="fill:#007cff;fill-opacity:1;fill-rule:nonzero;stroke:none"
             id="path608" />
        </g>
        <g
           id="g610"
           transform="translate(159.4092,86.1602)">
          <path
             d="M 0,0 8.141,-3.291 15.246,15.52 7.105,18.81 Z"
             style="fill:#ffb670;fill-opacity:1;fill-rule:nonzero;stroke:none"
             id="path612" />
        </g>
        <g
           id="g614"
           transform="translate(168.582,83.5361)">
          <path
             d="m 0,0 -9.146,3.697 c -0.333,0.134 -0.698,0.016 -0.877,-0.285 l -4.015,-6.699 c -0.416,-0.695 -0.063,-1.655 0.711,-1.952 3.211,-1.235 4.824,-1.672 8.847,-3.298 2.473,-1 5.983,-2.714 9.4,-4.095 3.342,-1.35 4.987,1.87 3.689,2.746 C 2.794,-5.957 2.563,-3.688 1.155,-1.042 0.901,-0.565 0.487,-0.196 0,0"
             style="fill:#1a2e35;fill-opacity:1;fill-rule:nonzero;stroke:none"
             id="path616" />
        </g>
        <g
           id="g618"
           transform="translate(174.5508,92.4512)">
          <path
             d="m 0,0 -14.14,5.715 1.296,5.181 15.17,-5.549 z"
             style="fill:#007cff;fill-opacity:1;fill-rule:nonzero;stroke:none"
             id="path620" />
        </g>
        <g
           id="g622"
           transform="translate(188.707,310.1655)">
          <path
             d="m 0,0 c -2.868,-8.303 -11.361,-27.862 -17.904,-19.716 -1.167,1.455 -2.163,3.029 -2.858,4.76 -2.778,6.854 -3.461,17.955 -3.813,20.38 l -2.229,7.61 c -0.039,0.131 -0.058,0.267 -0.06,0.404 l -0.036,4.345 c 0,1.761 1.42,2.808 3.341,2.647 0,0 3.1,0.362 3.1,-1.49 l 0.604,-6.522 h -0.02 c 0.312,-2.274 -0.594,-5.434 -0.061,-7.517 1.993,-7.83 4.749,-8.182 6.48,-16.263 2.406,5.827 6.724,15.921 6.724,15.921 C -3.824,4.197 0.946,2.737 0,0"
             style="fill:#ffb670;fill-opacity:1;fill-rule:nonzero;stroke:none"
             id="path624" />
        </g>
        <g
           id="g626"
           transform="translate(178.4512,287.4658)">
          <path
             d="m 0,0 c -1.953,-3.014 -6.35,-3.188 -8.469,-0.289 -1.296,1.772 -2.321,3.724 -2.767,5.195 -2.597,8.525 -4.207,13.808 -4.428,22.715 1.811,1.882 4.76,2.587 7.226,1.711 L -4.182,14.9 c 0,0 8.676,21.55 12.178,22.325 4.137,0.905 5.858,-2.781 7.599,-7.32 C 16.85,26.64 5.651,8.717 0,0"
             style="fill:#007cff;fill-opacity:1;fill-rule:nonzero;stroke:none"
             id="path628" />
        </g>
        <g
           id="g630"
           transform="translate(213.4814,346.2549)">
          <path
             d="m 0,0 c -0.981,-5.002 -3.184,-15.914 0.315,-19.252 0,0 -1.367,-5.074 -10.662,-5.074 -10.219,0 -4.883,5.074 -4.883,5.074 5.578,1.332 5.433,5.47 4.461,9.356 z"
             style="fill:#ffb670;fill-opacity:1;fill-rule:nonzero;stroke:none"
             id="path632" />
        </g>
        <g
           id="g634"
           transform="translate(197.8486,358.0522)">
          <path
             d="M 0,0 C 0.06,0 0.121,0.014 0.178,0.042 0.375,0.141 0.455,0.381 0.356,0.579 -0.633,2.553 -2.462,2.783 -2.54,2.792 -2.758,2.818 -2.957,2.659 -2.981,2.439 -3.007,2.221 -2.85,2.024 -2.632,1.998 -2.571,1.991 -1.147,1.797 -0.357,0.221 -0.287,0.081 -0.146,0 0,0"
             style="fill:#1a2e35;fill-opacity:1;fill-rule:nonzero;stroke:none"
             id="path636" />
        </g>
        <g
           id="g638"
           transform="translate(194.8008,353.6807)">
          <path
             d="m 0,0 c 0,0 -1.505,-2.764 -2.938,-4.009 0.788,-0.942 2.349,-0.749 2.349,-0.749 z"
             style="fill:#ff8a35;fill-opacity:1;fill-rule:nonzero;stroke:none"
             id="path640" />
        </g>
        <g
           id="g642"
           transform="translate(195.6035,355.144)">
          <path
             d="m 0,0 c 0.145,-0.665 -0.091,-1.28 -0.525,-1.374 -0.435,-0.094 -0.904,0.368 -1.048,1.033 -0.144,0.664 0.092,1.279 0.525,1.373 C -0.613,1.126 -0.144,0.665 0,0"
             style="fill:#1a2e35;fill-opacity:1;fill-rule:nonzero;stroke:none"
             id="path644" />
        </g>
        <g
           id="g646"
           transform="translate(194.7559,356.1812)">
          <path
             d="m 0,0 -1.695,0.114 c 0,0 1.089,-1.069 1.695,-0.114"
             style="fill:#1a2e35;fill-opacity:1;fill-rule:nonzero;stroke:none"
             id="path648" />
        </g>
        <g
           id="g650"
           transform="translate(159.9785,330.9478)">
          <path
             d="M 0,0 V -0.02 C 0,-0.01 -0.01,-0.01 -0.01,0 Z"
             style="fill:#ffb670;fill-opacity:1;fill-rule:nonzero;stroke:none"
             id="path652" />
        </g>
        <g
           id="g654">
          <g
             id="g656" />
          <g
             id="g668">
            <g
               clip-path="url(#clipPath660)"
               opacity="0.199997"
               id="g666">
              <g
                 transform="translate(188.3467,314.4341)"
                 id="g664">
                <path
                   d="M 0,0 C 1.771,1.621 2.969,1.137 3.784,-0.151 4.589,-3.895 -0.182,-11.735 -2.104,-14.703 Z"
                   style="fill:#000000;fill-opacity:1;fill-rule:nonzero;stroke:none"
                   id="path662" />
              </g>
            </g>
          </g>
        </g>
        <g
           id="g670"
           transform="translate(229.3047,309.5034)">
          <path
             d="m 0,0 c -0.23,-4.12 -0.62,-9.31 -1.25,-15.84 -0.66,-6.89 -1.601,-15.26 -2.891,-25.43 -13.589,0 -27.819,0.21 -34.429,0.21 0.552,13.508 0.757,27.195 -5.304,54.081 -0.318,1.413 0.607,2.811 2.033,3.065 2.744,0.489 7.293,1.188 11.921,1.414 5.76,0.28 10.48,0.46 15.55,0 6.67,-0.61 14.25,-2.16 14.25,-2.16 0,0 0.84,-2.48 0.12,-15.34"
             style="fill:#007cff;fill-opacity:1;fill-rule:nonzero;stroke:none"
             id="path672" />
        </g>
        <g
           id="g674">
          <g
             id="g676" />
          <g
             id="g688">
            <g
               clip-path="url(#clipPath680)"
               opacity="0.199997"
               id="g686">
              <g
                 transform="translate(229.3047,309.5034)"
                 id="g684">
                <path
                   d="M 0,0 C -0.23,-4.12 -0.62,-9.31 -1.25,-15.84 -4.91,-11.6 -8.37,3 -7.271,7.99 -4.57,6.15 -2.07,3.32 -0.16,0.79 -0.101,0.55 -0.04,0.29 0,0"
                   style="fill:#000000;fill-opacity:1;fill-rule:nonzero;stroke:none"
                   id="path682" />
              </g>
            </g>
          </g>
        </g>
        <g
           id="g690"
           transform="translate(264.5937,291.2002)">
          <path
             d="m 0,0 6.964,3.916 1.301,-7.13 c 0,0 -5.902,-2.262 -9.027,-0.677 z"
             style="fill:#ffb670;fill-opacity:1;fill-rule:nonzero;stroke:none"
             id="path692" />
        </g>
        <g
           id="g694"
           transform="translate(276.2227,294.3057)">
          <path
             d="M 0,0 0.483,-2.327 C 0.636,-3.059 0.332,-3.81 -0.287,-4.23 l -3.077,-2.09 -1.301,7.131 2.408,0.604 C -1.239,1.67 -0.214,1.027 0,0"
             style="fill:#ffb670;fill-opacity:1;fill-rule:nonzero;stroke:none"
             id="path696" />
        </g>
        <g
           id="g698"
           transform="translate(222.5967,316.5791)">
          <path
             d="m 0,0 c 2.232,-4.542 10.418,-21.687 14.016,-25.651 l 0.705,-0.739 0.351,-0.368 c 0.121,-0.124 0.217,-0.234 0.409,-0.403 0.675,-0.635 1.394,-1.168 2.123,-1.604 1.459,-0.875 2.938,-1.388 4.361,-1.76 2.847,-0.711 5.554,-0.828 8.179,-0.776 5.26,0.206 10.183,1.088 15.1,2.564 l -0.893,4.175 c -2.305,-0.196 -4.728,-0.338 -7.071,-0.377 -2.353,-0.065 -4.693,0.001 -6.95,0.22 -2.25,0.195 -4.442,0.589 -6.296,1.225 -0.915,0.326 -1.722,0.739 -2.325,1.174 -0.303,0.217 -0.546,0.444 -0.743,0.664 -0.04,0.031 -0.141,0.156 -0.226,0.257 l -0.261,0.313 -0.522,0.621 C 17.193,-17.005 9.904,-0.328 7.716,3.841 Z"
             style="fill:#ffb670;fill-opacity:1;fill-rule:nonzero;stroke:none"
             id="path700" />
        </g>
        <g
           id="g702"
           transform="translate(264.4834,284.1045)">
          <path
             d="m 0,0 c -5.676,-3.06 -12.59,-3.734 -18.749,-1.821 -5.857,1.821 -11.07,6.068 -14.09,11.412 -3.613,5.314 -13.224,20.333 -12.015,24.218 1.428,4.64 4.468,7.518 9.55,6.27 3.573,-0.866 10.385,-18.2 13.676,-25.134 1.299,-1.932 3.774,-4.991 6.542,-5.938 C -10.194,7.317 -6.592,8.051 -1.47,8.776 -0.533,8.212 -0.604,7.347 -0.131,6.371 0.836,4.398 0.996,1.953 0,0"
             style="fill:#007cff;fill-opacity:1;fill-rule:nonzero;stroke:none"
             id="path704" />
        </g>
        <g
           id="g706"
           transform="translate(218.5234,354.2749)">
          <path
             d="m 0,0 c -1.534,-8.225 -2.008,-11.739 -6.72,-15.475 -7.088,-5.619 -16.854,-1.936 -17.808,6.581 -0.859,7.667 1.795,19.829 10.315,22.123 C -5.819,15.49 1.534,8.225 0,0"
             style="fill:#ffb670;fill-opacity:1;fill-rule:nonzero;stroke:none"
             id="path708" />
        </g>
        <g
           id="g710"
           transform="translate(247.7002,308.7598)">
          <path
             d="m 0,0 c -1.57,-1.79 -2.065,-2.826 -4.245,-3.795 -2.18,-0.971 -6.94,-0.126 -8.449,1.724 0.49,-1.44 3.354,-4.029 4.854,-4.229 -3.32,-1.94 -7.99,-1.12 -10.46,1.84 0.239,-1.75 1.89,-3.32 3.56,-3.91 -19.163,-0.495 -11.094,8.523 -23.086,21.346 -13.285,14.205 -10.404,25.944 -10.404,25.944 -0.01,2.03 -0.46,5.4 -2.61,8.14 -1.92,2.46 -1.36,5.78 -0.75,7.64 0.89,2.73 3.6,3.69 6.199,3.85 0.458,2.694 5.963,2.198 6.667,1.748 0.605,-0.385 0.758,-0.353 1.362,0.034 1.353,0.866 4.752,1.772 8.392,-1.172 2.222,-1.796 4.595,-5.019 4.675,-11.88 0.083,-7.134 -3.321,-15.597 8.471,-26.435 C -8.875,14.458 -12.197,0.749 0,0"
             style="fill:#1a2e35;fill-opacity:1;fill-rule:nonzero;stroke:none"
             id="path712" />
        </g>
        <g
           id="g714"
           transform="translate(197.8896,353.6533)">
          <path
             d="m 0,0 c -1.011,-1.399 -1.301,-3.14 -1.078,-4.543 0.336,-2.111 2.393,-2.251 3.883,-0.898 1.341,1.217 2.782,3.783 1.684,5.533 C 3.407,1.816 1.156,1.601 0,0"
             style="fill:#ffb670;fill-opacity:1;fill-rule:nonzero;stroke:none"
             id="path716" />
        </g>
        <g
           id="g718"
           transform="translate(216.4473,268.2368)">
          <path
             d="m 0,0 c 0,0 -4.082,-57.407 -8.691,-95.272 -1.381,-11.346 -4.839,-22.345 -10.215,-32.473 l -22.587,-42.557 -11.561,4.546 c 0,0 7.964,40.454 23.583,62.511 0,0 -11.658,65.93 3.601,103.447 z"
             style="fill:#1a2e35;fill-opacity:1;fill-rule:nonzero;stroke:none"
             id="path720" />
        </g>
        <g
           id="g722">
          <g
             id="g724" />
          <g
             id="g736">
            <g
               clip-path="url(#clipPath728)"
               opacity="0.199997"
               id="g734">
              <g
                 transform="translate(200.7285,254.3345)"
                 id="g732">
                <path
                   d="M 0,0 C 0,0 3.438,-26.041 5.326,-41.472 -1.766,-32.17 -7.196,-19.196 0,0"
                   style="fill:#000000;fill-opacity:1;fill-rule:nonzero;stroke:none"
                   id="path730" />
              </g>
            </g>
          </g>
        </g>
        <g
           id="g738"
           transform="translate(245.2734,76.6738)">
          <path
             d="M 0,0 C 0.07,-0.022 0.156,-0.072 0.198,-0.242 0.275,-0.557 0.229,-0.801 0.059,-0.988 -0.346,-1.43 -1.487,-1.592 -3.042,-1.438 -2.022,-0.689 -0.562,0.191 0,0 m 0.368,-1.264 c 0.267,0.292 0.347,0.668 0.236,1.118 -0.083,0.34 -0.302,0.479 -0.47,0.535 -1.065,0.356 -3.557,-1.59 -3.837,-1.814 -0.065,-0.051 -0.092,-0.135 -0.069,-0.214 0.021,-0.079 0.089,-0.137 0.172,-0.148 0.633,-0.084 1.534,-0.164 2.343,-0.086 0.674,0.065 1.284,0.239 1.625,0.609"
             style="fill:#007cff;fill-opacity:1;fill-rule:nonzero;stroke:none"
             id="path740" />
        </g>
        <g
           id="g742"
           transform="translate(242.959,78.5264)">
          <path
             d="m 0,0 c 0.269,-0.006 0.337,-0.115 0.366,-0.211 0.179,-0.581 -0.676,-2.073 -1.443,-2.808 -0.034,0.831 0.022,2.243 0.542,2.792 0.126,0.134 0.27,0.207 0.44,0.224 C -0.063,0 -0.032,0.001 0,0 m -1.138,-3.604 c 0.789,0.546 2.197,2.559 1.903,3.512 C 0.709,0.091 0.536,0.398 0.01,0.41 -0.322,0.419 -0.61,0.298 -0.841,0.053 c -0.87,-0.921 -0.635,-3.404 -0.624,-3.509 0.007,-0.072 0.053,-0.136 0.12,-0.167 0.034,-0.015 0.072,-0.021 0.108,-0.018 0.035,0.004 0.069,0.016 0.099,0.037"
             style="fill:#007cff;fill-opacity:1;fill-rule:nonzero;stroke:none"
             id="path744" />
        </g>
        <g
           id="g746"
           transform="translate(231.5156,74.1084)">
          <path
             d="M 0,0 8.759,0.844 6.086,20.738 -2.673,19.895 Z"
             style="fill:#ffb670;fill-opacity:1;fill-rule:nonzero;stroke:none"
             id="path748" />
        </g>
        <g
           id="g750"
           transform="translate(240.8691,76.0176)">
          <path
             d="m 0,0 -9.84,-0.948 c -0.358,-0.035 -0.625,-0.308 -0.64,-0.656 l -0.36,-7.77 c -0.037,-0.806 0.733,-1.491 1.558,-1.397 3.425,0.388 5.057,0.746 9.386,1.163 2.662,0.256 6.578,0.359 10.254,0.713 3.596,0.347 3.517,3.951 1.954,4.127 C 5.303,-3.977 4.02,-2.077 1.517,-0.39 1.065,-0.085 0.524,0.05 0,0"
             style="fill:#1a2e35;fill-opacity:1;fill-rule:nonzero;stroke:none"
             id="path752" />
        </g>
        <g
           id="g754"
           transform="translate(225.1113,268.2505)">
          <path
             d="m 0,0 c 0,0 11.205,-68.51 13.363,-109.094 l 0.404,-72.695 -9.067,-1.769 c 0,0 -13.136,46.378 -14.647,73.184 -4.01,71.128 -27.177,71.246 -13.239,110.501 z"
             style="fill:#1a2e35;fill-opacity:1;fill-rule:nonzero;stroke:none"
             id="path756" />
        </g>
        <g
           id="g758"
           transform="translate(241.8896,86.1631)">
          <path
             d="m 0,0 -15.014,-2.057 -1.521,5.766 16.046,2.087 z"
             style="fill:#007cff;fill-opacity:1;fill-rule:nonzero;stroke:none"
             id="path760" />
        </g>
        <g
           id="g762"
           transform="translate(159.999,330.8774)">
          <path
             d="m 0,0 h -0.03 l 0.009,0.05 C -0.021,0.03 -0.01,0.02 0,0"
             style="fill:#ffb670;fill-opacity:1;fill-rule:nonzero;stroke:none"
             id="path764" />
        </g>
        <g
           id="g766"
           transform="translate(160.9609,341.7466)">
          <path
             d="m 0,0 h 0.574 c -0.578,0 -1.021,-0.468 -0.991,-1.045 l 0.913,-17.414 c 0.03,-0.578 0.523,-1.046 1.1,-1.046 H 1.022 c -0.577,0 -1.07,0.468 -1.1,1.046 L -0.99,-1.045 C -1.021,-0.468 -0.577,0 0,0"
             style="fill:#007cff;fill-opacity:1;fill-rule:nonzero;stroke:none"
             id="path768" />
        </g>
        <g
           id="g770">
          <g
             id="g772" />
          <g
             id="g784">
            <g
               clip-path="url(#clipPath776)"
               opacity="0.100006"
               id="g782">
              <g
                 transform="translate(160.9609,341.7466)"
                 id="g780">
                <path
                   d="m 0,0 h 0.574 c -0.578,0 -1.021,-0.468 -0.991,-1.045 l 0.913,-17.414 c 0.03,-0.578 0.523,-1.046 1.1,-1.046 H 1.022 c -0.577,0 -1.07,0.468 -1.1,1.046 L -0.99,-1.045 C -1.021,-0.468 -0.577,0 0,0"
                   style="fill:#ffffff;fill-opacity:1;fill-rule:nonzero;stroke:none"
                   id="path778" />
              </g>
            </g>
          </g>
        </g>
        <g
           id="g786"
           transform="translate(162.1543,322.2412)">
          <path
             d="M 0,0 H 7.024 C 7.602,0 8.045,0.468 8.015,1.046 L 7.103,18.46 c -0.031,0.578 -0.524,1.045 -1.101,1.045 h -7.024 c -0.578,0 -1.021,-0.467 -0.991,-1.045 L -1.101,1.046 C -1.07,0.468 -0.577,0 0,0"
             style="fill:#007cff;fill-opacity:1;fill-rule:nonzero;stroke:none"
             id="path788" />
        </g>
        <g
           id="g790">
          <g
             id="g792" />
          <g
             id="g804">
            <g
               clip-path="url(#clipPath796)"
               opacity="0.399994"
               id="g802">
              <g
                 transform="translate(162.1543,322.2412)"
                 id="g800">
                <path
                   d="M 0,0 H 7.024 C 7.602,0 8.045,0.468 8.015,1.046 L 7.103,18.46 c -0.031,0.578 -0.524,1.045 -1.101,1.045 h -7.024 c -0.578,0 -1.021,-0.467 -0.991,-1.045 L -1.101,1.046 C -1.07,0.468 -0.577,0 0,0"
                   style="fill:#ffffff;fill-opacity:1;fill-rule:nonzero;stroke:none"
                   id="path798" />
              </g>
            </g>
          </g>
        </g>
        <g
           id="g806"
           transform="translate(169.7305,323.6499)">
          <path
             d="M 0,0 C 0.01,-0.18 -0.051,-0.35 -0.171,-0.48 -0.29,-0.6 -0.461,-0.67 -0.641,-0.67 H -7.45 c -0.391,0 -0.721,0.32 -0.74,0.71 l -0.89,16.89 c -0.011,0.18 0.05,0.35 0.17,0.47 0.12,0.13 0.29,0.2 0.47,0.2 h 6.809 c 0.391,0 0.721,-0.32 0.74,-0.71 l 0.061,-1.21 z"
             style="fill:#1a2e35;fill-opacity:1;fill-rule:nonzero;stroke:none"
             id="path808" />
        </g>
        <g
           id="g810">
          <g
             id="g812" />
          <g
             id="g828">
            <g
               clip-path="url(#clipPath816)"
               opacity="0.100006"
               id="g826">
              <g
                 transform="translate(168.9004,339.3301)"
                 id="g820">
                <path
                   d="m 0,0 -2.261,-16.35 h -2.71 L -2.41,1.92 h 1.609 c 0.391,0 0.721,-0.32 0.74,-0.71 z"
                   style="fill:#ffffff;fill-opacity:1;fill-rule:nonzero;stroke:none"
                   id="path818" />
              </g>
              <g
                 transform="translate(162.9502,322.9795)"
                 id="g824">
                <path
                   d="M 0,0 H -0.611 L 1.95,18.27 h 0.612 z"
                   style="fill:#ffffff;fill-opacity:1;fill-rule:nonzero;stroke:none"
                   id="path822" />
              </g>
            </g>
          </g>
        </g>
        <g
           id="g830"
           transform="translate(188.5205,266.2974)">
          <path
             d="M 0,0 C -5.092,-9.983 -7.862,-21.141 -8.031,-32.346 8.991,-45.535 24.8,-30.089 44.258,-32.699 43.579,-23.911 40.594,-7.649 37.048,0.42 24.189,-0.123 12.147,1.161 0,0"
             style="fill:#007cff;fill-opacity:1;fill-rule:nonzero;stroke:none"
             id="path832" />
        </g>
        <g
           id="g834"
           transform="translate(190.292,269.8667)">
          <path
             d="m 0,0 c 0,0 -1.374,-3.522 -0.98,-3.522 h 35.676 c 0.307,0 0.561,0.15 0.58,0.343 l 0.307,3.045 c 0.021,0.211 -0.244,0.39 -0.58,0.39 H 0.554 C 0.301,0.256 0.076,0.152 0,0"
             style="fill:#ffffff;fill-opacity:1;fill-rule:nonzero;stroke:none"
             id="path836" />
        </g>
        <g
           id="g838"
           transform="translate(195.3184,266.0449)">
          <path
             d="m 0,0 h -0.923 c -0.183,0 -0.323,0.095 -0.31,0.21 l 0.432,3.957 c 0.013,0.116 0.173,0.21 0.357,0.21 h 0.923 c 0.183,0 0.324,-0.094 0.311,-0.21 L 0.357,0.21 C 0.345,0.095 0.184,0 0,0"
             style="fill:#007cff;fill-opacity:1;fill-rule:nonzero;stroke:none"
             id="path840" />
        </g>
        <g
           id="g842"
           transform="translate(217.6816,266.0449)">
          <path
             d="m 0,0 h -0.922 c -0.183,0 -0.324,0.095 -0.311,0.21 l 0.432,3.957 c 0.013,0.116 0.174,0.21 0.358,0.21 h 0.922 c 0.184,0 0.324,-0.094 0.311,-0.21 L 0.357,0.21 C 0.345,0.095 0.185,0 0,0"
             style="fill:#007cff;fill-opacity:1;fill-rule:nonzero;stroke:none"
             id="path844" />
        </g>
      </g>
    </g>
  </g>
</svg>
