<?xml version="1.0" encoding="UTF-8" standalone="no"?>
<!-- Created with Inkscape (http://www.inkscape.org/) -->

<svg
   version="1.1"
   id="svg2"
   width="666.66669"
   height="666.66669"
   viewBox="0 0 666.66669 666.66669"
   sodipodi:docname="illustration4.ai"
   xmlns:inkscape="http://www.inkscape.org/namespaces/inkscape"
   xmlns:sodipodi="http://sodipodi.sourceforge.net/DTD/sodipodi-0.dtd"
   xmlns="http://www.w3.org/2000/svg"
   xmlns:svg="http://www.w3.org/2000/svg">
  <defs
     id="defs6">
    <clipPath
       clipPathUnits="userSpaceOnUse"
       id="clipPath30">
      <path
         d="M 0,500 H 500 V 0 H 0 Z"
         id="path28" />
    </clipPath>
    <clipPath
       clipPathUnits="userSpaceOnUse"
       id="clipPath140">
      <path
         d="M 0,500 H 500 V 0 H 0 Z"
         id="path138" />
    </clipPath>
    <clipPath
       clipPathUnits="userSpaceOnUse"
       id="clipPath152">
      <path
         d="M 57.5712,419.613 H 402.684 V 154.431 H 57.5712 Z"
         id="path150" />
    </clipPath>
    <clipPath
       clipPathUnits="userSpaceOnUse"
       id="clipPath168">
      <path
         d="M 0,500 H 500 V 0 H 0 Z"
         id="path166" />
    </clipPath>
    <clipPath
       clipPathUnits="userSpaceOnUse"
       id="clipPath188">
      <path
         d="M 0,500 H 500 V 0 H 0 Z"
         id="path186" />
    </clipPath>
    <clipPath
       clipPathUnits="userSpaceOnUse"
       id="clipPath196">
      <path
         d="M 107.274,374.406 H 257.047 V 146.039 H 107.274 Z"
         id="path194" />
    </clipPath>
    <clipPath
       clipPathUnits="userSpaceOnUse"
       id="clipPath220">
      <path
         d="m 152.055,301.989 h 57.964 v -26.044 h -57.964 z"
         id="path218" />
    </clipPath>
    <clipPath
       clipPathUnits="userSpaceOnUse"
       id="clipPath236">
      <path
         d="m 165.426,334.874 h 29.387 v -29.369 h -29.387 z"
         id="path234" />
    </clipPath>
    <clipPath
       clipPathUnits="userSpaceOnUse"
       id="clipPath292">
      <path
         d="M 0,500 H 500 V 0 H 0 Z"
         id="path290" />
    </clipPath>
    <clipPath
       clipPathUnits="userSpaceOnUse"
       id="clipPath328">
      <path
         d="m 300.21,349.14 h 7.41 v -10.76 h -7.41 z"
         id="path326" />
    </clipPath>
    <clipPath
       clipPathUnits="userSpaceOnUse"
       id="clipPath392">
      <path
         d="m 322.274,331.207 h 20.92 v -28.62 h -20.92 z"
         id="path390" />
    </clipPath>
    <clipPath
       clipPathUnits="userSpaceOnUse"
       id="clipPath412">
      <path
         d="m 322.587,318.642 h 7.956 v -16.057 h -7.956 z"
         id="path410" />
    </clipPath>
    <clipPath
       clipPathUnits="userSpaceOnUse"
       id="clipPath432">
      <path
         d="m 288.307,332.843 h 42.86 V 269.86 h -42.86 z"
         id="path430" />
    </clipPath>
    <clipPath
       clipPathUnits="userSpaceOnUse"
       id="clipPath448">
      <path
         d="m 288.311,314.362 h 6.982 v -15.53 h -6.982 z"
         id="path446" />
    </clipPath>
    <clipPath
       clipPathUnits="userSpaceOnUse"
       id="clipPath464">
      <path
         d="m 301.991,107.228 h 7.397 v -8.396 h -7.397 z"
         id="path462" />
    </clipPath>
    <clipPath
       clipPathUnits="userSpaceOnUse"
       id="clipPath480">
      <path
         d="m 347.573,109.368 h 10.439 v -9.309 h -10.439 z"
         id="path478" />
    </clipPath>
    <clipPath
       clipPathUnits="userSpaceOnUse"
       id="clipPath524">
      <path
         d="m 307.658,250.779 h 9.915 v -54.005 h -9.915 z"
         id="path522" />
    </clipPath>
    <clipPath
       clipPathUnits="userSpaceOnUse"
       id="clipPath552">
      <path
         d="m 279.232,331.867 h 25.406 v -30.004 h -25.406 z"
         id="path550" />
    </clipPath>
    <clipPath
       clipPathUnits="userSpaceOnUse"
       id="clipPath568">
      <path
         d="M 0,500 H 500 V 0 H 0 Z"
         id="path566" />
    </clipPath>
    <clipPath
       clipPathUnits="userSpaceOnUse"
       id="clipPath584">
      <path
         d="m 340.634,392.302 h 23.722 v -15.12 h -23.722 z"
         id="path582" />
    </clipPath>
    <clipPath
       clipPathUnits="userSpaceOnUse"
       id="clipPath600">
      <path
         d="m 328.76,380.286 h 9.738 v -6.207 h -9.738 z"
         id="path598" />
    </clipPath>
  </defs>
  <sodipodi:namedview
     id="namedview4"
     pagecolor="#ffffff"
     bordercolor="#000000"
     borderopacity="0.25"
     inkscape:showpageshadow="2"
     inkscape:pageopacity="0.0"
     inkscape:pagecheckerboard="0"
     inkscape:deskcolor="#d1d1d1" />
  <g
     id="g8"
     inkscape:groupmode="layer"
     inkscape:label="illustration4"
     transform="matrix(1.3333333,0,0,-1.3333333,0,666.66667)">
    <path
       d="m 0,117.352 h 500 v 0.249 H 0 Z"
       style="fill:#ececec;fill-opacity:1;fill-rule:nonzero;stroke:none"
       id="path10" />
    <path
       d="m 290.208,110.542 h 25.459 v 0.25 h -25.459 z"
       style="fill:#ececec;fill-opacity:1;fill-rule:nonzero;stroke:none"
       id="path12" />
    <path
       d="m 395.112,105.131 h 60.332 v 0.249 h -60.332 z"
       style="fill:#ececec;fill-opacity:1;fill-rule:nonzero;stroke:none"
       id="path14" />
    <path
       d="m 222.459,110.417 h 62.333 v 0.25 h -62.333 z"
       style="fill:#ececec;fill-opacity:1;fill-rule:nonzero;stroke:none"
       id="path16" />
    <path
       d="m 169,102.936 h 13.041 v 0.25 H 169 Z"
       style="fill:#ececec;fill-opacity:1;fill-rule:nonzero;stroke:none"
       id="path18" />
    <path
       d="m 194.708,102.936 h 59.377 v 0.25 h -59.377 z"
       style="fill:#ececec;fill-opacity:1;fill-rule:nonzero;stroke:none"
       id="path20" />
    <path
       d="m 52.459,107.159 h 38.453 v 0.249 H 52.459 Z"
       style="fill:#ececec;fill-opacity:1;fill-rule:nonzero;stroke:none"
       id="path22" />
    <g
       id="g24">
      <g
         id="g26"
         clip-path="url(#clipPath30)">
        <g
           id="g32"
           transform="translate(43.915,444.7974)">
          <path
             d="m 0,0 c -3.01,0 -5.458,-2.448 -5.458,-5.458 v -271.431 c 0,-3.01 2.448,-5.458 5.458,-5.458 h 193.099 c 3.008,0 5.457,2.448 5.457,5.458 V -5.458 c 0,3.01 -2.449,5.458 -5.457,5.458 z M 193.099,-282.597 H 0 c -3.147,0 -5.708,2.56 -5.708,5.708 V -5.458 c 0,3.147 2.561,5.708 5.708,5.708 h 193.099 c 3.146,0 5.707,-2.561 5.707,-5.708 v -271.431 c 0,-3.148 -2.561,-5.708 -5.707,-5.708"
             style="fill:#ececec;fill-opacity:1;fill-rule:nonzero;stroke:none"
             id="path34" />
        </g>
        <g
           id="g36"
           transform="translate(260.2119,444.7974)">
          <path
             d="m 0,0 c -3.009,0 -5.457,-2.448 -5.457,-5.458 v -271.431 c 0,-3.01 2.448,-5.458 5.457,-5.458 h 193.099 c 3.009,0 5.458,2.448 5.458,5.458 V -5.458 c 0,3.01 -2.449,5.458 -5.458,5.458 z M 193.099,-282.597 H 0 c -3.146,0 -5.707,2.56 -5.707,5.708 V -5.458 c 0,3.147 2.561,5.708 5.707,5.708 h 193.099 c 3.147,0 5.708,-2.561 5.708,-5.708 v -271.431 c 0,-3.148 -2.561,-5.708 -5.708,-5.708"
             style="fill:#ececec;fill-opacity:1;fill-rule:nonzero;stroke:none"
             id="path38" />
        </g>
        <g
           id="g40"
           transform="translate(195.9619,204.3335)">
          <path
             d="m 0,0 h -66.401 l -4.031,46.5 h 66.401 z"
             style="fill:#e7e7e7;fill-opacity:1;fill-rule:nonzero;stroke:none"
             id="path42" />
        </g>
        <g
           id="g44"
           transform="translate(199.4014,204.3335)">
          <path
             d="m 0,0 h -66.401 l -4.031,46.5 h 66.401 z"
             style="fill:#f0f0f0;fill-opacity:1;fill-rule:nonzero;stroke:none"
             id="path46" />
        </g>
        <g
           id="g48"
           transform="translate(142.0767,214.3188)">
          <path
             d="M 0,0 -2.213,26.529 H 44.216 L 46.429,0 Z"
             style="fill:#ffffff;fill-opacity:1;fill-rule:nonzero;stroke:none"
             id="path50" />
        </g>
        <path
           d="m 210.89,117.604 h -7.791 v 86.73 h 7.791 z"
           style="fill:#e7e7e7;fill-opacity:1;fill-rule:nonzero;stroke:none"
           id="path52" />
        <path
           d="m 213.349,117.604 h -5.411 v 86.73 h 5.411 z"
           style="fill:#f0f0f0;fill-opacity:1;fill-rule:nonzero;stroke:none"
           id="path54" />
        <path
           d="m 137.939,194.761 h 75.41 v 9.573 h -75.41 z"
           style="fill:#f0f0f0;fill-opacity:1;fill-rule:nonzero;stroke:none"
           id="path56" />
        <path
           d="m 140.605,117.604 h -7.791 v 77.157 h 7.791 z"
           style="fill:#e7e7e7;fill-opacity:1;fill-rule:nonzero;stroke:none"
           id="path58" />
        <path
           d="m 143.064,117.604 h -5.411 v 77.157 h 5.411 z"
           style="fill:#f0f0f0;fill-opacity:1;fill-rule:nonzero;stroke:none"
           id="path60" />
        <path
           d="m 85.148,117.604 h -7.791 v 77.157 h 7.791 z"
           style="fill:#e7e7e7;fill-opacity:1;fill-rule:nonzero;stroke:none"
           id="path62" />
        <path
           d="m 87.606,117.604 h -5.411 v 77.157 h 5.411 z"
           style="fill:#f0f0f0;fill-opacity:1;fill-rule:nonzero;stroke:none"
           id="path64" />
        <path
           d="m 161.586,117.604 h -7.791 v 77.157 h 7.791 z"
           style="fill:#e7e7e7;fill-opacity:1;fill-rule:nonzero;stroke:none"
           id="path66" />
        <path
           d="m 164.045,117.604 h -5.411 v 77.157 h 5.411 z"
           style="fill:#f0f0f0;fill-opacity:1;fill-rule:nonzero;stroke:none"
           id="path68" />
        <path
           d="M 137.939,194.761 H 77.357 v 9.573 h 60.582 z"
           style="fill:#e7e7e7;fill-opacity:1;fill-rule:nonzero;stroke:none"
           id="path70" />
        <path
           d="M 363.839,290.131 H 129.508 v 130.456 h 234.331 z"
           style="fill:#e1e1e1;fill-opacity:1;fill-rule:nonzero;stroke:none"
           id="path72" />
        <path
           d="M 376.707,290.131 H 130.692 v 130.456 h 246.015 z"
           style="fill:#f5f5f5;fill-opacity:1;fill-rule:nonzero;stroke:none"
           id="path74" />
        <path
           d="M 372.687,416.567 H 134.711 V 294.15 h 237.976 z"
           style="fill:#ffffff;fill-opacity:1;fill-rule:nonzero;stroke:none"
           id="path76" />
        <g
           id="g78"
           transform="translate(231.0654,294.1499)">
          <path
             d="M 0,0 44.93,122.417 H -29.22 L -74.15,0 Z"
             style="fill:#f5f5f5;fill-opacity:1;fill-rule:nonzero;stroke:none"
             id="path80" />
        </g>
        <g
           id="g82"
           transform="translate(302.4404,294.1499)">
          <path
             d="M 0,0 44.93,122.417 H -11.006 L -55.936,0 Z"
             style="fill:#f5f5f5;fill-opacity:1;fill-rule:nonzero;stroke:none"
             id="path84" />
        </g>
        <path
           d="m 438.111,117.602 h -19.919 v 124.595 h 19.919 z"
           style="fill:#e7e7e7;fill-opacity:1;fill-rule:nonzero;stroke:none"
           id="path86" />
        <g
           id="g88"
           transform="translate(432.8735,117.6016)">
          <path
             d="M 0,0 H 5.238 V 9.594 H -5.492 Z"
             style="fill:#fafafa;fill-opacity:1;fill-rule:nonzero;stroke:none"
             id="path90" />
        </g>
        <path
           d="m 254.454,117.602 h -19.919 v 124.595 h 19.919 z"
           style="fill:#e7e7e7;fill-opacity:1;fill-rule:nonzero;stroke:none"
           id="path92" />
        <path
           d="M 438.111,120.19 H 249.883 v 122.006 h 188.228 z"
           style="fill:#fafafa;fill-opacity:1;fill-rule:nonzero;stroke:none"
           id="path94" />
        <path
           d="m 254.446,203.831 h 179.102 v 32.458 H 254.446 Z m 180.102,-1 H 253.446 v 34.458 h 181.102 z"
           style="fill:#e7e7e7;fill-opacity:1;fill-rule:nonzero;stroke:none"
           id="path96" />
        <g
           id="g98"
           transform="translate(276.1406,231.9741)">
          <path
             d="m 0,0 c 3.384,-6.631 7.984,-10.415 12.704,-10.415 h 113.822 c 4.72,0 9.322,3.784 12.705,10.415 z M 126.526,-11.415 H 12.704 c -5.286,0 -10.375,4.264 -13.96,11.698 L -1.602,1 h 142.435 l -0.346,-0.717 c -3.585,-7.434 -8.674,-11.698 -13.961,-11.698"
             style="fill:#e7e7e7;fill-opacity:1;fill-rule:nonzero;stroke:none"
             id="path100" />
        </g>
        <g
           id="g102"
           transform="translate(255.1206,117.6016)">
          <path
             d="M 0,0 H -5.237 V 9.594 H 5.492 Z"
             style="fill:#fafafa;fill-opacity:1;fill-rule:nonzero;stroke:none"
             id="path104" />
        </g>
        <path
           d="m 254.446,164.964 h 179.102 v 32.458 H 254.446 Z m 180.102,-1 H 253.446 v 34.458 h 181.102 z"
           style="fill:#e7e7e7;fill-opacity:1;fill-rule:nonzero;stroke:none"
           id="path106" />
        <g
           id="g108"
           transform="translate(276.1406,193.1079)">
          <path
             d="m 0,0 c 3.384,-6.631 7.984,-10.415 12.704,-10.415 h 113.822 c 4.721,0 9.322,3.784 12.705,10.415 z M 126.526,-11.415 H 12.704 c -5.286,0 -10.375,4.264 -13.96,11.698 L -1.602,1 h 142.435 l -0.346,-0.717 c -3.585,-7.434 -8.674,-11.698 -13.961,-11.698"
             style="fill:#e7e7e7;fill-opacity:1;fill-rule:nonzero;stroke:none"
             id="path110" />
        </g>
        <path
           d="m 254.446,126.098 h 179.102 v 32.459 H 254.446 Z m 180.102,-1 H 253.446 v 34.459 h 181.102 z"
           style="fill:#e7e7e7;fill-opacity:1;fill-rule:nonzero;stroke:none"
           id="path112" />
        <g
           id="g114"
           transform="translate(276.1406,154.2417)">
          <path
             d="m 0,0 c 3.384,-6.631 7.984,-10.415 12.704,-10.415 h 113.822 c 4.721,0 9.322,3.784 12.705,10.415 z M 126.526,-11.415 H 12.704 c -5.286,0 -10.375,4.264 -13.96,11.698 L -1.602,1 h 142.435 l -0.346,-0.717 c -3.585,-7.434 -8.674,-11.698 -13.961,-11.698"
             style="fill:#e7e7e7;fill-opacity:1;fill-rule:nonzero;stroke:none"
             id="path116" />
        </g>
        <g
           id="g118"
           transform="translate(120.9829,225.7168)">
          <path
             d="m 0,0 v -2.418 h -1.548 l -1.278,-18.965 h -18.835 l -1.276,18.965 h -1.549 V 0 Z"
             style="fill:#e7e7e7;fill-opacity:1;fill-rule:nonzero;stroke:none"
             id="path120" />
        </g>
        <g
           id="g122"
           transform="translate(114.7837,272.7891)">
          <path
             d="m 0,0 c -1.548,11.297 -16.794,14.524 -36.142,14.938 -18.411,0.393 -24.308,6.908 -24.308,6.908 0,0 0.058,-26.379 26.587,-35.93 C -8.672,-23.153 1.551,-11.317 0,0"
             style="fill:#e7e7e7;fill-opacity:1;fill-rule:nonzero;stroke:none"
             id="path124" />
        </g>
        <g
           id="g126"
           transform="translate(105.3784,247.1758)">
          <path
             d="m 0,0 c 0.323,4.647 7.742,13.186 25.587,9.304 12.904,-2.806 17.701,3.882 17.701,3.882 0,0 -1.194,-18.879 -20.601,-24.555 C 4.26,-16.759 -0.568,-8.171 0,0"
             style="fill:#e7e7e7;fill-opacity:1;fill-rule:nonzero;stroke:none"
             id="path128" />
        </g>
        <g
           id="g130"
           transform="translate(109.4502,218.5962)">
          <path
             d="m 0,0 c 0.195,0 0.39,0.083 0.526,0.244 1.293,1.528 0.235,5.19 -1.23,10.258 -1.879,6.503 -4.218,14.598 -2.237,20.475 1.118,3.318 2.502,6.243 3.839,9.072 2.801,5.925 5.22,11.04 3.203,16.383 C 3.966,56.788 3.569,56.967 3.214,56.833 2.858,56.698 2.679,56.301 2.813,55.946 4.624,51.15 2.431,46.511 -0.346,40.638 -1.638,37.906 -3.102,34.811 -4.246,31.417 -6.364,25.131 -3.958,16.808 -2.026,10.12 -0.886,6.176 0.292,2.099 -0.525,1.133 -0.771,0.842 -0.734,0.408 -0.444,0.163 -0.315,0.053 -0.157,0 0,0"
             style="fill:#e7e7e7;fill-opacity:1;fill-rule:nonzero;stroke:none"
             id="path132" />
        </g>
      </g>
    </g>
    <g
       id="g134">
      <g
         id="g136"
         clip-path="url(#clipPath140)">
        <g
           id="g142"
           transform="translate(401.8457,325.6812)">
          <path
             d="m 0,0 c -6.792,-54.216 -54.298,-108.35 -106.533,-143.214 -135.042,-90.816 -265.513,63.289 -232.591,118.638 24.713,56.145 101.785,40.721 134.573,62.792 C -20.26,163.14 6.394,45.374 0,0"
             style="fill:#007cff;fill-opacity:1;fill-rule:nonzero;stroke:none"
             id="path144" />
        </g>
        <g
           id="g146">
          <g
             id="g148" />
          <g
             id="g160">
            <g
               clip-path="url(#clipPath152)"
               opacity="0.899994"
               id="g158">
              <g
                 transform="translate(401.8457,325.6812)"
                 id="g156">
                <path
                   d="m 0,0 c -6.792,-54.216 -54.298,-108.35 -106.533,-143.214 -135.042,-90.816 -265.513,63.289 -232.591,118.638 24.713,56.145 101.785,40.721 134.573,62.792 C -20.26,163.14 6.394,45.374 0,0"
                   style="fill:#ffffff;fill-opacity:1;fill-rule:nonzero;stroke:none"
                   id="path154" />
              </g>
            </g>
          </g>
        </g>
      </g>
    </g>
    <g
       id="g162">
      <g
         id="g164"
         clip-path="url(#clipPath168)">
        <g
           id="g170"
           transform="translate(443.8892,83.7622)">
          <path
             d="m 0,0 c 0,-6.254 -86.807,-11.324 -193.889,-11.324 -107.082,0 -193.889,5.07 -193.889,11.324 0,6.253 86.807,11.323 193.889,11.323 C -86.807,11.323 0,6.253 0,0"
             style="fill:#f5f5f5;fill-opacity:1;fill-rule:nonzero;stroke:none"
             id="path172" />
        </g>
      </g>
    </g>
    <g
       id="g174"
       transform="translate(249.9604,138.9521)">
      <path
         d="m 0,0 h -142 l -7.773,228.367 h 142 z"
         style="fill:#007cff;fill-opacity:1;fill-rule:nonzero;stroke:none"
         id="path176" />
    </g>
    <g
       id="g178"
       transform="translate(257.0469,146.0386)">
      <path
         d="m 0,0 h -142 l -7.773,228.367 h 142 z"
         style="fill:#007cff;fill-opacity:1;fill-rule:nonzero;stroke:none"
         id="path180" />
    </g>
    <g
       id="g182">
      <g
         id="g184"
         clip-path="url(#clipPath188)">
        <g
           id="g190">
          <g
             id="g192" />
          <g
             id="g204">
            <g
               clip-path="url(#clipPath196)"
               opacity="0.300003"
               id="g202">
              <g
                 transform="translate(257.0469,146.0386)"
                 id="g200">
                <path
                   d="m 0,0 h -142 l -7.773,228.367 h 142 z"
                   style="fill:#ffffff;fill-opacity:1;fill-rule:nonzero;stroke:none"
                   id="path198" />
              </g>
            </g>
          </g>
        </g>
        <g
           id="g206"
           transform="translate(220.4468,308.9067)">
          <path
             d="m 0,0 c 0.751,-22.06 -16.524,-39.943 -38.584,-39.943 -22.06,0 -40.552,17.883 -41.303,39.943 -0.75,22.06 16.524,39.943 38.584,39.943 C -19.243,39.943 -0.751,22.06 0,0"
             style="fill:#007cff;fill-opacity:1;fill-rule:nonzero;stroke:none"
             id="path208" />
        </g>
        <g
           id="g210"
           transform="translate(213.4687,308.9111)">
          <path
             d="m 0,0 c 0.194,-5.693 -1.068,-11.039 -3.449,-15.703 -5.211,-10.275 -15.863,-17.263 -28.395,-17.263 -12.532,0 -23.659,6.988 -29.57,17.263 -2.698,4.664 -4.324,10.01 -4.518,15.703 -0.619,18.209 13.635,32.966 31.844,32.966 C -15.878,32.966 -0.62,18.209 0,0"
             style="fill:#ffffff;fill-opacity:1;fill-rule:nonzero;stroke:none"
             id="path212" />
        </g>
        <g
           id="g214">
          <g
             id="g216" />
          <g
             id="g228">
            <g
               clip-path="url(#clipPath220)"
               opacity="0.600006"
               id="g226">
              <g
                 transform="translate(210.0195,293.208)"
                 id="g224">
                <path
                   d="m 0,0 c -5.211,-10.274 -15.862,-17.263 -28.395,-17.263 -12.532,0 -23.659,6.989 -29.569,17.263 8.11,5.544 17.96,8.781 28.683,8.781 C -18.558,8.781 -8.488,5.544 0,0"
                   style="fill:#007cff;fill-opacity:1;fill-rule:nonzero;stroke:none"
                   id="path222" />
              </g>
            </g>
          </g>
        </g>
        <g
           id="g230">
          <g
             id="g232" />
          <g
             id="g244">
            <g
               clip-path="url(#clipPath236)"
               opacity="0.600006"
               id="g242">
              <g
                 transform="translate(194.8037,320.1895)"
                 id="g240">
                <path
                   d="m 0,0 c 0.276,-8.11 -6.074,-14.685 -14.185,-14.685 -8.109,0 -14.908,6.575 -15.184,14.685 -0.276,8.11 6.075,14.685 14.185,14.685 C -7.074,14.685 -0.276,8.11 0,0"
                   style="fill:#007cff;fill-opacity:1;fill-rule:nonzero;stroke:none"
                   id="path238" />
              </g>
            </g>
          </g>
        </g>
        <g
           id="g246"
           transform="translate(228.5244,228.7388)">
          <path
             d="m 0,0 h -90.584 l -0.613,18 h 90.584 z"
             style="fill:#ffffff;fill-opacity:1;fill-rule:nonzero;stroke:none"
             id="path248" />
        </g>
        <g
           id="g250"
           transform="translate(229.6196,196.5659)">
          <path
             d="m 0,0 h -90.585 l -0.613,18 h 90.585 z"
             style="fill:#ffffff;fill-opacity:1;fill-rule:nonzero;stroke:none"
             id="path252" />
        </g>
        <g
           id="g254"
           transform="translate(188.3857,197.2725)">
          <path
             d="M 0,0 -3.952,-0.537 -4.35,4.184 c -0.84,0.371 -1.45,1.117 -1.622,1.996 -0.28,1.43 0.685,2.755 2.154,2.955 1.462,0.198 2.883,-0.802 3.163,-2.232 0.173,-0.879 -0.12,-1.747 -0.776,-2.322 z m 6.272,14.819 -21.828,-2.968 c -0.897,-0.122 -1.487,-0.939 -1.317,-1.807 l 2.866,-14.627 c 0.172,-0.875 1.042,-1.487 1.939,-1.365 l 21.829,2.969 c 0.896,0.121 1.488,0.933 1.317,1.807 L 8.211,13.455 c -0.17,0.868 -1.042,1.486 -1.939,1.364"
             style="fill:#007cff;fill-opacity:1;fill-rule:nonzero;stroke:none"
             id="path256" />
        </g>
        <g
           id="g258"
           transform="translate(192.5034,212.876)">
          <path
             d="M 0,0 V 0 C -0.797,-0.108 -1.567,0.434 -1.72,1.211 L -2,2.643 c -0.773,3.941 -4.541,6.916 -8.62,6.56 -4.36,-0.379 -7.283,-4.23 -6.467,-8.393 l 0.322,-1.645 c 0.152,-0.777 -0.371,-1.495 -1.169,-1.603 -0.797,-0.109 -1.567,0.433 -1.719,1.21 l -0.274,1.395 c -1.076,5.493 2.382,10.772 7.974,11.746 5.881,1.024 11.678,-2.942 12.8,-8.665 L 1.168,1.604 C 1.321,0.827 0.798,0.109 0,0"
             style="fill:#007cff;fill-opacity:1;fill-rule:nonzero;stroke:none"
             id="path260" />
        </g>
        <g
           id="g262"
           transform="translate(214.6665,171.3608)">
          <path
             d="m 0,0 h -58.963 l -0.399,11.717 h 58.964 z"
             style="fill:#007cff;fill-opacity:1;fill-rule:nonzero;stroke:none"
             id="path264" />
        </g>
        <g
           id="g266"
           transform="translate(186.2183,237.7388)">
          <path
             d="m 0,0 c 0.062,-1.818 -1.362,-3.292 -3.181,-3.292 -1.818,0 -3.342,1.474 -3.404,3.292 -0.062,1.818 1.362,3.292 3.18,3.292 C -1.586,3.292 -0.062,1.818 0,0"
             style="fill:#1a2e35;fill-opacity:1;fill-rule:nonzero;stroke:none"
             id="path268" />
        </g>
        <g
           id="g270"
           transform="translate(172.0449,237.7388)">
          <path
             d="m 0,0 c 0.062,-1.818 -1.362,-3.292 -3.18,-3.292 -1.819,0 -3.343,1.474 -3.405,3.292 -0.061,1.818 1.362,3.292 3.181,3.292 C -1.586,3.292 -0.062,1.818 0,0"
             style="fill:#1a2e35;fill-opacity:1;fill-rule:nonzero;stroke:none"
             id="path272" />
        </g>
        <g
           id="g274"
           transform="translate(157.8716,237.7388)">
          <path
             d="m 0,0 c 0.062,-1.818 -1.362,-3.292 -3.18,-3.292 -1.819,0 -3.342,1.474 -3.404,3.292 -0.062,1.818 1.361,3.292 3.18,3.292 C -1.586,3.292 -0.062,1.818 0,0"
             style="fill:#1a2e35;fill-opacity:1;fill-rule:nonzero;stroke:none"
             id="path276" />
        </g>
        <g
           id="g278"
           transform="translate(200.3911,237.7388)">
          <path
             d="m 0,0 c 0.062,-1.818 -1.362,-3.292 -3.18,-3.292 -1.819,0 -3.342,1.474 -3.404,3.292 -0.062,1.818 1.361,3.292 3.18,3.292 C -1.586,3.292 -0.062,1.818 0,0"
             style="fill:#1a2e35;fill-opacity:1;fill-rule:nonzero;stroke:none"
             id="path280" />
        </g>
        <g
           id="g282"
           transform="translate(214.5645,237.7388)">
          <path
             d="m 0,0 c 0.062,-1.818 -1.362,-3.292 -3.18,-3.292 -1.819,0 -3.343,1.474 -3.404,3.292 -0.062,1.818 1.361,3.292 3.18,3.292 C -1.586,3.292 -0.062,1.818 0,0"
             style="fill:#1a2e35;fill-opacity:1;fill-rule:nonzero;stroke:none"
             id="path284" />
        </g>
      </g>
    </g>
    <g
       id="g286">
      <g
         id="g288"
         clip-path="url(#clipPath292)">
        <g
           id="g294"
           transform="translate(333.9102,325.7197)">
          <path
             d="m 0,0 c 1.333,-2.135 2.436,-4.185 3.579,-6.312 1.139,-2.106 2.17,-4.272 3.18,-6.456 1.989,-4.383 3.769,-8.904 5.099,-13.731 0.178,-0.592 0.314,-1.22 0.463,-1.835 l 0.219,-0.926 0.108,-0.462 0.13,-0.762 c 0.286,-2.032 0.035,-3.689 -0.312,-5.151 -0.717,-2.914 -1.873,-5.238 -3.112,-7.456 -2.528,-4.391 -5.481,-8.131 -8.885,-11.674 l -4.211,3.188 c 2.076,3.94 4.128,8.068 5.637,12.037 0.73,1.974 1.346,3.983 1.526,5.632 0.088,0.811 0.029,1.508 -0.083,1.767 l -0.395,1.223 c -0.164,0.501 -0.31,1 -0.508,1.506 -1.441,4.035 -3.274,8.088 -5.269,12.084 -1.968,3.981 -4.147,8.034 -6.293,11.817 z"
             style="fill:#ff8c7b;fill-opacity:1;fill-rule:nonzero;stroke:none"
             id="path296" />
        </g>
        <g
           id="g298"
           transform="translate(331.2358,275.5747)">
          <path
             d="m 0,0 -4.591,-2.438 5.278,-6.18 c 0,0 3.295,2.229 3.443,5.633 z"
             style="fill:#ff8c7b;fill-opacity:1;fill-rule:nonzero;stroke:none"
             id="path300" />
        </g>
        <g
           id="g302"
           transform="translate(320.4658,269.3271)">
          <path
             d="M 0,0 5.656,-4.488 11.457,-2.37 6.179,3.81 Z"
             style="fill:#ff8c7b;fill-opacity:1;fill-rule:nonzero;stroke:none"
             id="path304" />
        </g>
        <g
           id="g306"
           transform="translate(301.1509,358.4355)">
          <path
             d="m 0,0 c -0.113,-0.556 -0.499,-0.947 -0.863,-0.873 -0.363,0.074 -0.566,0.584 -0.453,1.141 0.113,0.555 0.499,0.946 0.862,0.872 C -0.09,1.066 0.113,0.556 0,0"
             style="fill:#1a2e35;fill-opacity:1;fill-rule:nonzero;stroke:none"
             id="path308" />
        </g>
        <g
           id="g310"
           transform="translate(300.7026,357.4785)">
          <path
             d="m 0,0 c 0,0 -1.916,-2.951 -3.622,-4.215 0.797,-1.118 2.554,-1.038 2.554,-1.038 z"
             style="fill:#ff5551;fill-opacity:1;fill-rule:nonzero;stroke:none"
             id="path312" />
        </g>
        <g
           id="g314"
           transform="translate(298.9014,337.8618)">
          <path
             d="m 0,0 0.043,6.554 8.68,-1.049 c 0,0 -0.149,-5.636 -4.996,-7.292 z"
             style="fill:#ff8c7b;fill-opacity:1;fill-rule:nonzero;stroke:none"
             id="path316" />
        </g>
        <g
           id="g318"
           transform="translate(301.3955,349.1362)">
          <path
             d="m 0,0 6.112,-1.756 0.117,-4.013 -8.68,1.049 z"
             style="fill:#ff8c7b;fill-opacity:1;fill-rule:nonzero;stroke:none"
             id="path320" />
        </g>
        <g
           id="g322">
          <g
             id="g324" />
          <g
             id="g336">
            <g
               clip-path="url(#clipPath328)"
               opacity="0.199997"
               id="g334">
              <g
                 transform="translate(307.5098,347.3799)"
                 id="g332">
                <path
                   d="M 0,0 -6.11,1.76 -7.3,-0.52 c 0.15,-3.87 2.51,-7.05 5.64,-8.48 1.7,2.23 1.77,4.99 1.77,4.99 z"
                   style="fill:#000000;fill-opacity:1;fill-rule:nonzero;stroke:none"
                   id="path330" />
              </g>
            </g>
          </g>
        </g>
        <g
           id="g338"
           transform="translate(303.814,361.1089)">
          <path
             d="M 0,0 C 0.081,0 0.162,0.029 0.227,0.088 0.361,0.213 0.37,0.424 0.245,0.56 -1.006,1.913 -2.524,1.673 -2.59,1.662 -2.771,1.631 -2.894,1.459 -2.862,1.278 -2.831,1.097 -2.657,0.976 -2.479,1.005 -2.43,1.013 -1.243,1.187 -0.245,0.107 -0.179,0.036 -0.09,0 0,0"
             style="fill:#1a2e35;fill-opacity:1;fill-rule:nonzero;stroke:none"
             id="path340" />
        </g>
        <g
           id="g342"
           transform="translate(316.5903,348.3169)">
          <path
             d="m 0,0 c -1.009,-5.146 -1.618,-12.275 1.982,-15.709 0,0 -1.406,-5.22 -10.967,-5.22 -10.514,0 -5.058,4.581 -5.058,4.581 4.369,1.357 4.332,6.335 3.332,10.333 z"
             style="fill:#ff8c7b;fill-opacity:1;fill-rule:nonzero;stroke:none"
             id="path344" />
        </g>
        <g
           id="g346"
           transform="translate(320.5415,329.1665)">
          <path
             d="m 0,0 c 0.937,1.326 0.899,5.516 -0.101,6.254 -1.613,1.194 -8.516,1.468 -17.816,-0.671 1.002,-4.057 -1.142,-6.185 -1.142,-6.185 z"
             style="fill:#007cff;fill-opacity:1;fill-rule:nonzero;stroke:none"
             id="path348" />
        </g>
        <g
           id="g350"
           transform="translate(350.6509,92.8872)">
          <path
             d="m 0,0 c -0.072,-0.016 -0.138,-0.037 -0.196,-0.065 -0.132,-0.063 -0.215,-0.156 -0.253,-0.284 -0.089,-0.3 0.022,-0.395 0.059,-0.425 0.378,-0.322 1.782,-0.026 2.772,0.37 C 1.711,-0.167 0.625,0.135 0,0 m 1.145,-1.124 c -0.706,-0.153 -1.412,-0.193 -1.751,0.096 -0.143,0.121 -0.287,0.354 -0.162,0.774 0.066,0.22 0.21,0.385 0.429,0.49 C 0.611,0.689 2.793,-0.2 2.886,-0.238 2.947,-0.264 2.987,-0.322 2.989,-0.388 2.991,-0.453 2.954,-0.514 2.895,-0.542 2.561,-0.704 1.853,-0.971 1.145,-1.124"
             style="fill:#007cff;fill-opacity:1;fill-rule:nonzero;stroke:none"
             id="path352" />
        </g>
        <g
           id="g354"
           transform="translate(351.5181,94.8184)">
          <path
             d="M 0,0 C -0.024,-0.005 -0.049,-0.012 -0.073,-0.021 -0.279,-0.092 -0.276,-0.193 -0.275,-0.236 -0.264,-0.708 0.859,-1.656 1.683,-2.04 1.477,-1.478 1.007,-0.369 0.404,-0.062 0.267,0.009 0.134,0.029 0,0 M 1.99,-2.486 C 1.964,-2.492 1.936,-2.491 1.909,-2.483 1.113,-2.251 -0.588,-1.042 -0.608,-0.245 -0.612,-0.1 -0.562,0.162 -0.182,0.294 0.064,0.38 0.312,0.36 0.556,0.235 1.496,-0.245 2.09,-2.193 2.115,-2.276 2.132,-2.334 2.117,-2.397 2.073,-2.441 2.05,-2.464 2.021,-2.48 1.99,-2.486"
             style="fill:#007cff;fill-opacity:1;fill-rule:nonzero;stroke:none"
             id="path356" />
        </g>
        <g
           id="g358"
           transform="translate(298.749,91.9468)">
          <path
             d="M 0,0 C -0.117,0 -0.226,-0.012 -0.322,-0.038 -0.476,-0.08 -0.583,-0.156 -0.648,-0.271 -0.766,-0.478 -0.723,-0.581 -0.681,-0.639 -0.354,-1.094 1.424,-1.104 2.732,-0.92 2.08,-0.585 0.822,0 0,0 m 1.115,-1.364 c -0.902,0 -1.774,0.124 -2.066,0.53 -0.103,0.142 -0.183,0.383 0.014,0.728 0.109,0.193 0.288,0.324 0.527,0.39 C 0.761,0.602 3.219,-0.799 3.324,-0.858 3.383,-0.893 3.416,-0.961 3.405,-1.03 3.394,-1.099 3.341,-1.153 3.273,-1.167 2.824,-1.256 1.957,-1.364 1.115,-1.364"
             style="fill:#007cff;fill-opacity:1;fill-rule:nonzero;stroke:none"
             id="path360" />
        </g>
        <g
           id="g362"
           transform="translate(300.2729,93.6284)">
          <path
             d="M 0,0 C -0.033,0 -0.066,-0.001 -0.1,-0.005 -0.399,-0.036 -0.419,-0.153 -0.425,-0.192 -0.502,-0.669 0.641,-1.865 1.507,-2.386 1.417,-1.832 1.166,-0.699 0.579,-0.216 0.402,-0.071 0.211,0 0,0 m 1.716,-2.852 c -0.023,0 -0.046,0.005 -0.068,0.016 -0.849,0.38 -2.53,1.901 -2.402,2.697 0.03,0.186 0.163,0.419 0.62,0.466 C 0.208,0.361 0.517,0.265 0.79,0.041 1.685,-0.694 1.875,-2.589 1.882,-2.669 1.888,-2.728 1.862,-2.786 1.813,-2.82 1.785,-2.841 1.75,-2.852 1.716,-2.852"
             style="fill:#007cff;fill-opacity:1;fill-rule:nonzero;stroke:none"
             id="path364" />
        </g>
        <g
           id="g366"
           transform="translate(309.7236,90.9438)">
          <path
             d="m 0,0 h -7.034 l -0.7,16.289 H -0.7 Z"
             style="fill:#ff8c7b;fill-opacity:1;fill-rule:nonzero;stroke:none"
             id="path368" />
        </g>
        <g
           id="g370"
           transform="translate(361.3491,94.2002)">
          <path
             d="m 0,0 -6.875,-1.488 -6.901,15.171 6.874,1.488 z"
             style="fill:#ff8c7b;fill-opacity:1;fill-rule:nonzero;stroke:none"
             id="path372" />
        </g>
        <g
           id="g374"
           transform="translate(353.814,93.4019)">
          <path
             d="M 0,0 7.723,1.672 C 8.004,1.733 8.29,1.59 8.41,1.33 l 2.681,-5.817 C 11.369,-5.09 11.001,-5.798 10.349,-5.928 7.643,-6.465 6.299,-6.59 2.902,-7.326 0.813,-7.778 -3.904,-8.927 -6.79,-9.552 c -2.822,-0.611 -3.88,2.147 -2.754,2.661 5.045,2.306 7.154,4.335 8.52,6.227 C -0.778,-0.323 -0.411,-0.089 0,0"
             style="fill:#1a2e35;fill-opacity:1;fill-rule:nonzero;stroke:none"
             id="path376" />
        </g>
        <g
           id="g378"
           transform="translate(302.7363,91.7583)">
          <path
             d="M 0,0 H 7.681 C 7.969,0 8.218,-0.2 8.28,-0.48 l 1.389,-6.252 c 0.144,-0.649 -0.348,-1.263 -1.011,-1.252 -2.771,0.047 -6.775,0.21 -10.258,0.21 -4.072,0 -7.589,-0.222 -12.364,-0.222 -2.888,0 -3.689,2.919 -2.481,3.184 5.503,1.203 9.996,1.332 14.751,4.264 C -1.178,-0.229 -0.607,0 0,0"
             style="fill:#1a2e35;fill-opacity:1;fill-rule:nonzero;stroke:none"
             id="path380" />
        </g>
        <g
           id="g382"
           transform="translate(331.1665,331.0176)">
          <path
             d="M 0,0 C 6.593,-1.511 12.028,-18.34 12.028,-18.34 L -1.21,-28.431 c 0,0 -4.859,4.581 -7.022,13 C -10.498,-6.611 -6.74,1.545 0,0"
             style="fill:#007cff;fill-opacity:1;fill-rule:nonzero;stroke:none"
             id="path384" />
        </g>
        <g
           id="g386">
          <g
             id="g388" />
          <g
             id="g400">
            <g
               clip-path="url(#clipPath392)"
               opacity="0.399994"
               id="g398">
              <g
                 transform="translate(331.1665,331.0176)"
                 id="g396">
                <path
                   d="M 0,0 C 6.593,-1.511 12.028,-18.34 12.028,-18.34 L -1.21,-28.431 c 0,0 -4.859,4.581 -7.022,13 C -10.498,-6.611 -6.74,1.545 0,0"
                   style="fill:#000000;fill-opacity:1;fill-rule:nonzero;stroke:none"
                   id="path394" />
              </g>
            </g>
          </g>
        </g>
        <g
           id="g402"
           transform="translate(296.5015,310.9331)">
          <path
             d="M 0,0 C -1.645,-1.775 -3.285,-3.354 -4.984,-4.979 -5.828,-5.787 -6.689,-6.58 -7.57,-7.356 l -1.329,-1.163 -0.334,-0.289 c -0.162,-0.139 -0.359,-0.304 -0.57,-0.466 -0.44,-0.325 -0.922,-0.705 -1.932,-1.141 -0.535,-0.206 -1.223,-0.478 -2.432,-0.502 -0.575,-0.009 -1.355,0.09 -2.101,0.373 -0.76,0.281 -1.496,0.769 -2,1.272 -1.046,1.05 -1.363,1.973 -1.568,2.589 -0.191,0.637 -0.247,1.09 -0.286,1.487 -0.063,0.776 -0.023,1.301 0.02,1.788 0.047,0.48 0.113,0.895 0.186,1.287 0.294,1.542 0.71,2.786 1.162,4.031 0.457,1.234 0.962,2.418 1.553,3.614 0.635,1.274 1.248,2.198 1.859,3.264 2.471,4.129 5.371,7.901 8.452,11.457 3.148,3.531 6.452,6.759 10.251,9.717 L 7.042,26.175 C 4.457,22.717 1.915,19.009 -0.435,15.354 -2.782,11.671 -4.959,7.92 -6.833,4.108 -7.266,3.166 -7.798,2.134 -8.098,1.346 -8.449,0.485 -8.771,-0.441 -9.036,-1.351 c -0.262,-0.9 -0.472,-1.838 -0.568,-2.526 -0.021,-0.166 -0.032,-0.311 -0.032,-0.395 -0.003,-0.078 0.017,-0.12 0.008,0.092 -0.011,0.117 -0.021,0.289 -0.129,0.655 -0.122,0.348 -0.312,1.007 -1.154,1.859 -0.407,0.4 -1.017,0.817 -1.648,1.044 -0.611,0.239 -1.251,0.309 -1.684,0.307 -0.925,-0.021 -1.338,-0.21 -1.612,-0.308 -0.49,-0.211 -0.5,-0.269 -0.495,-0.247 l 0.383,0.35 1.201,1.101 2.391,2.239 c 1.582,1.491 3.174,3.081 4.677,4.556 z"
             style="fill:#ff8c7b;fill-opacity:1;fill-rule:nonzero;stroke:none"
             id="path404" />
        </g>
        <g
           id="g406">
          <g
             id="g408" />
          <g
             id="g420">
            <g
               clip-path="url(#clipPath412)"
               opacity="0.199997"
               id="g418">
              <g
                 transform="translate(325.5166,318.6416)"
                 id="g416">
                <path
                   d="m 0,0 c 3.581,-3.543 4.749,-9.996 5.027,-15.606 l -0.584,-0.451 c 0,0 -4.864,4.587 -7.028,13.003 -0.134,0.526 -0.249,1.053 -0.345,1.57 z"
                   style="fill:#000000;fill-opacity:1;fill-rule:nonzero;stroke:none"
                   id="path414" />
              </g>
            </g>
          </g>
        </g>
        <g
           id="g422"
           transform="translate(289.5083,323.9653)">
          <path
             d="m 0,0 c -1.437,-7.599 -2.337,-23.204 1.836,-54.105 h 37.622 c 0.259,5.774 -3.37,33.946 2.2,61.157 0,0 -6.448,1.295 -12.594,1.591 C 24.257,8.875 17.298,9.028 13.072,8.642 11.308,8.481 9.577,8.227 8.034,7.954 3.966,7.234 0.768,4.059 0,0"
             style="fill:#007cff;fill-opacity:1;fill-rule:nonzero;stroke:none"
             id="path424" />
        </g>
        <g
           id="g426">
          <g
             id="g428" />
          <g
             id="g440">
            <g
               clip-path="url(#clipPath432)"
               opacity="0.399994"
               id="g438">
              <g
                 transform="translate(289.5083,323.9653)"
                 id="g436">
                <path
                   d="m 0,0 c -1.437,-7.599 -2.337,-23.204 1.836,-54.105 h 37.622 c 0.259,5.774 -3.37,33.946 2.2,61.157 0,0 -6.448,1.295 -12.594,1.591 C 24.257,8.875 17.298,9.028 13.072,8.642 11.308,8.481 9.577,8.227 8.034,7.954 3.966,7.234 0.768,4.059 0,0"
                   style="fill:#000000;fill-opacity:1;fill-rule:nonzero;stroke:none"
                   id="path434" />
              </g>
            </g>
          </g>
        </g>
        <g
           id="g442">
          <g
             id="g444" />
          <g
             id="g456">
            <g
               clip-path="url(#clipPath448)"
               opacity="0.199997"
               id="g454">
              <g
                 transform="translate(295.2651,312.7339)"
                 id="g452">
                <path
                   d="m 0,0 -6.798,1.628 c -0.21,-4.117 -0.229,-9.22 0.077,-15.53 C -3.59,-10.34 0.402,-4.787 0,0"
                   style="fill:#000000;fill-opacity:1;fill-rule:nonzero;stroke:none"
                   id="path450" />
              </g>
            </g>
          </g>
        </g>
        <g
           id="g458">
          <g
             id="g460" />
          <g
             id="g472">
            <g
               clip-path="url(#clipPath464)"
               opacity="0.199997"
               id="g470">
              <g
                 transform="translate(301.9912,107.228)"
                 id="g468">
                <path
                   d="M 0,0 0.359,-8.396 H 7.396 L 7.037,0 Z"
                   style="fill:#000000;fill-opacity:1;fill-rule:nonzero;stroke:none"
                   id="path466" />
              </g>
            </g>
          </g>
        </g>
        <g
           id="g474">
          <g
             id="g476" />
          <g
             id="g488">
            <g
               clip-path="url(#clipPath480)"
               opacity="0.199997"
               id="g486">
              <g
                 transform="translate(354.4507,109.3682)"
                 id="g484">
                <path
                   d="m 0,0 -6.877,-1.489 3.561,-7.82 6.877,1.489 z"
                   style="fill:#000000;fill-opacity:1;fill-rule:nonzero;stroke:none"
                   id="path482" />
              </g>
            </g>
          </g>
        </g>
        <g
           id="g490"
           transform="translate(319.9341,355.8447)">
          <path
             d="m 0,0 c -1.807,-6.743 -2.522,-10.781 -6.683,-13.584 -6.259,-4.218 -14.051,0.622 -14.296,7.769 -0.219,6.433 2.773,16.379 10.009,17.737 C -3.841,13.261 1.807,6.743 0,0"
             style="fill:#ff8c7b;fill-opacity:1;fill-rule:nonzero;stroke:none"
             id="path492" />
        </g>
        <g
           id="g494"
           transform="translate(304.1475,355.5864)">
          <path
             d="M 0,0 C -0.334,0.904 -1.893,7.872 -0.43,9.681 1.033,11.489 17.682,10.188 20.144,7.766 24.228,3.747 21.395,0.16 16.923,-4.468 13.561,-7.948 13.431,-11.871 11.735,-12.447 8.763,-13.456 4.154,-12.507 3.23,-9.335 2.305,-6.162 0,0 0,0"
             style="fill:#1a2e35;fill-opacity:1;fill-rule:nonzero;stroke:none"
             id="path496" />
        </g>
        <g
           id="g498"
           transform="translate(322.2734,371.2778)">
          <path
             d="m 0,0 c -5.885,2.505 -16.917,-0.266 -22.875,1.17 -0.212,-3.085 1.649,-8.032 7.606,-9.361 0,0 8.458,-1.649 15,-1.384 C 6.274,-9.309 4.998,-2.127 0,0"
             style="fill:#1a2e35;fill-opacity:1;fill-rule:nonzero;stroke:none"
             id="path500" />
        </g>
        <g
           id="g502"
           transform="translate(323.1943,363.1387)">
          <path
             d="M 0,0 C 0,0 3.639,-0.41 6.222,1.195 7.327,-1.464 1.278,-2.194 0,0"
             style="fill:#1a2e35;fill-opacity:1;fill-rule:nonzero;stroke:none"
             id="path504" />
        </g>
        <g
           id="g506"
           transform="translate(307.3535,355.3091)">
          <path
             d="m 0,0 c -0.109,-1.825 -0.956,-3.542 -1.976,-4.666 -1.533,-1.688 -3.133,-0.637 -3.405,1.42 -0.244,1.852 0.258,4.963 2.133,5.895 C -1.4,3.567 0.125,2.087 0,0"
             style="fill:#ff8c7b;fill-opacity:1;fill-rule:nonzero;stroke:none"
             id="path508" />
        </g>
        <g
           id="g510"
           transform="translate(304.6904,269.8599)">
          <path
             d="m 0,0 c 0,0 7.982,-53.753 12.365,-73.891 4.799,-22.053 30.531,-95.014 30.531,-95.014 l 12.591,2.726 c 0,0 -17.993,59.458 -22.021,90.288 C 30.372,-52.208 24.276,0 24.276,0 Z"
             style="fill:#007cff;fill-opacity:1;fill-rule:nonzero;stroke:none"
             id="path512" />
        </g>
        <g
           id="g514"
           transform="translate(344.5708,105.1582)">
          <path
             d="m 0,0 c -0.054,-0.012 2.347,-4.553 2.347,-4.553 l 14.166,3.067 -1.194,4.258 z"
             style="fill:#1a2e35;fill-opacity:1;fill-rule:nonzero;stroke:none"
             id="path516" />
        </g>
        <g
           id="g518">
          <g
             id="g520" />
          <g
             id="g532">
            <g
               clip-path="url(#clipPath524)"
               opacity="0.300003"
               id="g530">
              <g
                 transform="translate(309.7354,250.7075)"
                 id="g528">
                <path
                   d="M 0,0 C 9.23,-1.81 8.253,-36.23 7.143,-53.933 4.481,-41.419 0.584,-17.339 -2.078,-0.249 -1.465,0.058 -0.776,0.153 0,0"
                   style="fill:#000000;fill-opacity:1;fill-rule:nonzero;stroke:none"
                   id="path526" />
              </g>
            </g>
          </g>
        </g>
        <g
           id="g534"
           transform="translate(291.3447,269.8599)">
          <path
             d="m 0,0 c 0,0 -0.969,-52.59 -0.204,-74.04 0.796,-22.31 8.589,-95.362 8.589,-95.362 H 20.3 c 0,0 0.438,71.748 0.968,93.66 C 21.846,-51.855 24.73,0 24.73,0 Z"
             style="fill:#007cff;fill-opacity:1;fill-rule:nonzero;stroke:none"
             id="path536" />
        </g>
        <g
           id="g538"
           transform="translate(297.437,105.2041)">
          <path
             d="m 0,0 c -0.055,0 0.672,-4.947 0.672,-4.947 h 14.495 l 0.392,4.415 z"
             style="fill:#1a2e35;fill-opacity:1;fill-rule:nonzero;stroke:none"
             id="path540" />
        </g>
        <g
           id="g542"
           transform="translate(304.2515,321.6577)">
          <path
             d="m 0,0 c 3.373,-9.089 -16.441,-19.795 -16.441,-19.795 l -8.579,11.028 c 0,0 5.723,11.391 12.746,16.525 C -3.598,14.101 -2.567,6.919 0,0"
             style="fill:#007cff;fill-opacity:1;fill-rule:nonzero;stroke:none"
             id="path544" />
        </g>
        <g
           id="g546">
          <g
             id="g548" />
          <g
             id="g560">
            <g
               clip-path="url(#clipPath552)"
               opacity="0.399994"
               id="g558">
              <g
                 transform="translate(304.2515,321.6577)"
                 id="g556">
                <path
                   d="m 0,0 c 3.373,-9.089 -16.441,-19.795 -16.441,-19.795 l -8.579,11.028 c 0,0 5.723,11.391 12.746,16.525 C -3.598,14.101 -2.567,6.919 0,0"
                   style="fill:#000000;fill-opacity:1;fill-rule:nonzero;stroke:none"
                   id="path554" />
              </g>
            </g>
          </g>
        </g>
      </g>
    </g>
    <g
       id="g562">
      <g
         id="g564"
         clip-path="url(#clipPath568)">
        <g
           id="g570"
           transform="translate(417.9614,413.6665)">
          <path
             d="m 0,0 c 0,-12.703 -16.157,-23 -36.087,-23 -19.93,0 -36.087,10.297 -36.087,23 0,12.703 16.157,23 36.087,23 C -16.157,23 0,12.703 0,0"
             style="fill:#007cff;fill-opacity:1;fill-rule:nonzero;stroke:none"
             id="path572" />
        </g>
        <g
           id="g574"
           transform="translate(368.8887,417.5996)">
          <path
             d="m 0,0 c -0.369,0 -0.74,-0.038 -1.11,-0.114 -1.414,-0.292 -2.63,-1.116 -3.423,-2.32 -0.793,-1.205 -1.07,-2.649 -0.778,-4.065 0.292,-1.413 1.117,-2.628 2.324,-3.422 1.206,-0.794 2.649,-1.071 4.062,-0.779 1.416,0.292 2.632,1.118 3.425,2.324 0.792,1.205 1.067,2.647 0.775,4.062 C 4.982,-2.897 4.159,-1.68 2.955,-0.889 2.065,-0.303 1.044,0 0,0 m -0.029,-11.813 c -1.239,0 -2.45,0.36 -3.508,1.056 -1.43,0.941 -2.407,2.381 -2.752,4.056 -0.347,1.678 -0.02,3.389 0.921,4.817 0.94,1.427 2.381,2.404 4.056,2.749 1.678,0.347 3.389,0.021 4.817,-0.918 1.427,-0.939 2.403,-2.381 2.749,-4.059 0.347,-1.676 0.02,-3.385 -0.918,-4.813 -0.94,-1.43 -2.381,-2.408 -4.06,-2.754 -0.434,-0.09 -0.872,-0.134 -1.305,-0.134 M -2.041,3.473 c -4.639,-1.054 -7.754,-5.728 -6.943,-10.42 0.422,-2.454 1.788,-4.577 3.842,-5.977 2.055,-1.401 4.528,-1.896 6.964,-1.393 3.865,0.797 6.762,3.967 7.206,7.887 l 0.041,0.361 8.085,1.669 c 0.467,0.096 0.95,-0.017 1.325,-0.311 0.375,-0.293 0.601,-0.734 0.621,-1.209 l 0.046,-1.137 c 0.01,-0.288 0.215,-0.535 0.475,-0.573 0.891,-0.133 1.659,-0.654 2.11,-1.43 0.111,-0.19 0.32,-0.373 0.588,-0.318 l 0.467,0.096 c 0.265,0.054 0.388,0.307 0.414,0.525 0.15,1.257 1.087,2.274 2.333,2.53 1.242,0.257 2.501,-0.307 3.135,-1.401 0.11,-0.19 0.318,-0.376 0.587,-0.319 l 0.477,0.098 c 0.265,0.055 0.387,0.307 0.412,0.524 0.104,0.891 0.601,1.674 1.364,2.147 0.223,0.139 0.313,0.447 0.21,0.715 L 31.31,-3.4 c -0.171,0.444 -0.138,0.939 0.09,1.357 0.229,0.418 0.627,0.712 1.094,0.808 l 0.609,0.126 c 0.675,0.139 1.248,0.539 1.612,1.125 0.364,0.586 0.468,1.277 0.293,1.948 -0.33,1.258 -1.713,2.054 -3.078,1.77 L 8.061,-1.192 7.881,-0.878 C 5.879,2.617 1.897,4.369 -2.041,3.473 m 1.998,-18.982 c -2.005,0 -3.962,0.6 -5.662,1.759 -2.28,1.553 -3.795,3.909 -4.266,6.633 -0.898,5.207 2.56,10.395 7.709,11.566 C 1.979,5.41 6.284,3.603 8.562,-0.068 l 23.167,4.781 c 1.876,0.388 3.784,-0.732 4.246,-2.496 0.245,-0.939 0.099,-1.907 -0.411,-2.729 -0.51,-0.821 -1.312,-1.381 -2.259,-1.576 l -0.609,-0.126 c -0.181,-0.037 -0.33,-0.147 -0.418,-0.309 -0.088,-0.16 -0.1,-0.349 -0.035,-0.519 l 0.408,-1.062 c 0.278,-0.719 0.019,-1.528 -0.616,-1.923 -0.494,-0.307 -0.83,-0.836 -0.897,-1.414 -0.082,-0.708 -0.555,-1.253 -1.204,-1.387 l -0.477,-0.098 c -0.647,-0.133 -1.297,0.178 -1.654,0.796 -0.418,0.722 -1.248,1.093 -2.069,0.924 -0.823,-0.17 -1.442,-0.841 -1.542,-1.669 -0.085,-0.709 -0.557,-1.253 -1.205,-1.387 l -0.466,-0.096 c -0.641,-0.133 -1.297,0.179 -1.655,0.796 -0.293,0.504 -0.812,0.856 -1.391,0.942 -0.74,0.11 -1.298,0.751 -1.329,1.523 L 18.1,-5.96 c -0.007,0.184 -0.091,0.348 -0.237,0.461 -0.144,0.114 -0.319,0.156 -0.507,0.119 L 9.975,-6.904 c -0.626,-4.183 -3.78,-7.532 -7.952,-8.393 -0.688,-0.142 -1.379,-0.212 -2.066,-0.212"
             style="fill:#ffffff;fill-opacity:1;fill-rule:nonzero;stroke:none"
             id="path576" />
        </g>
        <g
           id="g578">
          <g
             id="g580" />
          <g
             id="g592">
            <g
               clip-path="url(#clipPath584)"
               opacity="0.600006"
               id="g590">
              <g
                 transform="translate(364.3564,384.7422)"
                 id="g588">
                <path
                   d="m 0,0 c 0,-4.175 -5.311,-7.56 -11.861,-7.56 -6.551,0 -11.861,3.385 -11.861,7.56 0,4.175 5.31,7.56 11.861,7.56 C -5.311,7.56 0,4.175 0,0"
                   style="fill:#007cff;fill-opacity:1;fill-rule:nonzero;stroke:none"
                   id="path586" />
              </g>
            </g>
          </g>
        </g>
        <g
           id="g594">
          <g
             id="g596" />
          <g
             id="g608">
            <g
               clip-path="url(#clipPath600)"
               opacity="0.300003"
               id="g606">
              <g
                 transform="translate(338.4976,377.1826)"
                 id="g604">
                <path
                   d="m 0,0 c 0,-1.714 -2.18,-3.104 -4.869,-3.104 -2.689,0 -4.869,1.39 -4.869,3.104 0,1.714 2.18,3.103 4.869,3.103 C -2.18,3.103 0,1.714 0,0"
                   style="fill:#007cff;fill-opacity:1;fill-rule:nonzero;stroke:none"
                   id="path602" />
              </g>
            </g>
          </g>
        </g>
      </g>
    </g>
  </g>
</svg>
