<?xml version="1.0" encoding="UTF-8" standalone="no"?>
<!-- Created with Inkscape (http://www.inkscape.org/) -->

<svg
   version="1.1"
   id="svg2"
   width="666.66669"
   height="666.66669"
   viewBox="0 0 666.66669 666.66669"
   sodipodi:docname="illustration2.ai"
   xmlns:inkscape="http://www.inkscape.org/namespaces/inkscape"
   xmlns:sodipodi="http://sodipodi.sourceforge.net/DTD/sodipodi-0.dtd"
   xmlns="http://www.w3.org/2000/svg"
   xmlns:svg="http://www.w3.org/2000/svg">
  <defs
     id="defs6">
    <clipPath
       clipPathUnits="userSpaceOnUse"
       id="clipPath30">
      <path
         d="M 0,500 H 500 V 0 H 0 Z"
         id="path28" />
    </clipPath>
    <clipPath
       clipPathUnits="userSpaceOnUse"
       id="clipPath162">
      <path
         d="M 0,500 H 500 V 0 H 0 Z"
         id="path160" />
    </clipPath>
    <clipPath
       clipPathUnits="userSpaceOnUse"
       id="clipPath174">
      <path
         d="M 0,500 H 500 V 0 H 0 Z"
         id="path172" />
    </clipPath>
    <clipPath
       clipPathUnits="userSpaceOnUse"
       id="clipPath186">
      <path
         d="M 0,500 H 500 V 0 H 0 Z"
         id="path184" />
    </clipPath>
    <clipPath
       clipPathUnits="userSpaceOnUse"
       id="clipPath202">
      <path
         d="m 330.964,347.521 h 21.563 v -26.113 h -21.563 z"
         id="path200" />
    </clipPath>
    <clipPath
       clipPathUnits="userSpaceOnUse"
       id="clipPath218">
      <path
         d="m 336.212,338.82 h 6.073 v -15.866 h -6.073 z"
         id="path216" />
    </clipPath>
    <clipPath
       clipPathUnits="userSpaceOnUse"
       id="clipPath238">
      <path
         d="m 337.535,349.478 h 48.33 V 282.06 h -48.33 z"
         id="path236" />
    </clipPath>
    <clipPath
       clipPathUnits="userSpaceOnUse"
       id="clipPath254">
      <path
         d="m 334.323,84.8027 h 68.432 V 80.914 h -68.432 z"
         id="path252" />
    </clipPath>
    <clipPath
       clipPathUnits="userSpaceOnUse"
       id="clipPath302">
      <path
         d="m 338.123,323.499 h 43.345 v -35.545 h -43.345 z"
         id="path300" />
    </clipPath>
    <clipPath
       clipPathUnits="userSpaceOnUse"
       id="clipPath358">
      <path
         d="m 353.431,267.873 h 7.608 v -48.811 h -7.608 z"
         id="path356" />
    </clipPath>
    <clipPath
       clipPathUnits="userSpaceOnUse"
       id="clipPath386">
      <path
         d="m 375.83,273.913 h 13.795 V 108.878 H 375.83 Z"
         id="path384" />
    </clipPath>
    <clipPath
       clipPathUnits="userSpaceOnUse"
       id="clipPath462">
      <path
         d="m 351.889,109.175 h 16.025 v -9.6418 h -16.025 z"
         id="path460" />
    </clipPath>
    <clipPath
       clipPathUnits="userSpaceOnUse"
       id="clipPath478">
      <path
         d="m 379.002,104.894 h 16.239 v -4.424 h -16.239 z"
         id="path476" />
    </clipPath>
    <clipPath
       clipPathUnits="userSpaceOnUse"
       id="clipPath498">
      <path
         d="m 369.634,347.678 h 23.259 V 319.58 h -23.259 z"
         id="path496" />
    </clipPath>
    <clipPath
       clipPathUnits="userSpaceOnUse"
       id="clipPath524">
      <path
         d="M 0,500 H 500 V 0 H 0 Z"
         id="path522" />
    </clipPath>
    <clipPath
       clipPathUnits="userSpaceOnUse"
       id="clipPath532">
      <path
         d="M 193.107,421.434 H 322.09 V 175.715 H 193.107 Z"
         id="path530" />
    </clipPath>
    <clipPath
       clipPathUnits="userSpaceOnUse"
       id="clipPath548">
      <path
         d="M 189.584,418.062 H 318.567 V 172.343 H 189.584 Z"
         id="path546" />
    </clipPath>
    <clipPath
       clipPathUnits="userSpaceOnUse"
       id="clipPath576">
      <path
         d="M 0,500 H 500 V 0 H 0 Z"
         id="path574" />
    </clipPath>
    <clipPath
       clipPathUnits="userSpaceOnUse"
       id="clipPath584">
      <path
         d="m 215.662,215.964 h 68.736 v -22.539 h -68.736 z"
         id="path582" />
    </clipPath>
    <clipPath
       clipPathUnits="userSpaceOnUse"
       id="clipPath656">
      <path
         d="m 247.503,390.545 h 20.744 v -20.722 h -20.744 z"
         id="path654" />
    </clipPath>
    <clipPath
       clipPathUnits="userSpaceOnUse"
       id="clipPath672">
      <path
         d="m 236.097,364.551 h 41.444 v -18.548 h -41.444 z"
         id="path670" />
    </clipPath>
    <clipPath
       clipPathUnits="userSpaceOnUse"
       id="clipPath688">
      <path
         d="M 0,500 H 500 V 0 H 0 Z"
         id="path686" />
    </clipPath>
    <clipPath
       clipPathUnits="userSpaceOnUse"
       id="clipPath744">
      <path
         d="m 136.688,304.214 h 20.927 v -5.639 h -20.927 z"
         id="path742" />
    </clipPath>
    <clipPath
       clipPathUnits="userSpaceOnUse"
       id="clipPath780">
      <path
         d="m 127.01,252.012 h 46.235 V 132.227 H 127.01 Z"
         id="path778" />
    </clipPath>
    <clipPath
       clipPathUnits="userSpaceOnUse"
       id="clipPath796">
      <path
         d="m 160.891,235.258 h 12.356 v -56.355 h -12.356 z"
         id="path794" />
    </clipPath>
    <clipPath
       clipPathUnits="userSpaceOnUse"
       id="clipPath816">
      <path
         d="m 133.949,252.012 h 60.678 v -122.54 h -60.678 z"
         id="path814" />
    </clipPath>
    <clipPath
       clipPathUnits="userSpaceOnUse"
       id="clipPath836">
      <path
         d="m 127.527,292.006 h 7.581 v -13.424 h -7.581 z"
         id="path834" />
    </clipPath>
    <clipPath
       clipPathUnits="userSpaceOnUse"
       id="clipPath908">
      <path
         d="m 129.973,254.121 h 34.461 v -3.538 h -34.461 z"
         id="path906" />
    </clipPath>
    <clipPath
       clipPathUnits="userSpaceOnUse"
       id="clipPath932">
      <path
         d="m 108.755,84.8017 h 53.583 V 80.913 h -53.583 z"
         id="path930" />
    </clipPath>
    <clipPath
       clipPathUnits="userSpaceOnUse"
       id="clipPath960">
      <path
         d="m 117.448,204.753 h 36.219 v -4.547 h -36.219 z"
         id="path958" />
    </clipPath>
  </defs>
  <sodipodi:namedview
     id="namedview4"
     pagecolor="#ffffff"
     bordercolor="#000000"
     borderopacity="0.25"
     inkscape:showpageshadow="2"
     inkscape:pageopacity="0.0"
     inkscape:pagecheckerboard="0"
     inkscape:deskcolor="#d1d1d1" />
  <g
     id="g8"
     inkscape:groupmode="layer"
     inkscape:label="illustration2"
     transform="matrix(1.3333333,0,0,-1.3333333,0,666.66667)">
    <path
       d="m 0,117.352 h 500 v 0.249 H 0 Z"
       style="fill:#e7e7e7;fill-opacity:1;fill-rule:nonzero;stroke:none"
       id="path10" />
    <path
       d="m 91.705,102.223 h 33.122 v 0.25 H 91.705 Z"
       style="fill:#e7e7e7;fill-opacity:1;fill-rule:nonzero;stroke:none"
       id="path12" />
    <path
       d="m 62.029,102.223 h 19.193 v 0.25 H 62.029 Z"
       style="fill:#e7e7e7;fill-opacity:1;fill-rule:nonzero;stroke:none"
       id="path14" />
    <path
       d="m 191.363,98.542 h 19.192 v 0.25 h -19.192 z"
       style="fill:#e7e7e7;fill-opacity:1;fill-rule:nonzero;stroke:none"
       id="path16" />
    <path
       d="m 267.424,92.959 h 43.193 v 0.25 h -43.193 z"
       style="fill:#e7e7e7;fill-opacity:1;fill-rule:nonzero;stroke:none"
       id="path18" />
    <path
       d="m 252.187,92.959 h 6.333 v 0.25 h -6.333 z"
       style="fill:#e7e7e7;fill-opacity:1;fill-rule:nonzero;stroke:none"
       id="path20" />
    <path
       d="m 359.667,98.542 h 93.676 v 0.25 h -93.676 z"
       style="fill:#e7e7e7;fill-opacity:1;fill-rule:nonzero;stroke:none"
       id="path22" />
    <g
       id="g24">
      <g
         id="g26"
         clip-path="url(#clipPath30)">
        <g
           id="g32"
           transform="translate(43.915,444.7974)">
          <path
             d="m 0,0 c -3.01,0 -5.458,-2.448 -5.458,-5.458 v -271.431 c 0,-3.01 2.448,-5.458 5.458,-5.458 h 193.099 c 3.008,0 5.457,2.448 5.457,5.458 V -5.458 c 0,3.01 -2.449,5.458 -5.457,5.458 z M 193.099,-282.597 H 0 c -3.147,0 -5.708,2.56 -5.708,5.708 V -5.458 c 0,3.147 2.561,5.708 5.708,5.708 h 193.099 c 3.146,0 5.707,-2.561 5.707,-5.708 v -271.431 c 0,-3.148 -2.561,-5.708 -5.707,-5.708"
             style="fill:#e7e7e7;fill-opacity:1;fill-rule:nonzero;stroke:none"
             id="path34" />
        </g>
        <g
           id="g36"
           transform="translate(260.2119,444.7974)">
          <path
             d="m 0,0 c -3.009,0 -5.457,-2.448 -5.457,-5.458 v -271.431 c 0,-3.01 2.448,-5.458 5.457,-5.458 h 193.099 c 3.009,0 5.458,2.448 5.458,5.458 V -5.458 c 0,3.01 -2.449,5.458 -5.458,5.458 z M 193.099,-282.597 H 0 c -3.146,0 -5.707,2.56 -5.707,5.708 V -5.458 c 0,3.147 2.561,5.708 5.707,5.708 h 193.099 c 3.147,0 5.708,-2.561 5.708,-5.708 v -271.431 c 0,-3.148 -2.561,-5.708 -5.708,-5.708"
             style="fill:#e7e7e7;fill-opacity:1;fill-rule:nonzero;stroke:none"
             id="path38" />
        </g>
        <path
           d="M 267.399,115.788 H 245.41 v 87.234 h 21.989 z"
           style="fill:#e1e1e1;fill-opacity:1;fill-rule:nonzero;stroke:none"
           id="path40" />
        <g
           id="g42"
           transform="translate(263.2227,115.7881)">
          <path
             d="M 0,0 H 4.177 V 11.88 H -4.379 Z"
             style="fill:#fafafa;fill-opacity:1;fill-rule:nonzero;stroke:none"
             id="path44" />
        </g>
        <path
           d="m 171.044,115.788 h -21.989 v 87.234 h 21.989 z"
           style="fill:#e1e1e1;fill-opacity:1;fill-rule:nonzero;stroke:none"
           id="path46" />
        <path
           d="m 267.399,123.078 h -100 v 79.944 h 100 z"
           style="fill:#fafafa;fill-opacity:1;fill-rule:nonzero;stroke:none"
           id="path48" />
        <path
           d="m 264.159,199.479 h -93.521 v -21.924 h 93.521 z m -0.386,-21.537 h -92.749 v 21.15 h 92.749 z"
           style="fill:#e1e1e1;fill-opacity:1;fill-rule:nonzero;stroke:none"
           id="path50" />
        <g
           id="g52"
           transform="translate(171.5752,115.7881)">
          <path
             d="M 0,0 H -4.176 V 11.88 H 4.379 Z"
             style="fill:#fafafa;fill-opacity:1;fill-rule:nonzero;stroke:none"
             id="path54" />
        </g>
        <g
           id="g56"
           transform="translate(215.1875,188.5176)">
          <path
             d="m 0,0 c 0,-1.222 0.99,-2.212 2.211,-2.212 1.222,0 2.212,0.99 2.212,2.212 0,1.222 -0.99,2.212 -2.212,2.212 C 0.99,2.212 0,1.222 0,0"
             style="fill:#e7e7e7;fill-opacity:1;fill-rule:nonzero;stroke:none"
             id="path58" />
        </g>
        <path
           d="m 264.159,174.013 h -93.521 v -21.924 h 93.521 z m -0.386,-21.538 h -92.749 v 21.151 h 92.749 z"
           style="fill:#e1e1e1;fill-opacity:1;fill-rule:nonzero;stroke:none"
           id="path60" />
        <g
           id="g62"
           transform="translate(215.1875,163.0508)">
          <path
             d="m 0,0 c 0,-1.222 0.99,-2.212 2.211,-2.212 1.222,0 2.212,0.99 2.212,2.212 0,1.222 -0.99,2.211 -2.212,2.211 C 0.99,2.211 0,1.222 0,0"
             style="fill:#e7e7e7;fill-opacity:1;fill-rule:nonzero;stroke:none"
             id="path64" />
        </g>
        <path
           d="m 264.159,148.545 h -93.521 v -21.924 h 93.521 z m -0.386,-21.537 h -92.749 v 21.151 h 92.749 z"
           style="fill:#e1e1e1;fill-opacity:1;fill-rule:nonzero;stroke:none"
           id="path66" />
        <g
           id="g68"
           transform="translate(215.1875,137.583)">
          <path
             d="m 0,0 c 0,-1.221 0.99,-2.211 2.211,-2.211 1.222,0 2.212,0.99 2.212,2.211 0,1.222 -0.99,2.212 -2.212,2.212 C 0.99,2.212 0,1.222 0,0"
             style="fill:#e7e7e7;fill-opacity:1;fill-rule:nonzero;stroke:none"
             id="path70" />
        </g>
        <path
           d="M 157.61,115.788 H 135.621 V 253.684 H 157.61 Z"
           style="fill:#e1e1e1;fill-opacity:1;fill-rule:nonzero;stroke:none"
           id="path72" />
        <g
           id="g74"
           transform="translate(153.4336,115.7881)">
          <path
             d="M 0,0 H 4.177 V 11.88 H -4.379 Z"
             style="fill:#fafafa;fill-opacity:1;fill-rule:nonzero;stroke:none"
             id="path76" />
        </g>
        <path
           d="M 75.428,115.788 H 53.439 v 137.896 h 21.989 z"
           style="fill:#e1e1e1;fill-opacity:1;fill-rule:nonzero;stroke:none"
           id="path78" />
        <path
           d="M 157.61,123.078 H 71.782 v 130.606 h 85.828 z"
           style="fill:#fafafa;fill-opacity:1;fill-rule:nonzero;stroke:none"
           id="path80" />
        <path
           d="M 154.37,250.441 H 75.022 V 219.96 h 79.348 z m -0.455,-30.025 H 75.479 v 29.57 h 78.436 z"
           style="fill:#e1e1e1;fill-opacity:1;fill-rule:nonzero;stroke:none"
           id="path82" />
        <path
           d="m 154.37,217.277 h -38.272 v -79.348 h 38.272 z m -0.455,-78.891 h -37.361 v 78.436 h 37.361 z"
           style="fill:#e1e1e1;fill-opacity:1;fill-rule:nonzero;stroke:none"
           id="path84" />
        <path
           d="M 113.295,217.277 H 75.023 v -79.348 h 38.272 z m -0.456,-78.891 H 75.478 v 78.436 h 37.361 z"
           style="fill:#e1e1e1;fill-opacity:1;fill-rule:nonzero;stroke:none"
           id="path86" />
        <g
           id="g88"
           transform="translate(75.959,115.7881)">
          <path
             d="M 0,0 H -4.176 V 11.88 H 4.379 Z"
             style="fill:#fafafa;fill-opacity:1;fill-rule:nonzero;stroke:none"
             id="path90" />
        </g>
        <g
           id="g92"
           transform="translate(112.4849,235.2012)">
          <path
             d="m 0,0 c 0,-1.222 0.99,-2.212 2.211,-2.212 1.222,0 2.212,0.99 2.212,2.212 0,1.221 -0.99,2.211 -2.212,2.211 C 0.99,2.211 0,1.221 0,0"
             style="fill:#e7e7e7;fill-opacity:1;fill-rule:nonzero;stroke:none"
             id="path94" />
        </g>
        <g
           id="g96"
           transform="translate(120.4033,179.4746)">
          <path
             d="m 0,0 c 0,-1.222 0.99,-2.212 2.211,-2.212 1.222,0 2.212,0.99 2.212,2.212 0,1.222 -0.99,2.212 -2.212,2.212 C 0.99,2.212 0,1.222 0,0"
             style="fill:#e7e7e7;fill-opacity:1;fill-rule:nonzero;stroke:none"
             id="path98" />
        </g>
        <g
           id="g100"
           transform="translate(104.5664,179.4746)">
          <path
             d="m 0,0 c 0,-1.222 0.99,-2.212 2.211,-2.212 1.222,0 2.212,0.99 2.212,2.212 0,1.222 -0.99,2.212 -2.212,2.212 C 0.99,2.212 0,1.222 0,0"
             style="fill:#e7e7e7;fill-opacity:1;fill-rule:nonzero;stroke:none"
             id="path102" />
        </g>
        <g
           id="g104"
           transform="translate(102.0747,292.1313)">
          <path
             d="m 0,0 h -9.276 c 0,0 1.61,-8.575 1.61,-13.621 0,-5.046 -7.056,-24.826 3.028,-24.826 10.083,0 3.028,19.78 3.028,24.826 C -1.61,-8.575 0,0 0,0"
             style="fill:#e1e1e1;fill-opacity:1;fill-rule:nonzero;stroke:none"
             id="path106" />
        </g>
        <g
           id="g108"
           transform="translate(66.8032,271.8516)">
          <path
             d="m 0,0 v -6.027 c 0,-6.677 5.463,-12.14 12.141,-12.14 h 6.026 c 6.678,0 12.141,5.463 12.141,12.14 V 0 Z"
             style="fill:#f5f5f5;fill-opacity:1;fill-rule:nonzero;stroke:none"
             id="path110" />
        </g>
        <g
           id="g112"
           transform="translate(195.6665,215.7354)">
          <path
             d="m 0,0 c 0,-6.992 7.831,-12.713 17.403,-12.713 h 8.639 c 9.571,0 17.403,5.721 17.403,12.713 z"
             style="fill:#e1e1e1;fill-opacity:1;fill-rule:nonzero;stroke:none"
             id="path114" />
        </g>
        <g
           id="g116"
           transform="translate(424.6064,225.9707)">
          <path
             d="m 0,0 c -5.24,-4.277 -12.472,-12.109 -19.1,-23.128 -4.413,-7.338 -7.073,-15.026 -8.242,-25.185 0.026,11.499 0.062,23.854 0.102,35.514 1.331,3.001 4.371,9.916 6.552,15.38 7.276,18.231 9.987,22.714 16.532,38.44 8.728,20.973 17.674,45.861 15.113,43.872 -5.22,-4.053 -25.22,-41.504 -27.382,-46.865 -7.436,-18.44 -9.508,-31.881 -10.795,-44.852 0.041,10.951 0.084,21.008 0.125,28.766 0.134,25.309 0.565,33.477 0.775,35.996 0.809,1.28 1.765,2.772 2.321,3.576 4.698,6.793 6.511,12.58 10.936,22.712 6.274,14.357 11.676,39.847 10.096,38.561 -6.575,-5.353 -11.762,-16.862 -18.578,-31.527 -6.815,-14.664 -4.867,-23.098 -6.219,-35.623 -0.284,-2.458 -0.501,-11.733 -0.658,-24.588 -1.767,13.696 -5.084,22.721 -11.134,30.922 -7.442,10.087 -14.64,16.901 -19.923,20.459 -5.283,3.558 9.121,-21.22 16.009,-32.034 6.134,-9.632 11.784,-18.13 14.97,-26.5 -0.168,-17.422 -0.246,-39.484 -0.247,-60.02 -1.58,9.346 -4.16,19.409 -7.603,27.202 -4.135,9.363 -10.499,23.724 -15.563,28.595 -1.217,1.171 5.296,-26.76 9.475,-34.188 4.18,-7.426 7.249,-14.425 9.879,-18.635 0.614,-0.983 2.65,-4.77 3.813,-6.949 0.012,-25.07 0.139,-47.191 0.357,-54.721 h 1.083 c -0.074,1.942 -0.086,14.695 -0.063,31.574 2.608,9.165 8.573,19.623 13.496,29.165 C -8.5,-23.668 5.24,4.277 0,0"
             style="fill:#e1e1e1;fill-opacity:1;fill-rule:nonzero;stroke:none"
             id="path118" />
        </g>
        <g
           id="g120"
           transform="translate(412.4404,115.7881)">
          <path
             d="m 0,0 h -31.344 l -2.365,30.724 H 2.366 Z"
             style="fill:#f0f0f0;fill-opacity:1;fill-rule:nonzero;stroke:none"
             id="path122" />
        </g>
        <g
           id="g124"
           transform="translate(417.1416,142.9316)">
          <path
             d="m 0,0 h -40.746 l -1.167,10.366 H 1.168 Z"
             style="fill:#f5f5f5;fill-opacity:1;fill-rule:nonzero;stroke:none"
             id="path126" />
        </g>
        <path
           d="M 124.259,362.954 H 68.207 v 61.549 h 56.052 z"
           style="fill:#e1e1e1;fill-opacity:1;fill-rule:nonzero;stroke:none"
           id="path128" />
        <path
           d="M 130.331,362.954 H 72.434 v 61.549 h 57.897 z"
           style="fill:#f5f5f5;fill-opacity:1;fill-rule:nonzero;stroke:none"
           id="path130" />
        <path
           d="M 77.283,419.652 H 125.48 V 367.803 H 77.283 Z"
           style="fill:#ffffff;fill-opacity:1;fill-rule:nonzero;stroke:none"
           id="path132" />
        <path
           d="m 88.965,407.085 h 24.833 V 380.371 H 88.965 Z"
           style="fill:#f5f5f5;fill-opacity:1;fill-rule:nonzero;stroke:none"
           id="path134" />
        <path
           d="m 410.051,360.151 h -52.07 v 57.177 h 52.07 z"
           style="fill:#e1e1e1;fill-opacity:1;fill-rule:nonzero;stroke:none"
           id="path136" />
        <path
           d="m 415.69,360.151 h -53.784 v 57.177 h 53.784 z"
           style="fill:#f5f5f5;fill-opacity:1;fill-rule:nonzero;stroke:none"
           id="path138" />
        <path
           d="m 366.412,412.822 h 44.772 v -48.165 h -44.772 z"
           style="fill:#ffffff;fill-opacity:1;fill-rule:nonzero;stroke:none"
           id="path140" />
        <g
           id="g142"
           transform="translate(402.7666,388.7393)">
          <path
             d="m 0,0 c 0,-7.714 -6.254,-13.968 -13.969,-13.968 -7.714,0 -13.968,6.254 -13.968,13.968 0,7.714 6.254,13.968 13.968,13.968 C -6.254,13.968 0,7.714 0,0"
             style="fill:#f5f5f5;fill-opacity:1;fill-rule:nonzero;stroke:none"
             id="path144" />
        </g>
        <path
           d="m 182.49,342.145 h -41.581 v 45.658 h 41.581 z"
           style="fill:#e1e1e1;fill-opacity:1;fill-rule:nonzero;stroke:none"
           id="path146" />
        <path
           d="m 186.994,342.145 h -42.95 v 45.658 h 42.95 z"
           style="fill:#f5f5f5;fill-opacity:1;fill-rule:nonzero;stroke:none"
           id="path148" />
        <path
           d="m 147.642,384.205 h 35.753 v -38.462 h -35.753 z"
           style="fill:#ffffff;fill-opacity:1;fill-rule:nonzero;stroke:none"
           id="path150" />
        <g
           id="g152"
           transform="translate(165.5186,374.6968)">
          <path
             d="M 0,0 -9.778,-16.937 H 9.778 Z"
             style="fill:#f5f5f5;fill-opacity:1;fill-rule:nonzero;stroke:none"
             id="path154" />
        </g>
      </g>
    </g>
    <g
       id="g156">
      <g
         id="g158"
         clip-path="url(#clipPath162)">
        <g
           id="g164"
           transform="translate(134.4585,262.2549)">
          <path
             d="M 0,0 C 58.535,-60.354 135.467,-102.202 206.778,-34.624 243.538,0.212 292.119,94.31 244.181,137.368 178.116,196.71 140.202,99.613 90.807,86.457 56.95,77.439 28.486,129.417 -12.047,94.711 -44.089,67.276 -24.334,25.091 0,0"
             style="fill:#f5f5f5;fill-opacity:1;fill-rule:nonzero;stroke:none"
             id="path166" />
        </g>
      </g>
    </g>
    <g
       id="g168">
      <g
         id="g170"
         clip-path="url(#clipPath174)">
        <g
           id="g176"
           transform="translate(443.8887,83.7617)">
          <path
             d="m 0,0 c 0,-6.254 -86.807,-11.323 -193.889,-11.323 -107.082,0 -193.888,5.069 -193.888,11.323 0,6.254 86.806,11.323 193.888,11.323 C -86.807,11.323 0,6.254 0,0"
             style="fill:#f5f5f5;fill-opacity:1;fill-rule:nonzero;stroke:none"
             id="path178" />
        </g>
      </g>
    </g>
    <g
       id="g180">
      <g
         id="g182"
         clip-path="url(#clipPath186)">
        <g
           id="g188"
           transform="translate(349.2451,336.5684)">
          <path
             d="m 0,0 -9.918,4.022 c 0,0 -13.09,-23.873 -16.84,-25.078 -5.101,-1.639 -15.652,-6.199 -21.922,-7.053 -0.845,-0.988 -2.239,-4.104 -2.106,-5.24 8.412,-2.805 26.891,0.92 30.848,3.858 C -10.921,-22.793 0,0 0,0"
             style="fill:#ff8b7b;fill-opacity:1;fill-rule:nonzero;stroke:none"
             id="path190" />
        </g>
        <g
           id="g192"
           transform="translate(352.2998,341.9844)">
          <path
             d="m 0,0 c 1.846,-6.838 -8.174,-20.576 -8.174,-20.576 l -13.162,7.383 c 0,0 2.454,5.647 5.458,11.398 C -11.027,7.493 -2.106,7.806 0,0"
             style="fill:#007cff;fill-opacity:1;fill-rule:nonzero;stroke:none"
             id="path194" />
        </g>
        <g
           id="g196">
          <g
             id="g198" />
          <g
             id="g210">
            <g
               clip-path="url(#clipPath202)"
               opacity="0.199997"
               id="g208">
              <g
                 transform="translate(352.2998,341.9844)"
                 id="g206">
                <path
                   d="m 0,0 c 1.846,-6.838 -8.174,-20.576 -8.174,-20.576 l -13.162,7.383 c 0,0 2.454,5.647 5.458,11.398 C -11.027,7.493 -2.106,7.806 0,0"
                   style="fill:#000000;fill-opacity:1;fill-rule:nonzero;stroke:none"
                   id="path204" />
              </g>
            </g>
          </g>
        </g>
        <g
           id="g212">
          <g
             id="g214" />
          <g
             id="g226">
            <g
               clip-path="url(#clipPath218)"
               opacity="0.199997"
               id="g224">
              <g
                 transform="translate(336.2119,325.8521)"
                 id="g222">
                <path
                   d="M 0,0 5.169,-2.898 6.073,12.968 C 3.072,10.656 0.945,3.699 0,0"
                   style="fill:#000000;fill-opacity:1;fill-rule:nonzero;stroke:none"
                   id="path220" />
              </g>
            </g>
          </g>
        </g>
        <g
           id="g228"
           transform="translate(343.6621,347.1372)">
          <path
             d="m 0,0 c 0,0 -10.22,-22.736 -4.262,-65.077 h 40.271 c 0.639,6.182 -1.477,36.338 6.193,65.465 0,0 -6.821,1.385 -13.381,1.702 C 23.69,2.338 16.251,2.502 11.703,2.089 5.707,1.545 0,0 0,0"
             style="fill:#007cff;fill-opacity:1;fill-rule:nonzero;stroke:none"
             id="path230" />
        </g>
        <g
           id="g232">
          <g
             id="g234" />
          <g
             id="g246">
            <g
               clip-path="url(#clipPath238)"
               opacity="0.199997"
               id="g244">
              <g
                 transform="translate(343.6621,347.1372)"
                 id="g242">
                <path
                   d="m 0,0 c 0,0 -10.22,-22.736 -4.262,-65.077 h 40.271 c 0.639,6.182 -1.477,36.338 6.193,65.465 0,0 -6.821,1.385 -13.381,1.702 C 23.69,2.338 16.251,2.502 11.703,2.089 5.707,1.545 0,0 0,0"
                   style="fill:#000000;fill-opacity:1;fill-rule:nonzero;stroke:none"
                   id="path240" />
              </g>
            </g>
          </g>
        </g>
        <g
           id="g248">
          <g
             id="g250" />
          <g
             id="g262">
            <g
               clip-path="url(#clipPath254)"
               id="g260">
              <g
                 transform="translate(334.3232,82.8584)"
                 id="g258">
                <path
                   d="m 0,0 c -0.063,-1.074 15.205,-1.944 34.102,-1.944 18.897,0 34.266,0.87 34.33,1.944 C 68.495,1.073 53.227,1.944 34.33,1.944 15.433,1.944 0.062,1.073 0,0"
                   style="fill:#e7edf2;fill-opacity:1;fill-rule:nonzero;stroke:none"
                   id="path256" />
              </g>
            </g>
          </g>
        </g>
        <g
           id="g264"
           transform="translate(368.3213,93.9023)">
          <path
             d="m 0,0 -7.166,-2.762 -6.157,15.946 7.166,2.761 z"
             style="fill:#ff8b7b;fill-opacity:1;fill-rule:nonzero;stroke:none"
             id="path266" />
        </g>
        <g
           id="g268"
           transform="translate(393.0508,90.5459)">
          <path
             d="m 0,0 h -7.528 l -2.763,17.436 h 7.529 z"
             style="fill:#ff8b7b;fill-opacity:1;fill-rule:nonzero;stroke:none"
             id="path270" />
        </g>
        <g
           id="g272"
           transform="translate(385.0381,91.418)">
          <path
             d="m 0,0 h 8.459 c 0.308,0 0.562,-0.214 0.61,-0.515 l 1.095,-6.692 c 0.114,-0.694 -0.47,-1.351 -1.181,-1.339 -2.95,0.051 -4.374,0.224 -8.093,0.224 -2.289,0 -7.018,-0.238 -10.178,-0.238 -3.091,0 -3.39,3.125 -2.079,3.409 5.875,1.268 8.163,3.018 10.118,4.688 C -0.896,-0.162 -0.45,0 0,0"
             style="fill:#1a2e35;fill-opacity:1;fill-rule:nonzero;stroke:none"
             id="path274" />
        </g>
        <g
           id="g276"
           transform="translate(359.9727,94.0537)">
          <path
             d="M 0,0 8.021,2.332 C 8.321,2.419 8.63,2.289 8.764,2.021 l 2.971,-5.997 C 12.044,-4.597 11.68,-5.377 10.983,-5.567 8.078,-6.359 6.125,-6.856 2.488,-7.913 c -2.512,-0.731 -5.069,-1.921 -7.551,-2.712 -1.72,-0.548 -5.757,-0.57 -7.848,-0.57 -3.091,0 -3.779,3.258 -2.455,3.408 3.352,0.376 3.803,0.201 5.653,1.13 3.06,1.535 5.427,2.806 8.076,5.581 C -1.174,-0.593 -0.634,-0.184 0,0"
             style="fill:#1a2e35;fill-opacity:1;fill-rule:nonzero;stroke:none"
             id="path278" />
        </g>
        <g
           id="g280"
           transform="translate(301.833,308.5308)">
          <path
             d="m 0,0 -8.285,3.486 -3.41,-9.178 c 0,0 4.781,-0.867 10.241,0 z"
             style="fill:#ff8b7b;fill-opacity:1;fill-rule:nonzero;stroke:none"
             id="path282" />
        </g>
        <g
           id="g284"
           transform="translate(287.3906,312.2417)">
          <path
             d="m 0,0 -0.219,-6.106 2.966,-3.297 3.41,9.178 z"
             style="fill:#ff8b7b;fill-opacity:1;fill-rule:nonzero;stroke:none"
             id="path286" />
        </g>
        <g
           id="g288"
           transform="translate(355.001,107.082)">
          <path
             d="m 0,0 3.173,-8.22 7.169,2.763 -3.173,8.22 z"
             style="fill:#ea7064;fill-opacity:1;fill-rule:nonzero;stroke:none"
             id="path290" />
        </g>
        <g
           id="g292"
           transform="translate(390.291,107.9766)">
          <path
             d="m 0,0 h -7.531 l 1.427,-8.987 h 7.532 z"
             style="fill:#ea7064;fill-opacity:1;fill-rule:nonzero;stroke:none"
             id="path294" />
        </g>
        <g
           id="g296">
          <g
             id="g298" />
          <g
             id="g310">
            <g
               clip-path="url(#clipPath302)"
               opacity="0.199997"
               id="g308">
              <g
                 transform="translate(338.123,293.5132)"
                 id="g306">
                <path
                   d="m 0,0 c 0.145,-1.809 0.319,-3.659 0.534,-5.56 l 29.945,9.722 c 4.676,1.397 8.746,4.336 11.52,8.354 0.113,2.672 0.268,5.477 0.493,8.406 0.103,1.429 0.226,2.888 0.36,4.368 0.144,1.541 0.308,3.113 0.494,4.696 z"
                   style="fill:#000000;fill-opacity:1;fill-rule:nonzero;stroke:none"
                   id="path304" />
              </g>
            </g>
          </g>
        </g>
        <g
           id="g312"
           transform="translate(347.8994,326.312)">
          <path
             d="m 0,0 -1.02,0.122 c 0.595,4.989 4.32,8.933 8.255,8.84 L 7.205,7.934 C 3.808,8.032 0.534,4.475 0,0"
             style="fill:#ffffff;fill-opacity:1;fill-rule:nonzero;stroke:none"
             id="path314" />
        </g>
        <g
           id="g316"
           transform="translate(353.2275,317.0781)">
          <path
             d="m 0,0 c -0.056,0 -0.112,0 -0.168,0.002 l 0.029,1.028 c 3.44,-0.126 6.67,3.458 7.205,7.933 L 8.086,8.842 C 7.5,3.923 3.893,0 0,0"
             style="fill:#ffffff;fill-opacity:1;fill-rule:nonzero;stroke:none"
             id="path318" />
        </g>
        <g
           id="g320"
           transform="translate(371.918,368.5029)">
          <path
             d="m 0,0 c -1.403,-5.508 -3.072,-15.6 0.565,-19.276 0,0 -2.541,-5.587 -12.775,-5.587 -9.352,0 -4.343,5.587 -4.343,5.587 6.229,1.466 6.337,6.024 5.518,10.303 z"
             style="fill:#ff8b7b;fill-opacity:1;fill-rule:nonzero;stroke:none"
             id="path322" />
        </g>
        <g
           id="g324"
           transform="translate(367.4189,364.8418)">
          <path
             d="m 0,0 -6.531,-5.307 c 0.197,-1.013 0.337,-2.04 0.349,-3.038 1.91,-1.902 5.742,2.914 6.134,5.371 C 0.148,-1.749 0.166,-0.571 0,0"
             style="fill:#ea7064;fill-opacity:1;fill-rule:nonzero;stroke:none"
             id="path326" />
        </g>
        <g
           id="g328"
           transform="translate(349.6641,368.5708)">
          <path
             d="M 0,0 C 0.957,-1.715 2.646,-2.781 4.242,-3.136 6.644,-3.671 7.85,-1.462 7.187,0.761 6.592,2.762 4.625,5.451 2.212,4.99 -0.165,4.536 -1.095,1.96 0,0"
             style="fill:#ea7064;fill-opacity:1;fill-rule:nonzero;stroke:none"
             id="path330" />
        </g>
        <g
           id="g332"
           transform="translate(353.626,386.1997)">
          <path
             d="M 0,0 C -3.74,-1.713 -5.058,-16.571 -0.355,-18.768 4.346,-20.964 7.085,3.246 0,0"
             style="fill:#1a2e35;fill-opacity:1;fill-rule:nonzero;stroke:none"
             id="path334" />
        </g>
        <g
           id="g336"
           transform="translate(373.0586,376.7915)">
          <path
             d="m 0,0 c -0.895,-7.458 -1.041,-11.847 -5.032,-15.675 -6.004,-5.758 -15.01,-2.342 -16.353,5.102 -1.209,6.701 0.458,17.772 7.933,20.74 C -6.089,13.092 0.896,7.458 0,0"
             style="fill:#ff8b7b;fill-opacity:1;fill-rule:nonzero;stroke:none"
             id="path338" />
        </g>
        <g
           id="g340"
           transform="translate(360.7734,382.335)">
          <path
             d="M 0,0 C 5.532,1.416 9.604,2.379 8.15,-2.239 6.215,-8.391 3.894,-14.351 7.008,-14.628 c 1.893,-0.169 10.295,3.396 9.228,7 -0.929,3.14 2.976,3.987 3.696,5.588 2.593,5.766 -4.817,5.017 -3.497,8.506 1.284,3.397 -5.969,9.138 -9.988,6.333 -6.506,-4.54 -17.685,-4.475 -11.807,2.973 4.209,5.334 -3.302,4.239 -3.302,4.239 0,0 4.537,-2.691 -3.099,-6.851 C -19.854,8.75 -12.445,-3.184 0,0"
             style="fill:#1a2e35;fill-opacity:1;fill-rule:nonzero;stroke:none"
             id="path342" />
        </g>
        <g
           id="g344"
           transform="translate(375.9453,368.5708)">
          <path
             d="m 0,0 c -1.158,-1.715 -2.972,-2.781 -4.61,-3.136 -2.463,-0.535 -3.411,1.674 -2.489,3.897 0.83,2.001 3.114,4.69 5.472,4.229 C 0.696,4.536 1.325,1.96 0,0"
             style="fill:#ff8b7b;fill-opacity:1;fill-rule:nonzero;stroke:none"
             id="path346" />
        </g>
        <g
           id="g348"
           transform="translate(339.4004,282.0605)">
          <path
             d="m 0,0 c 0,0 -6.759,-60.497 -7.286,-83.457 -0.549,-23.882 22.908,-98.395 22.908,-98.395 l 12.011,5.044 c 0,0 -13.986,68.074 -12.043,91.528 C 17.708,-59.711 26.472,0 26.472,0 Z"
             style="fill:#007cff;fill-opacity:1;fill-rule:nonzero;stroke:none"
             id="path350" />
        </g>
        <g
           id="g352">
          <g
             id="g354" />
          <g
             id="g366">
            <g
               clip-path="url(#clipPath358)"
               opacity="0.199997"
               id="g364">
              <g
                 transform="translate(356.1992,265.4487)"
                 id="g362">
                <path
                   d="m 0,0 c -5.385,-11.18 -1.758,-33.285 1.161,-46.386 1.11,9.248 2.425,19.288 3.679,28.578 C 4.717,-3.524 3.606,7.501 0,0"
                   style="fill:#000000;fill-opacity:1;fill-rule:nonzero;stroke:none"
                   id="path360" />
              </g>
            </g>
          </g>
        </g>
        <g
           id="g368"
           transform="translate(366.4902,109.1748)">
          <path
             d="m 0,0 c 0.056,0.023 1.424,-3.828 1.424,-3.828 l -13.844,-5.814 -2.182,4.056 z"
             style="fill:#007cff;fill-opacity:1;fill-rule:nonzero;stroke:none"
             id="path370" />
        </g>
        <g
           id="g372"
           transform="translate(353.6865,282.0605)">
          <path
             d="m 0,0 c 0,0 5.171,-57.538 8.598,-79.095 3.753,-23.605 18.495,-102.236 18.495,-102.236 h 13.79 c 0,0 -8.263,76.726 -9.823,100.097 C 29.365,-55.868 25.984,0 25.984,0 Z"
             style="fill:#007cff;fill-opacity:1;fill-rule:nonzero;stroke:none"
             id="path374" />
        </g>
        <g
           id="g376"
           transform="translate(394.7803,104.3232)">
          <path
             d="m 0,0 c 0.059,0 0.461,-3.854 0.461,-3.854 h -15.157 l -1.082,4.425 z"
             style="fill:#007cff;fill-opacity:1;fill-rule:nonzero;stroke:none"
             id="path378" />
        </g>
        <g
           id="g380">
          <g
             id="g382" />
          <g
             id="g394">
            <g
               clip-path="url(#clipPath386)"
               opacity="0.199997"
               id="g392">
              <g
                 transform="translate(389.4971,108.8779)"
                 id="g390">
                <path
                   d="m 0,0 c -0.065,0 -0.12,0.049 -0.127,0.114 -0.075,0.698 -7.526,69.967 -8.929,90.965 -1.521,22.787 -4.58,73.312 -4.611,73.82 -0.004,0.071 0.05,0.131 0.12,0.136 h 0.009 c 0.066,0 0.124,-0.053 0.128,-0.121 0.03,-0.507 3.089,-51.032 4.611,-73.817 C -7.397,70.104 0.053,0.839 0.128,0.142 0.136,0.07 0.085,0.008 0.015,0.001 0.009,0 0.004,0 0,0"
                   style="fill:#000000;fill-opacity:1;fill-rule:nonzero;stroke:none"
                   id="path388" />
              </g>
            </g>
          </g>
        </g>
        <g
           id="g396"
           transform="translate(361.624,374.707)">
          <path
             d="m 0,0 c -0.035,-0.607 -0.387,-1.1 -0.783,-1.1 -0.397,0 -0.69,0.493 -0.654,1.1 0.035,0.607 0.386,1.1 0.783,1.1 C -0.257,1.1 0.036,0.607 0,0"
             style="fill:#1a2e35;fill-opacity:1;fill-rule:nonzero;stroke:none"
             id="path398" />
        </g>
        <g
           id="g400"
           transform="translate(354.7598,374.707)">
          <path
             d="m 0,0 c -0.035,-0.607 -0.386,-1.1 -0.783,-1.1 -0.397,0 -0.69,0.493 -0.654,1.1 0.036,0.607 0.386,1.1 0.783,1.1 C -0.257,1.1 0.036,0.607 0,0"
             style="fill:#1a2e35;fill-opacity:1;fill-rule:nonzero;stroke:none"
             id="path402" />
        </g>
        <g
           id="g404"
           transform="translate(356.9248,374.4048)">
          <path
             d="m 0,0 c 0,0 -1.587,-3.503 -3.206,-5.194 1.016,-1.002 2.869,-0.544 2.869,-0.544 z"
             style="fill:#ff5652;fill-opacity:1;fill-rule:nonzero;stroke:none"
             id="path406" />
        </g>
        <g
           id="g408"
           transform="translate(357.0986,366.1191)">
          <path
             d="m 0,0 c -0.098,0 -0.174,0.08 -0.168,0.178 0.006,0.099 0.091,0.179 0.189,0.179 2.666,0 4.019,1.862 4.033,1.88 C 4.113,2.32 4.226,2.343 4.304,2.289 4.383,2.235 4.399,2.125 4.341,2.042 4.281,1.959 2.857,0 0,0"
             style="fill:#1a2e35;fill-opacity:1;fill-rule:nonzero;stroke:none"
             id="path410" />
        </g>
        <g
           id="g412"
           transform="translate(362.8447,376.5542)">
          <path
             d="M 0,0 C -0.103,-0.04 -0.22,-0.034 -0.314,0.027 -1.627,0.853 -2.85,0.299 -2.862,0.292 -3.03,0.206 -3.253,0.282 -3.328,0.459 -3.403,0.637 -3.315,0.851 -3.133,0.936 -3.068,0.967 -1.536,1.662 0.091,0.637 0.254,0.534 0.294,0.314 0.182,0.147 0.137,0.078 0.071,0.028 0,0"
             style="fill:#1a2e35;fill-opacity:1;fill-rule:nonzero;stroke:none"
             id="path414" />
        </g>
        <g
           id="g416"
           transform="translate(352.1064,378.5488)">
          <path
             d="m 0,0 c -0.05,0.014 -0.097,0.039 -0.137,0.077 -0.138,0.13 -0.139,0.355 0,0.503 C 1.26,2.055 2.878,1.83 2.945,1.82 3.136,1.799 3.263,1.61 3.222,1.415 3.182,1.22 2.993,1.086 2.801,1.114 2.747,1.122 1.483,1.283 0.368,0.106 0.27,0.001 0.124,-0.036 0,0"
             style="fill:#1a2e35;fill-opacity:1;fill-rule:nonzero;stroke:none"
             id="path418" />
        </g>
        <g
           id="g420"
           transform="translate(389.7295,337.6831)">
          <path
             d="m 0,0 -10.402,2.769 c 0,0 -10.202,-25.107 -13.804,-26.747 -4.902,-2.231 -17.317,-9.947 -22.593,-13.668 -0.292,-1.243 -0.062,-4.56 0.602,-5.462 8.97,1.63 26.229,8.265 29.829,11.637 C -8.162,-23.782 0,0 0,0"
             style="fill:#ff8b7b;fill-opacity:1;fill-rule:nonzero;stroke:none"
             id="path422" />
        </g>
        <g
           id="g424"
           transform="translate(381.4443,91.6611)">
          <path
             d="M 0,0 C -0.094,0 -0.173,-0.015 -0.234,-0.045 -0.284,-0.07 -0.343,-0.116 -0.358,-0.254 -0.394,-0.538 -0.327,-0.75 -0.155,-0.901 0.235,-1.249 1.217,-1.295 2.51,-1.037 1.688,-0.545 0.576,0 0,0 m 1.026,-1.558 c -0.572,0 -1.102,0.098 -1.426,0.383 -0.257,0.228 -0.363,0.545 -0.314,0.944 0.036,0.296 0.202,0.437 0.335,0.503 0.85,0.427 3.198,-1.064 3.464,-1.235 0.058,-0.039 0.086,-0.11 0.07,-0.182 C 3.14,-1.214 3.083,-1.271 3.013,-1.288 2.482,-1.414 1.723,-1.558 1.026,-1.558"
             style="fill:#007cff;fill-opacity:1;fill-rule:nonzero;stroke:none"
             id="path426" />
        </g>
        <g
           id="g428"
           transform="translate(383.0742,93.4199)">
          <path
             d="M 0,0 C -0.026,0 -0.053,-0.003 -0.081,-0.005 -0.314,-0.033 -0.341,-0.141 -0.352,-0.185 -0.476,-0.681 0.411,-1.928 1.151,-2.516 1.101,-1.881 0.935,-0.614 0.4,-0.156 0.278,-0.052 0.147,0 0,0 m 1.341,-3.052 c -0.029,0 -0.059,0.007 -0.084,0.021 -0.755,0.424 -2.164,2.073 -1.955,2.913 0.037,0.151 0.165,0.415 0.594,0.467 C 0.178,0.384 0.427,0.306 0.643,0.12 1.476,-0.595 1.528,-2.768 1.529,-2.859 1.531,-2.925 1.496,-2.988 1.439,-3.022 1.409,-3.042 1.375,-3.052 1.341,-3.052"
             style="fill:#007cff;fill-opacity:1;fill-rule:nonzero;stroke:none"
             id="path430" />
        </g>
        <g
           id="g432"
           transform="translate(354.291,92.5352)">
          <path
             d="m 0,0 c -0.136,-0.033 -0.244,-0.08 -0.315,-0.143 -0.063,-0.056 -0.086,-0.12 -0.077,-0.211 0.027,-0.239 0.13,-0.405 0.317,-0.506 0.531,-0.289 1.764,-0.061 3.351,0.603 C 2.16,-0.023 0.702,0.171 0,0 M 1.626,-1.188 C 0.89,-1.366 0.187,-1.419 -0.26,-1.176 c -0.285,0.155 -0.449,0.412 -0.486,0.764 -0.024,0.209 0.047,0.392 0.203,0.529 C 0.263,0.835 3.524,0.064 3.895,-0.026 3.967,-0.044 4.018,-0.106 4.021,-0.182 4.024,-0.258 3.979,-0.329 3.908,-0.362 3.303,-0.638 2.443,-0.99 1.626,-1.188"
             style="fill:#007cff;fill-opacity:1;fill-rule:nonzero;stroke:none"
             id="path434" />
        </g>
        <g
           id="g436"
           transform="translate(355.8018,94.6875)">
          <path
             d="M 0,0 C -0.035,-0.008 -0.069,-0.02 -0.104,-0.031 -0.415,-0.14 -0.412,-0.267 -0.411,-0.309 -0.399,-0.825 1.038,-1.774 2.053,-2.095 1.851,-1.543 1.364,-0.429 0.652,-0.078 0.437,0.028 0.223,0.055 0,0 m 2.364,-2.525 c -0.025,-0.006 -0.05,-0.006 -0.075,-0.003 -0.969,0.179 -3.038,1.33 -3.058,2.191 -0.004,0.201 0.09,0.477 0.564,0.641 0.344,0.129 0.698,0.103 1.03,-0.06 1.086,-0.536 1.654,-2.456 1.679,-2.538 0.017,-0.06 0,-0.125 -0.044,-0.174 C 2.435,-2.497 2.4,-2.517 2.364,-2.525"
             style="fill:#007cff;fill-opacity:1;fill-rule:nonzero;stroke:none"
             id="path438" />
        </g>
        <g
           id="g440"
           transform="translate(343.7783,300.6274)">
          <path
             d="m 0,0 -10.428,-4.8 -1.21,-2.943 3.854,-2.592 c 0,0 7.192,0.782 9.241,5.404 z"
             style="fill:#ff8b7b;fill-opacity:1;fill-rule:nonzero;stroke:none"
             id="path442" />
        </g>
        <g
           id="g444"
           transform="translate(344.2217,294.4043)">
          <path
             d="m 0,0 c -0.652,3.874 -1.926,5.641 -1.937,5.659 l 1.643,1.232 C -0.229,6.807 1.282,4.766 2.027,0.341 Z"
             style="fill:#1a2e35;fill-opacity:1;fill-rule:nonzero;stroke:none"
             id="path446" />
        </g>
        <g
           id="g448"
           transform="translate(345.998,299.209)">
          <path
             d="m 0,0 c 0.338,-0.836 -0.205,-1.845 -1.214,-2.252 -1.009,-0.408 -2.1,-0.061 -2.438,0.776 -0.338,0.836 0.205,1.845 1.214,2.253 C -1.43,1.185 -0.338,0.837 0,0"
             style="fill:#1a2e35;fill-opacity:1;fill-rule:nonzero;stroke:none"
             id="path450" />
        </g>
        <g
           id="g452"
           transform="translate(326.3037,291.9517)">
          <path
             d="M 0,0 1.386,-1.403 10.742,2.599 7.047,3.876 Z"
             style="fill:#ff8b7b;fill-opacity:1;fill-rule:nonzero;stroke:none"
             id="path454" />
        </g>
        <g
           id="g456">
          <g
             id="g458" />
          <g
             id="g470">
            <g
               clip-path="url(#clipPath462)"
               opacity="0.199997"
               id="g468">
              <g
                 transform="translate(366.4902,109.1748)"
                 id="g466">
                <path
                   d="m 0,0 c 0.056,0.023 1.424,-3.828 1.424,-3.828 l -13.844,-5.814 -2.182,4.056 z"
                   style="fill:#000000;fill-opacity:1;fill-rule:nonzero;stroke:none"
                   id="path464" />
              </g>
            </g>
          </g>
        </g>
        <g
           id="g472">
          <g
             id="g474" />
          <g
             id="g486">
            <g
               clip-path="url(#clipPath478)"
               opacity="0.199997"
               id="g484">
              <g
                 transform="translate(394.7803,104.3232)"
                 id="g482">
                <path
                   d="m 0,0 c 0.059,0 0.461,-3.854 0.461,-3.854 h -15.157 l -1.082,4.425 z"
                   style="fill:#000000;fill-opacity:1;fill-rule:nonzero;stroke:none"
                   id="path480" />
              </g>
            </g>
          </g>
        </g>
        <g
           id="g488"
           transform="translate(392.4414,340.5605)">
          <path
             d="m 0,0 c 2.752,-8.867 -7.96,-20.98 -7.96,-20.98 l -14.848,6.06 c 0,0 2.093,6.442 6.074,15.072 C -12.209,9.962 -2.777,8.949 0,0"
             style="fill:#007cff;fill-opacity:1;fill-rule:nonzero;stroke:none"
             id="path490" />
        </g>
        <g
           id="g492">
          <g
             id="g494" />
          <g
             id="g506">
            <g
               clip-path="url(#clipPath498)"
               opacity="0.199997"
               id="g504">
              <g
                 transform="translate(392.4414,340.5605)"
                 id="g502">
                <path
                   d="m 0,0 c 2.752,-8.867 -7.96,-20.98 -7.96,-20.98 l -14.848,6.06 c 0,0 2.093,6.442 6.074,15.072 C -12.209,9.962 -2.777,8.949 0,0"
                   style="fill:#000000;fill-opacity:1;fill-rule:nonzero;stroke:none"
                   id="path500" />
              </g>
            </g>
          </g>
        </g>
      </g>
    </g>
    <path
       d="m 244.875,428.403 h -6.387 v 1.027 h 6.387 z"
       style="fill:#007cff;fill-opacity:1;fill-rule:nonzero;stroke:none"
       id="path508" />
    <g
       id="g510"
       transform="translate(327.8564,371.4604)">
      <path
         d="m 0,0 -1.025,0.046 0.766,17.16 1.026,-0.047 z"
         style="fill:#007cff;fill-opacity:1;fill-rule:nonzero;stroke:none"
         id="path512" />
    </g>
    <g
       id="g514"
       transform="translate(325.6123,424.8062)">
      <path
         d="m 0,0 h -117.999 l -10.984,-245.719 h 117.999 z"
         style="fill:#007cff;fill-opacity:1;fill-rule:nonzero;stroke:none"
         id="path516" />
    </g>
    <g
       id="g518">
      <g
         id="g520"
         clip-path="url(#clipPath524)">
        <g
           id="g526">
          <g
             id="g528" />
          <g
             id="g540">
            <g
               clip-path="url(#clipPath532)"
               opacity="0.559998"
               id="g538">
              <g
                 transform="translate(322.0898,421.4341)"
                 id="g536">
                <path
                   d="m 0,0 h -117.999 l -10.984,-245.719 h 117.999 z"
                   style="fill:#fafafa;fill-opacity:1;fill-rule:nonzero;stroke:none"
                   id="path534" />
              </g>
            </g>
          </g>
        </g>
        <g
           id="g542">
          <g
             id="g544" />
          <g
             id="g556">
            <g
               clip-path="url(#clipPath548)"
               opacity="0.0700073"
               id="g554">
              <g
                 transform="translate(318.5674,418.0625)"
                 id="g552">
                <path
                   d="m 0,0 h -117.999 l -10.984,-245.719 h 117.999 z"
                   style="fill:#007cff;fill-opacity:1;fill-rule:nonzero;stroke:none"
                   id="path550" />
              </g>
            </g>
          </g>
        </g>
      </g>
    </g>
    <g
       id="g558"
       transform="translate(305.1357,310.8945)">
      <path
         d="m 0,0 h -100.717 l -0.841,-18.807 H -0.84 Z"
         style="fill:#ffffff;fill-opacity:1;fill-rule:nonzero;stroke:none"
         id="path560" />
    </g>
    <g
       id="g562"
       transform="translate(259.8145,324.6099)">
      <path
         d="m 0,0 h -54.783 l -0.376,-8.414 h 54.783 z"
         style="fill:#007cff;fill-opacity:1;fill-rule:nonzero;stroke:none"
         id="path564" />
    </g>
    <g
       id="g566"
       transform="translate(302.8682,260.1509)">
      <path
         d="m 0,0 h -100.718 l -0.841,-18.806 H -0.841 Z"
         style="fill:#ffffff;fill-opacity:1;fill-rule:nonzero;stroke:none"
         id="path568" />
    </g>
    <g
       id="g570">
      <g
         id="g572"
         clip-path="url(#clipPath576)">
        <g
           id="g578">
          <g
             id="g580" />
          <g
             id="g592">
            <g
               clip-path="url(#clipPath584)"
               opacity="0.470001"
               id="g590">
              <g
                 transform="translate(284.3984,215.9639)"
                 id="g588">
                <path
                   d="m 0,0 h -67.729 l -1.008,-22.539 h 67.729 z"
                   style="fill:#007cff;fill-opacity:1;fill-rule:nonzero;stroke:none"
                   id="path586" />
              </g>
            </g>
          </g>
        </g>
        <g
           id="g594"
           transform="translate(212.2637,190.1719)">
          <path
             d="m 0,0 h 67.49 l 0.997,22.301 H 0.997 Z M 67.604,-0.238 H -0.124 c -0.032,0 -0.063,0.013 -0.086,0.037 -0.022,0.023 -0.035,0.055 -0.033,0.087 l 1.008,22.54 c 0.002,0.063 0.055,0.114 0.118,0.114 h 67.728 c 0.033,0 0.064,-0.015 0.087,-0.037 0.022,-0.024 0.034,-0.056 0.031,-0.088 L 67.723,-0.124 c -0.002,-0.064 -0.056,-0.114 -0.119,-0.114"
             style="fill:#ffffff;fill-opacity:1;fill-rule:nonzero;stroke:none"
             id="path596" />
        </g>
        <g
           id="g598"
           transform="translate(247.9775,273.8662)">
          <path
             d="M 0,0 H -45.214 L -45.59,-8.414 H -0.376 Z"
             style="fill:#007cff;fill-opacity:1;fill-rule:nonzero;stroke:none"
             id="path600" />
        </g>
        <g
           id="g602"
           transform="translate(283.1055,371.6211)">
          <path
             d="m 0,0 c -0.252,-5.631 -2.293,-10.831 -5.564,-15.054 -4.942,-6.403 -12.681,-10.564 -21.2,-10.564 -8.518,0 -15.875,4.161 -20.244,10.564 -2.894,4.223 -4.471,9.423 -4.219,15.054 0.633,14.15 12.614,25.619 26.753,25.619 C -10.323,25.619 0.633,14.15 0,0"
             style="fill:#ffffff;fill-opacity:1;fill-rule:nonzero;stroke:none"
             id="path604" />
        </g>
        <g
           id="g606"
           transform="translate(285.5156,391.877)">
          <path
             d="m 0,0 c -0.067,-1.496 -0.609,-2.878 -1.479,-4 -1.313,-1.701 -3.37,-2.807 -5.633,-2.807 -2.264,0 -4.218,1.106 -5.379,2.807 -0.769,1.122 -1.188,2.504 -1.121,4 0.168,3.76 3.351,6.807 7.109,6.807 C -2.743,6.807 0.168,3.76 0,0"
             style="fill:#007cff;fill-opacity:1;fill-rule:nonzero;stroke:none"
             id="path608" />
        </g>
        <g
           id="g610"
           transform="translate(215.2651,301.4912)">
          <path
             d="m 0,0 c -0.074,-1.665 -1.484,-3.014 -3.148,-3.014 -1.664,0 -2.953,1.349 -2.879,3.014 0.074,1.664 1.484,3.013 3.149,3.013 C -1.214,3.013 0.074,1.664 0,0"
             style="fill:#1a2e35;fill-opacity:1;fill-rule:nonzero;stroke:none"
             id="path612" />
        </g>
        <g
           id="g614"
           transform="translate(228.7524,301.4912)">
          <path
             d="m 0,0 c -0.074,-1.665 -1.484,-3.014 -3.148,-3.014 -1.664,0 -2.953,1.349 -2.879,3.014 0.074,1.664 1.484,3.013 3.148,3.013 C -1.214,3.013 0.074,1.664 0,0"
             style="fill:#1a2e35;fill-opacity:1;fill-rule:nonzero;stroke:none"
             id="path616" />
        </g>
        <g
           id="g618"
           transform="translate(242.2397,301.4912)">
          <path
             d="m 0,0 c -0.074,-1.665 -1.484,-3.014 -3.148,-3.014 -1.664,0 -2.953,1.349 -2.879,3.014 0.074,1.664 1.484,3.013 3.148,3.013 C -1.214,3.013 0.074,1.664 0,0"
             style="fill:#1a2e35;fill-opacity:1;fill-rule:nonzero;stroke:none"
             id="path620" />
        </g>
        <g
           id="g622"
           transform="translate(212.9966,250.7476)">
          <path
             d="m 0,0 c -0.074,-1.664 -1.484,-3.013 -3.148,-3.013 -1.664,0 -2.953,1.349 -2.879,3.013 0.075,1.665 1.484,3.014 3.149,3.014 C -1.214,3.014 0.075,1.665 0,0"
             style="fill:#1a2e35;fill-opacity:1;fill-rule:nonzero;stroke:none"
             id="path624" />
        </g>
        <g
           id="g626"
           transform="translate(226.4839,250.7476)">
          <path
             d="m 0,0 c -0.074,-1.664 -1.484,-3.013 -3.148,-3.013 -1.664,0 -2.953,1.349 -2.879,3.013 0.075,1.665 1.484,3.014 3.149,3.014 C -1.214,3.014 0.075,1.665 0,0"
             style="fill:#1a2e35;fill-opacity:1;fill-rule:nonzero;stroke:none"
             id="path628" />
        </g>
        <g
           id="g630"
           transform="translate(239.9712,250.7476)">
          <path
             d="m 0,0 c -0.074,-1.664 -1.484,-3.013 -3.148,-3.013 -1.664,0 -2.953,1.349 -2.879,3.013 0.075,1.665 1.484,3.014 3.149,3.014 C -1.214,3.014 0.075,1.665 0,0"
             style="fill:#1a2e35;fill-opacity:1;fill-rule:nonzero;stroke:none"
             id="path632" />
        </g>
        <g
           id="g634"
           transform="translate(253.459,250.7476)">
          <path
             d="m 0,0 c -0.075,-1.664 -1.484,-3.013 -3.148,-3.013 -1.665,0 -2.954,1.349 -2.879,3.013 0.074,1.665 1.484,3.014 3.148,3.014 C -1.215,3.014 0.074,1.665 0,0"
             style="fill:#1a2e35;fill-opacity:1;fill-rule:nonzero;stroke:none"
             id="path636" />
        </g>
        <g
           id="g638"
           transform="translate(266.9453,250.7476)">
          <path
             d="m 0,0 c -0.074,-1.664 -1.483,-3.013 -3.147,-3.013 -1.665,0 -2.954,1.349 -2.879,3.013 0.074,1.665 1.483,3.014 3.148,3.014 C -1.214,3.014 0.075,1.665 0,0"
             style="fill:#1a2e35;fill-opacity:1;fill-rule:nonzero;stroke:none"
             id="path640" />
        </g>
        <g
           id="g642"
           transform="translate(268.2363,380.1841)">
          <path
             d="m 0,0 c -0.256,-5.723 -5.103,-10.361 -10.824,-10.361 -5.723,0 -10.155,4.638 -9.899,10.361 0.256,5.722 5.102,10.361 10.825,10.361 C -4.176,10.361 0.256,5.722 0,0"
             style="fill:#007cff;fill-opacity:1;fill-rule:nonzero;stroke:none"
             id="path644" />
        </g>
        <g
           id="g646"
           transform="translate(277.541,356.5669)">
          <path
             d="m 0,0 c -4.941,-6.402 -12.681,-10.564 -21.199,-10.564 -8.519,0 -15.876,4.162 -20.244,10.564 4.86,4.84 12.554,7.984 21.073,7.984 C -11.841,7.984 -4.429,4.84 0,0"
             style="fill:#007cff;fill-opacity:1;fill-rule:nonzero;stroke:none"
             id="path648" />
        </g>
        <g
           id="g650">
          <g
             id="g652" />
          <g
             id="g664">
            <g
               clip-path="url(#clipPath656)"
               opacity="0.100006"
               id="g662">
              <g
                 transform="translate(268.2363,380.1841)"
                 id="g660">
                <path
                   d="m 0,0 c -0.256,-5.723 -5.103,-10.361 -10.824,-10.361 -5.723,0 -10.155,4.638 -9.899,10.361 0.256,5.722 5.102,10.361 10.825,10.361 C -4.176,10.361 0.256,5.722 0,0"
                   style="fill:#ffffff;fill-opacity:1;fill-rule:nonzero;stroke:none"
                   id="path658" />
              </g>
            </g>
          </g>
        </g>
        <g
           id="g666">
          <g
             id="g668" />
          <g
             id="g680">
            <g
               clip-path="url(#clipPath672)"
               opacity="0.100006"
               id="g678">
              <g
                 transform="translate(277.541,356.5669)"
                 id="g676">
                <path
                   d="m 0,0 c -4.941,-6.402 -12.681,-10.564 -21.199,-10.564 -8.519,0 -15.876,4.162 -20.244,10.564 4.86,4.84 12.554,7.984 21.073,7.984 C -11.841,7.984 -4.429,4.84 0,0"
                   style="fill:#ffffff;fill-opacity:1;fill-rule:nonzero;stroke:none"
                   id="path674" />
              </g>
            </g>
          </g>
        </g>
      </g>
    </g>
    <g
       id="g682">
      <g
         id="g684"
         clip-path="url(#clipPath688)">
        <g
           id="g690"
           transform="translate(130.4077,287.5571)">
          <path
             d="m 0,0 c -0.948,-2.077 -1.944,-4.362 -2.819,-6.591 -0.883,-2.25 -1.763,-4.503 -2.529,-6.786 -1.49,-4.567 -2.888,-9.178 -3.575,-13.8 l -0.228,-1.473 c -0.017,-0.177 -0.004,-0.429 0.073,-0.745 0.147,-0.635 0.543,-1.485 1.099,-2.319 1.126,-1.687 2.723,-3.395 4.443,-4.981 1.718,-1.612 3.582,-3.152 5.52,-4.616 1.919,-1.476 3.943,-2.921 5.924,-4.274 l -1.864,-3.509 c -4.758,2.079 -9.189,4.567 -13.481,7.687 -2.109,1.609 -4.194,3.34 -6.04,5.679 -0.91,1.18 -1.804,2.514 -2.39,4.273 -0.285,0.878 -0.482,1.872 -0.483,2.945 0.007,0.247 0.02,0.593 0.037,0.76 l 0.05,0.497 0.099,0.993 c 0.544,5.301 1.719,10.396 3.266,15.338 0.779,2.468 1.612,4.911 2.562,7.308 0.97,2.414 1.927,4.73 3.14,7.158 z"
             style="fill:#ff8b7b;fill-opacity:1;fill-rule:nonzero;stroke:none"
             id="path692" />
        </g>
        <g
           id="g694"
           transform="translate(136.9136,242.5674)">
          <path
             d="M 0,0 7.066,3.585 5.241,-4.182 c 0,0 -4.852,-1.354 -7.109,1 z"
             style="fill:#ff8b7b;fill-opacity:1;fill-rule:nonzero;stroke:none"
             id="path696" />
        </g>
        <g
           id="g698"
           transform="translate(150.4512,244.8779)">
          <path
             d="m 0,0 -1.88,-6.42 -6.417,-0.072 1.826,7.766 z"
             style="fill:#ff8b7b;fill-opacity:1;fill-rule:nonzero;stroke:none"
             id="path700" />
        </g>
        <g
           id="g702"
           transform="translate(160.4326,324.9985)">
          <path
             d="M 0,0 C 0,0 0.613,-2.254 1.585,-3.954 0.75,-4.733 0,-4.462 0,-4.462 Z"
             style="fill:#ff5652;fill-opacity:1;fill-rule:nonzero;stroke:none"
             id="path704" />
        </g>
        <g
           id="g706"
           transform="translate(159.4741,326.0859)">
          <path
             d="m 0,0 c 0,-0.633 0.335,-1.146 0.749,-1.146 0.414,0 0.749,0.513 0.749,1.146 0,0.633 -0.335,1.146 -0.749,1.146 C 0.335,1.146 0,0.633 0,0"
             style="fill:#1a2e35;fill-opacity:1;fill-rule:nonzero;stroke:none"
             id="path708" />
        </g>
        <g
           id="g710"
           transform="translate(160.0405,327.1968)">
          <path
             d="M 0,0 1.52,0.438 C 1.52,0.438 0.74,-0.75 0,0"
             style="fill:#1a2e35;fill-opacity:1;fill-rule:nonzero;stroke:none"
             id="path712" />
        </g>
        <g
           id="g714"
           transform="translate(140.897,317.6641)">
          <path
             d="m 0,0 c 0.913,-4.655 1.823,-13.185 -1.434,-16.292 0,0 1.273,-4.722 9.923,-4.722 9.512,0 4.546,4.722 4.546,4.722 -5.191,1.24 -5.057,5.091 -4.153,8.709 z"
             style="fill:#ff8b7b;fill-opacity:1;fill-rule:nonzero;stroke:none"
             id="path716" />
        </g>
        <g
           id="g718"
           transform="translate(138.3726,328.2583)">
          <path
             d="m 0,0 c 0.477,-7.772 0.513,-11.071 4.438,-15.06 5.905,-6.001 15.346,-3.715 17.2,4.043 1.67,6.982 0.609,18.518 -6.998,21.612 C 7.145,13.642 -0.477,7.771 0,0"
             style="fill:#ff8b7b;fill-opacity:1;fill-rule:nonzero;stroke:none"
             id="path720" />
        </g>
        <g
           id="g722"
           transform="translate(139.1387,337.0518)">
          <path
             d="m 0,0 c -3.897,-1.421 -9.096,-0.364 -7.056,-12.393 2.16,-12.736 -1.165,-16.926 -1.165,-16.926 0,0 14.792,-3.151 29.892,0.188 0,0 -4.61,8.063 -3.317,13.945 1.65,7.503 0.343,10.276 0.343,10.276 0,0 -13.216,6.908 -18.697,4.91"
             style="fill:#1a2e35;fill-opacity:1;fill-rule:nonzero;stroke:none"
             id="path724" />
        </g>
        <g
           id="g726"
           transform="translate(155.6401,324.2075)">
          <path
             d="M 0,0 C -0.016,-1.54 0.524,-3.091 1.224,-4.168 2.278,-5.79 3.527,-5.129 3.84,-3.447 4.122,-1.933 3.913,0.735 2.564,1.77 1.235,2.789 0.019,1.761 0,0"
             style="fill:#ff8b7b;fill-opacity:1;fill-rule:nonzero;stroke:none"
             id="path728" />
        </g>
        <g
           id="g730"
           transform="translate(135.7539,335.6914)">
          <path
             d="M 0,0 C -1.125,3.145 4.219,7.982 15.517,5.97 26.814,3.958 27.31,-5.438 27.31,-5.438 l -2.286,2.713 0.102,-2.857 -11.61,-2.231 z"
             style="fill:#1a2e35;fill-opacity:1;fill-rule:nonzero;stroke:none"
             id="path732" />
        </g>
        <g
           id="g734"
           transform="translate(136.7114,300.8442)">
          <path
             d="m 0,0 v 0 c -0.156,0.96 0.49,1.866 1.45,2.024 3.519,0.581 11.514,1.758 15.539,1.2 2.99,-0.414 3.781,-2.161 3.907,-3.588 0.094,-1.059 -0.782,-1.951 -1.843,-1.904 L 1.664,-1.482 C 0.828,-1.444 0.134,-0.826 0,0"
             style="fill:#007cff;fill-opacity:1;fill-rule:nonzero;stroke:none"
             id="path736" />
        </g>
        <g
           id="g738">
          <g
             id="g740" />
          <g
             id="g752">
            <g
               clip-path="url(#clipPath744)"
               opacity="0.600006"
               id="g750">
              <g
                 transform="translate(136.7114,300.8442)"
                 id="g748">
                <path
                   d="m 0,0 v 0 c -0.156,0.96 0.49,1.866 1.45,2.024 3.519,0.581 11.514,1.758 15.539,1.2 2.99,-0.414 3.781,-2.161 3.907,-3.588 0.094,-1.059 -0.782,-1.951 -1.843,-1.904 L 1.664,-1.482 C 0.828,-1.444 0.134,-0.826 0,0"
                   style="fill:#000000;fill-opacity:1;fill-rule:nonzero;stroke:none"
                   id="path746" />
              </g>
            </g>
          </g>
        </g>
        <g
           id="g754"
           transform="translate(146.7603,126.1387)">
          <path
             d="m 0,0 6.445,-4.475 10.791,14.626 -6.444,4.474 z"
             style="fill:#ff8b7b;fill-opacity:1;fill-rule:nonzero;stroke:none"
             id="path756" />
        </g>
        <g
           id="g758"
           transform="translate(131.7153,126.4336)">
          <path
             d="m 0,0 6.817,-3.882 9.552,15.468 -6.817,3.883 z"
             style="fill:#ff8b7b;fill-opacity:1;fill-rule:nonzero;stroke:none"
             id="path760" />
        </g>
        <g
           id="g762"
           transform="translate(163.9922,136.2861)">
          <path
             d="m 0,0 -5.561,-7.539 -6.447,4.476 5.561,7.54 z"
             style="fill:#ea7064;fill-opacity:1;fill-rule:nonzero;stroke:none"
             id="path764" />
        </g>
        <g
           id="g766"
           transform="translate(141.2627,141.8984)">
          <path
             d="m 0,0 6.82,-3.884 -4.926,-7.97 -6.821,3.883 z"
             style="fill:#ea7064;fill-opacity:1;fill-rule:nonzero;stroke:none"
             id="path768" />
        </g>
        <g
           id="g770"
           transform="translate(152.1978,252.0117)">
          <path
             d="m 0,0 c 0,0 25.181,-31.735 20.457,-62.082 -3.816,-24.512 -25.913,-57.703 -25.913,-57.703 l -10.39,5.164 c 0,0 11.289,22.058 18.701,45.441 3.109,9.806 1.784,20.61 -4.028,29.098 -12.755,18.63 -33.19,7.545 -19.444,40.082 z"
             style="fill:#007cff;fill-opacity:1;fill-rule:nonzero;stroke:none"
             id="path772" />
        </g>
        <g
           id="g774">
          <g
             id="g776" />
          <g
             id="g788">
            <g
               clip-path="url(#clipPath780)"
               opacity="0.600006"
               id="g786">
              <g
                 transform="translate(152.1978,252.0117)"
                 id="g784">
                <path
                   d="m 0,0 c 0,0 25.181,-31.735 20.457,-62.082 -3.816,-24.512 -25.913,-57.703 -25.913,-57.703 l -10.39,5.164 c 0,0 11.289,22.058 18.701,45.441 3.109,9.806 1.784,20.61 -4.028,29.098 -12.755,18.63 -33.19,7.545 -19.444,40.082 z"
                   style="fill:#000000;fill-opacity:1;fill-rule:nonzero;stroke:none"
                   id="path782" />
              </g>
            </g>
          </g>
        </g>
        <g
           id="g790">
          <g
             id="g792" />
          <g
             id="g804">
            <g
               clip-path="url(#clipPath796)"
               opacity="0.399994"
               id="g802">
              <g
                 transform="translate(164.5493,231.6201)"
                 id="g800">
                <path
                   d="m 0,0 -3.659,3.638 c 0,-0.288 7.091,-44.054 9.085,-56.355 1.202,3.772 2.127,7.491 2.682,11.027 C 10.42,-26.831 5.559,-11.633 0,0"
                   style="fill:#000000;fill-opacity:1;fill-rule:nonzero;stroke:none"
                   id="path798" />
              </g>
            </g>
          </g>
        </g>
        <g
           id="g806"
           transform="translate(163.4443,252.0117)">
          <path
             d="M 0,0 C 0,0 30.318,-39.88 31.171,-63.795 31.886,-83.833 -1.854,-122.54 -1.854,-122.54 l -9.795,6.337 c 0,0 19.729,27.517 24.695,50.011 C 11.152,-43.928 -29.495,0 -29.495,0 Z"
             style="fill:#007cff;fill-opacity:1;fill-rule:nonzero;stroke:none"
             id="path808" />
        </g>
        <g
           id="g810">
          <g
             id="g812" />
          <g
             id="g824">
            <g
               clip-path="url(#clipPath816)"
               opacity="0.600006"
               id="g822">
              <g
                 transform="translate(163.4443,252.0117)"
                 id="g820">
                <path
                   d="M 0,0 C 0,0 30.318,-39.88 31.171,-63.795 31.886,-83.833 -1.854,-122.54 -1.854,-122.54 l -9.795,6.337 c 0,0 19.729,27.517 24.695,50.011 C 11.152,-43.928 -29.495,0 -29.495,0 Z"
                   style="fill:#000000;fill-opacity:1;fill-rule:nonzero;stroke:none"
                   id="path818" />
              </g>
            </g>
          </g>
        </g>
        <g
           id="g826"
           transform="translate(125.9326,299.5898)">
          <path
             d="m 0,0 c -3.247,-0.766 -6.35,-12.553 -6.35,-12.553 l 12.663,-8.453 c 0,0 4.22,9.316 2.747,13.397 C 7.525,-3.359 4.101,0.967 0,0"
             style="fill:#007cff;fill-opacity:1;fill-rule:nonzero;stroke:none"
             id="path828" />
        </g>
        <g
           id="g830">
          <g
             id="g832" />
          <g
             id="g844">
            <g
               clip-path="url(#clipPath836)"
               opacity="0.199997"
               id="g842">
              <g
                 transform="translate(128.4111,292.0059)"
                 id="g840">
                <path
                   d="m 0,0 -0.885,-10.269 4.715,-3.155 c 0,0 2.209,4.881 2.867,9.135 z"
                   style="fill:#000000;fill-opacity:1;fill-rule:nonzero;stroke:none"
                   id="path838" />
              </g>
            </g>
          </g>
        </g>
        <g
           id="g846"
           transform="translate(167.1934,299.3628)">
          <path
             d="m 0,0 c 0,0 3.737,-1.317 -3.749,-47.351 h -31.863 c 0.534,12.968 0.549,20.964 -5.649,47.578 0,0 6.677,1.453 13.531,1.783 5.362,0.258 9.755,0.429 14.468,-10e-4 C -7.047,1.442 0,0 0,0"
             style="fill:#007cff;fill-opacity:1;fill-rule:nonzero;stroke:none"
             id="path848" />
        </g>
        <g
           id="g850"
           transform="translate(170.4292,292.0527)">
          <path
             d="m 0,0 c 0.722,-1.996 1.485,-4.153 2.28,-6.226 0.763,-2.103 1.556,-4.201 2.373,-6.292 l 2.451,-6.281 0.621,-1.57 0.311,-0.785 0.156,-0.392 c 0.027,-0.071 0.021,-0.064 0.012,-0.057 -0.043,0.019 -0.08,0.217 -0.7,0.624 -0.304,0.189 -0.814,0.371 -1.306,0.381 -0.495,0.018 -0.888,-0.102 -1.112,-0.201 -0.451,-0.215 -0.458,-0.307 -0.448,-0.293 0.029,0.015 0.122,0.104 0.224,0.227 0.437,0.525 0.965,1.43 1.429,2.33 0.473,0.918 0.919,1.898 1.365,2.891 0.885,1.994 1.69,4.073 2.509,6.157 0.81,2.089 1.573,4.208 2.329,6.335 l 2.277,6.382 3.853,-0.972 c -0.763,-4.565 -1.748,-9.036 -2.923,-13.523 -0.574,-2.248 -1.238,-4.478 -1.997,-6.728 -0.378,-1.127 -0.802,-2.251 -1.287,-3.397 -0.506,-1.155 -1.006,-2.293 -1.901,-3.617 -0.234,-0.335 -0.501,-0.688 -0.872,-1.078 -0.393,-0.384 -0.846,-0.849 -1.822,-1.288 -0.486,-0.208 -1.162,-0.394 -1.942,-0.362 -0.776,0.022 -1.564,0.297 -2.109,0.635 -1.109,0.708 -1.492,1.382 -1.819,1.889 -0.153,0.253 -0.283,0.516 -0.372,0.705 l -0.19,0.387 -0.379,0.776 -0.757,1.553 c -0.987,2.081 -1.955,4.173 -2.873,6.289 -0.908,2.12 -1.793,4.251 -2.652,6.4 -0.821,2.181 -1.633,4.294 -2.355,6.614 z"
             style="fill:#ff8b7b;fill-opacity:1;fill-rule:nonzero;stroke:none"
             id="path852" />
        </g>
        <g
           id="g854"
           transform="translate(167.1934,299.3628)">
          <path
             d="m 0,0 c 3.83,-0.913 8.133,-12.228 8.133,-12.228 l -11.382,-9.699 c 0,0 -7.376,12.339 -5.884,16.413 C -7.58,-1.271 -5.003,1.192 0,0"
             style="fill:#007cff;fill-opacity:1;fill-rule:nonzero;stroke:none"
             id="path856" />
        </g>
        <g
           id="g858"
           transform="translate(186.9756,298.8105)">
          <path
             d="M 0,0 3.995,3.341 6.773,-0.988 4.726,-4.603 c 0,0 -3.26,-2.983 -6.146,-1.466 C -2.35,-3.955 -1.771,-1.481 0,0"
             style="fill:#ff8b7b;fill-opacity:1;fill-rule:nonzero;stroke:none"
             id="path860" />
        </g>
        <g
           id="g862"
           transform="translate(198.2217,302.1416)">
          <path
             d="M 0,0 -0.299,-1.088 -6.627,-2.151 -7.251,0.01 Z"
             style="fill:#ff8b7b;fill-opacity:1;fill-rule:nonzero;stroke:none"
             id="path864" />
        </g>
        <g
           id="g866"
           transform="translate(162.4019,128.9463)">
          <path
             d="M 0,0 -11.418,7.387 -9.374,10.942 3.459,3.054 Z"
             style="fill:#007cff;fill-opacity:1;fill-rule:nonzero;stroke:none"
             id="path868" />
        </g>
        <g
           id="g870"
           transform="translate(140.7344,124.165)">
          <path
             d="m 0,0 c 1.242,-0.632 2.242,-0.865 2.723,-0.626 0.204,0.103 0.323,0.293 0.363,0.584 C 3.107,0.114 3.052,0.184 3,0.226 2.598,0.565 1.096,0.301 0,0 m 2.249,-1.091 c -0.908,0 -2.103,0.576 -2.827,0.979 -0.065,0.036 -0.102,0.107 -0.094,0.181 0.006,0.074 0.058,0.136 0.128,0.159 C -0.236,0.325 2.473,1.155 3.24,0.511 3.361,0.408 3.496,0.221 3.453,-0.092 3.397,-0.508 3.208,-0.8 2.889,-0.958 2.705,-1.051 2.487,-1.091 2.249,-1.091"
             style="fill:#1a2e35;fill-opacity:1;fill-rule:nonzero;stroke:none"
             id="path872" />
        </g>
        <g
           id="g874"
           transform="translate(142.1855,126.7568)">
          <path
             d="m 0,0 c -0.092,0 -0.185,-0.022 -0.279,-0.067 -0.612,-0.295 -1.126,-1.468 -1.372,-2.18 0.88,0.37 2.082,1.351 2.125,1.899 C 0.48,-0.259 0.46,-0.143 0.24,-0.051 0.16,-0.017 0.079,0 0,0 m -1.939,-2.728 c -0.05,0 -0.098,0.021 -0.133,0.057 -0.047,0.048 -0.064,0.116 -0.046,0.18 0.027,0.092 0.651,2.263 1.678,2.759 0.273,0.13 0.551,0.138 0.823,0.025 0.433,-0.182 0.475,-0.498 0.461,-0.67 -0.071,-0.899 -1.903,-2.141 -2.739,-2.345 -0.014,-0.004 -0.029,-0.006 -0.044,-0.006"
             style="fill:#1a2e35;fill-opacity:1;fill-rule:nonzero;stroke:none"
             id="path876" />
        </g>
        <g
           id="g878"
           transform="translate(154.3711,120.9551)">
          <path
             d="m 0,0 c 1.264,-1.229 2.369,-1.908 3.003,-1.823 0.222,0.027 0.39,0.147 0.515,0.367 0.048,0.084 0.052,0.157 0.013,0.234 C 3.264,-0.687 1.407,-0.226 0,0 m 2.897,-2.202 c -1.126,0 -2.696,1.447 -3.555,2.337 -0.055,0.056 -0.068,0.141 -0.033,0.212 0.036,0.07 0.126,0.11 0.19,0.101 0.395,-0.051 3.873,-0.52 4.365,-1.503 C 3.958,-1.244 3.95,-1.447 3.841,-1.64 3.657,-1.964 3.39,-2.149 3.049,-2.193 3,-2.199 2.949,-2.202 2.897,-2.202"
             style="fill:#1a2e35;fill-opacity:1;fill-rule:nonzero;stroke:none"
             id="path880" />
        </g>
        <g
           id="g882"
           transform="translate(154.2227,121.3613)">
          <path
             d="M 0,0 C 1.117,-0.062 2.903,0.309 3.136,0.796 3.156,0.837 3.215,0.96 2.957,1.183 2.741,1.367 2.491,1.444 2.202,1.418 1.362,1.344 0.426,0.453 0,0 m 0.258,-0.375 c -0.257,0 -0.487,0.016 -0.668,0.05 -0.065,0.012 -0.118,0.057 -0.141,0.118 -0.022,0.062 -0.011,0.132 0.031,0.183 0.058,0.069 1.41,1.7 2.689,1.812 C 2.569,1.819 2.907,1.713 3.197,1.465 3.591,1.128 3.563,0.828 3.471,0.637 3.154,-0.03 1.426,-0.375 0.258,-0.375"
             style="fill:#1a2e35;fill-opacity:1;fill-rule:nonzero;stroke:none"
             id="path884" />
        </g>
        <g
           id="g886"
           transform="translate(140.5215,125.082)">
          <path
             d="M 0,0 -8.482,2.397 C -8.791,2.485 -9.102,2.341 -9.23,2.053 l -2.863,-6.438 c -0.297,-0.668 0.115,-1.496 0.831,-1.685 2.971,-0.784 4.445,-1.014 8.175,-2.069 2.295,-0.648 5.58,-1.834 8.749,-2.73 3.099,-0.876 4.223,2.19 2.984,2.847 C 3.089,-5.077 2.65,-3.059 1.13,-0.821 0.856,-0.417 0.451,-0.128 0,0"
             style="fill:#007cff;fill-opacity:1;fill-rule:nonzero;stroke:none"
             id="path888" />
        </g>
        <g
           id="g890"
           transform="translate(153.9438,122.2568)">
          <path
             d="M 0,0 -7.24,5.027 C -7.503,5.21 -7.844,5.175 -8.06,4.943 l -4.802,-5.155 c -0.498,-0.535 -0.377,-1.452 0.238,-1.863 2.554,-1.709 3.874,-2.405 7.057,-4.616 1.959,-1.36 5.87,-4.376 8.574,-6.254 2.646,-1.837 4.706,0.696 3.748,1.72 C 2.459,-6.632 1.511,-3.754 0.802,-1.144 0.674,-0.673 0.386,-0.268 0,0"
             style="fill:#007cff;fill-opacity:1;fill-rule:nonzero;stroke:none"
             id="path892" />
        </g>
        <g
           id="g894"
           transform="translate(148.0747,131.5645)">
          <path
             d="m 0,0 -13.056,6.489 1.351,3.532 L 2.231,3.19 Z"
             style="fill:#007cff;fill-opacity:1;fill-rule:nonzero;stroke:none"
             id="path896" />
        </g>
        <g
           id="g898"
           transform="translate(131.104,253.8818)">
          <path
             d="m 0,0 -1.104,-2.852 c -0.112,-0.222 0.15,-0.447 0.518,-0.447 h 33.084 c 0.287,0 0.525,0.14 0.543,0.321 l 0.288,2.852 c 0.019,0.198 -0.23,0.365 -0.544,0.365 H 0.519 C 0.282,0.239 0.072,0.142 0,0"
             style="fill:#007cff;fill-opacity:1;fill-rule:nonzero;stroke:none"
             id="path900" />
        </g>
        <g
           id="g902">
          <g
             id="g904" />
          <g
             id="g916">
            <g
               clip-path="url(#clipPath908)"
               opacity="0.399994"
               id="g914">
              <g
                 transform="translate(131.104,253.8818)"
                 id="g912">
                <path
                   d="m 0,0 -1.104,-2.852 c -0.112,-0.222 0.15,-0.447 0.518,-0.447 h 33.084 c 0.287,0 0.525,0.14 0.543,0.321 l 0.288,2.852 c 0.019,0.198 -0.23,0.365 -0.544,0.365 H 0.519 C 0.282,0.239 0.072,0.142 0,0"
                   style="fill:#ffffff;fill-opacity:1;fill-rule:nonzero;stroke:none"
                   id="path910" />
              </g>
            </g>
          </g>
        </g>
        <g
           id="g918"
           transform="translate(136.3076,250.2739)">
          <path
             d="M 0,0 H -0.864 C -1.037,0 -1.167,0.088 -1.156,0.197 L -0.75,3.902 C -0.738,4.011 -0.588,4.1 -0.416,4.1 H 0.448 C 0.621,4.1 0.751,4.011 0.74,3.902 L 0.334,0.197 C 0.322,0.088 0.172,0 0,0"
             style="fill:#007cff;fill-opacity:1;fill-rule:nonzero;stroke:none"
             id="path920" />
        </g>
        <g
           id="g922"
           transform="translate(156.7139,250.2739)">
          <path
             d="M 0,0 H -0.864 C -1.036,0 -1.167,0.088 -1.155,0.197 L -0.75,3.902 C -0.738,4.011 -0.588,4.1 -0.416,4.1 H 0.449 C 0.621,4.1 0.752,4.011 0.74,3.902 L 0.334,0.197 C 0.323,0.088 0.172,0 0,0"
             style="fill:#007cff;fill-opacity:1;fill-rule:nonzero;stroke:none"
             id="path924" />
        </g>
        <g
           id="g926">
          <g
             id="g928" />
          <g
             id="g940">
            <g
               clip-path="url(#clipPath932)"
               id="g938">
              <g
                 transform="translate(108.7554,82.8584)"
                 id="g936">
                <path
                   d="m 0,0 c -0.049,-1.073 11.906,-1.944 26.702,-1.945 14.796,-10e-4 26.831,0.869 26.88,1.942 C 53.631,1.071 41.677,1.942 26.88,1.943 12.084,1.944 0.049,1.074 0,0"
                   style="fill:#f5f5f5;fill-opacity:1;fill-rule:nonzero;stroke:none"
                   id="path934" />
              </g>
            </g>
          </g>
        </g>
        <g
           id="g942"
           transform="translate(151.8726,85.5996)">
          <path
             d="m 0,0 c -4.74,1.376 -9.957,3.149 -13.185,5.035 -0.089,0.052 -0.184,0.09 -0.275,0.138 v 21.428 h 9.533 c 1.577,0 2.855,1.278 2.855,2.854 0,1.577 -1.278,2.855 -2.855,2.855 h -9.533 v 97.823 h -5.709 V 32.31 h -9.535 c -1.576,0 -2.854,-1.278 -2.854,-2.855 0,-1.576 1.278,-2.854 2.854,-2.854 h 9.535 V 5.173 C -19.261,5.125 -19.356,5.087 -19.446,5.035 -22.674,3.149 -27.89,1.376 -32.631,0 c -1.555,-0.451 -1.227,-2.741 0.393,-2.741 h 15.923 15.923 c 1.62,0 1.948,2.29 0.392,2.741"
             style="fill:#e1e1e1;fill-opacity:1;fill-rule:nonzero;stroke:none"
             id="path944" />
        </g>
        <g
           id="g946"
           transform="translate(153.3398,204.7529)">
          <path
             d="m 0,0 h -35.565 c -2.849,0 -5.18,2.331 -5.18,5.181 v 10.572 c 0,2.85 2.331,5.181 5.18,5.181 H 0 c 2.849,0 5.18,-2.331 5.18,-5.181 V 5.181 C 5.18,2.331 2.849,0 0,0"
             style="fill:#007cff;fill-opacity:1;fill-rule:nonzero;stroke:none"
             id="path948" />
        </g>
        <g
           id="g950"
           transform="translate(117.4478,204.7529)">
          <path
             d="M 0,0 V -1.819 C 0,-3.32 1.633,-4.547 3.628,-4.547 h 28.963 c 1.995,0 3.628,1.227 3.628,2.728 V 0 Z"
             style="fill:#007cff;fill-opacity:1;fill-rule:nonzero;stroke:none"
             id="path952" />
        </g>
        <g
           id="g954">
          <g
             id="g956" />
          <g
             id="g968">
            <g
               clip-path="url(#clipPath960)"
               opacity="0.300003"
               id="g966">
              <g
                 transform="translate(117.4478,204.7529)"
                 id="g964">
                <path
                   d="M 0,0 V -1.819 C 0,-3.32 1.633,-4.547 3.628,-4.547 h 28.963 c 1.995,0 3.628,1.227 3.628,2.728 V 0 Z"
                   style="fill:#ffffff;fill-opacity:1;fill-rule:nonzero;stroke:none"
                   id="path962" />
              </g>
            </g>
          </g>
        </g>
      </g>
    </g>
  </g>
</svg>
